<svg width="512" height="513" viewBox="0 0 512 513" fill="none" xmlns="http://www.w3.org/2000/svg">
<g clip-path="url(#clip0_4031_25)">
<path d="M378.958 218.379C375.048 214.469 368.718 214.469 364.808 218.379C360.908 222.279 360.908 228.609 364.808 232.519C368.718 236.429 375.048 236.429 378.958 232.519C382.859 228.609 382.859 222.279 378.958 218.379Z" fill="#1D9E00"/>
<path d="M503.161 65.8889L446.589 9.3179C434.865 -2.4041 415.892 -2.4081 404.166 9.3179L386.026 27.4579C378.588 34.8959 375.741 45.3689 377.985 55.3209L295.973 69.7919C277.683 73.0289 261.089 81.6739 247.989 94.7859L230.456 112.308C218.91 123.854 214.206 139.689 216.336 154.732C201.181 152.592 185.478 157.297 173.898 168.876C162.335 180.432 157.606 196.122 159.745 211.309C144.596 209.178 128.898 213.877 117.326 225.448C106.092 236.682 100.976 252.237 103.186 267.897C88.1405 265.765 72.3045 270.47 60.7565 282.017L20.4655 322.298C-6.8215 349.587 -6.8225 393.999 20.4665 421.301L91.1785 492.012C118.476 519.296 162.884 519.303 190.18 492.01L230.46 451.72C242.008 440.172 246.713 424.333 244.579 409.287C260.17 411.486 275.752 406.428 287.029 395.151C298.573 383.607 303.276 367.772 301.145 352.726C316.653 354.916 332.259 349.932 343.599 338.581C355.144 327.036 359.848 311.203 357.718 296.161C373.373 298.371 388.932 293.258 400.172 282.018L417.688 264.494C430.806 251.388 439.449 234.792 442.686 216.497L457.156 134.492C467.089 136.731 477.566 133.905 485.02 126.451L503.16 108.311C514.885 96.5869 514.887 77.6139 503.161 65.8889ZM216.316 437.578L176.038 477.867C156.546 497.36 124.82 497.359 105.32 477.867L34.6105 407.16C15.1175 387.658 15.1175 355.933 34.6085 336.441L74.8995 296.16C86.5965 284.462 105.63 284.462 117.328 296.16L216.318 395.149C228.016 406.847 228.015 425.88 216.316 437.578ZM272.885 381.008C261.193 392.7 242.199 392.749 230.458 381.008L131.469 282.018C119.748 270.296 119.744 251.315 131.469 239.59C143.182 227.876 162.151 227.872 173.889 239.583C173.892 239.586 173.893 239.588 173.896 239.591L272.882 338.576L272.883 338.577V338.578C284.578 350.281 284.58 369.314 272.885 381.008ZM329.453 324.442C317.742 336.167 298.746 336.169 287.029 324.438L188.036 225.446C176.308 213.726 176.303 194.748 188.04 183.02C199.769 171.291 218.727 171.289 230.458 183.02L329.457 282.02C341.153 293.714 341.153 312.743 329.453 324.442ZM422.991 213.018C420.473 227.247 413.752 240.155 403.546 250.351L386.027 267.878C374.33 279.576 355.297 279.576 343.599 267.878L244.6 168.878C232.903 157.18 232.903 138.148 244.598 126.452L262.132 108.927C272.322 98.7269 285.231 92.0049 299.454 89.4869L389.708 73.5619L438.915 122.77L422.991 213.018ZM489.018 94.1689L470.878 112.309C466.97 116.216 460.649 116.217 456.74 112.309L400.171 55.7379C396.264 51.8289 396.262 45.5089 400.171 41.5999L418.311 23.4599C422.22 19.5519 428.541 19.5529 432.449 23.4599L489.018 80.0309C492.919 83.9329 492.933 90.2519 489.018 94.1689Z" fill="#1D9E00"/>
<path d="M505.415 379.282L460.855 291.983C459.146 288.636 455.706 286.529 451.948 286.529C448.19 286.529 444.75 288.636 443.041 291.983L398.484 379.278C378.232 418.899 407.091 466.529 451.948 466.529C496.797 466.529 525.666 418.907 505.415 379.282ZM451.948 446.529C422.014 446.529 402.82 414.739 416.296 388.375L451.948 318.525L487.603 388.379C501.062 414.714 481.911 446.529 451.948 446.529Z" fill="#1D9E00"/>
<path d="M350.672 190.088L302.392 141.808C298.486 137.903 292.156 137.903 288.249 141.808C284.344 145.713 284.344 152.045 288.249 155.95L336.529 204.23C340.435 208.135 346.765 208.135 350.672 204.23C354.577 200.324 354.577 193.993 350.672 190.088Z" fill="#1D9E00"/>
</g>
<defs>
<clipPath id="clip0_4031_25">
<rect width="512.003" height="512.003" fill="white" transform="translate(0 0.5)"/>
</clipPath>
</defs>
</svg>
