<svg width="64" height="65" viewBox="0 0 64 65" fill="none" xmlns="http://www.w3.org/2000/svg">
<path d="M59 24.5699V22.5699C59.0007 22.1556 58.9177 21.7455 58.7562 21.3641C58.5947 20.9826 58.3579 20.6377 58.06 20.3499C57.759 20.0647 57.404 19.8426 57.0159 19.6966C56.6277 19.5506 56.2143 19.4837 55.8 19.4999C52.1106 19.5997 48.4338 19.9741 44.8 20.6199L43.48 20.8799C43.1966 18.0736 41.897 15.4678 39.8259 13.5531C37.7549 11.6384 35.0553 10.547 32.2354 10.4843C29.4156 10.4216 26.6702 11.392 24.5161 13.2128C22.362 15.0335 20.9478 17.579 20.54 20.3699C20.54 20.5499 20.54 20.7199 20.54 20.8899C16.473 20.0806 12.3451 19.6156 8.2 19.4999C7.78492 19.4879 7.37163 19.5591 6.98452 19.7094C6.59741 19.8596 6.24432 20.0859 5.94606 20.3748C5.64781 20.6638 5.41044 21.0095 5.24796 21.3917C5.08547 21.7738 5.00116 22.1846 5 22.5999V24.5999C3.87064 24.8304 2.8556 25.4441 2.12669 26.337C1.39778 27.2299 0.999765 28.3472 1 29.4999V57.4999C1 58.826 1.52678 60.0977 2.46447 61.0354C2.92876 61.4997 3.47995 61.868 4.08658 62.1193C4.69321 62.3705 5.34339 62.4999 6 62.4999H58C59.3261 62.4999 60.5979 61.9731 61.5355 61.0354C62.4732 60.0977 63 58.826 63 57.4999V29.4999C63.0072 28.3421 62.6123 27.2177 61.8828 26.3186C61.1533 25.4195 60.1344 24.8014 59 24.5699ZM22.54 20.6499C22.858 18.5714 23.8489 16.6547 25.3607 15.1934C26.8726 13.7321 28.822 12.807 30.91 12.5599C31.272 12.52 31.6358 12.5 32 12.4999C34.3496 12.4943 36.6171 13.3642 38.36 14.9399C39.4091 15.8775 40.2384 17.0351 40.7886 18.3301C41.3387 19.6251 41.5963 21.0256 41.5428 22.4316C41.4893 23.8376 41.1261 25.2145 40.4791 26.464C39.8321 27.7135 38.9173 28.8047 37.8 29.6599C36.9526 30.2881 36.2631 31.1049 35.7858 32.0455C35.3085 32.9862 35.0566 34.0251 35.05 35.0799C35.0474 35.4557 34.8969 35.8153 34.6312 36.0811C34.3655 36.3468 34.0058 36.4973 33.63 36.4999H33V29.4999C33.0005 29.2662 32.9191 29.0398 32.77 28.8599L29.13 24.4999H34.58L32.79 26.2899C32.6262 26.4812 32.5406 26.7273 32.5503 26.9789C32.56 27.2306 32.6643 27.4693 32.8424 27.6474C33.0205 27.8255 33.2593 27.9299 33.5109 27.9396C33.7626 27.9493 34.0087 27.8637 34.2 27.6999L37.7 24.1999C37.837 24.0601 37.93 23.8832 37.9675 23.6911C38.0049 23.4989 37.9852 23.3 37.9106 23.119C37.8361 22.938 37.7101 22.7829 37.5482 22.6728C37.3863 22.5628 37.1957 22.5026 37 22.4999H27C26.8098 22.4996 26.6235 22.5535 26.4629 22.6553C26.3023 22.7572 26.174 22.9027 26.0932 23.0749C26.0124 23.247 25.9823 23.4387 26.0065 23.6273C26.0308 23.8159 26.1083 23.9937 26.23 24.1399L31 29.8599V36.4999H30.37C30.1814 36.4999 29.9946 36.4626 29.8204 36.3901C29.6463 36.3176 29.4882 36.2114 29.3553 36.0775C29.2224 35.9437 29.1172 35.7848 29.046 35.6102C28.9747 35.4355 28.9387 35.2485 28.94 35.0599C28.9284 34.0063 28.6732 32.9697 28.1944 32.0312C27.7156 31.0927 27.0262 30.2777 26.18 29.6499C24.8209 28.615 23.7656 27.233 23.1251 25.6493C22.4845 24.0656 22.2824 22.3387 22.54 20.6499ZM7 22.5999C7.00124 22.4515 7.03221 22.3049 7.09107 22.1687C7.14993 22.0326 7.2355 21.9096 7.3427 21.807C7.44991 21.7045 7.57659 21.6245 7.71525 21.5717C7.85391 21.5189 8.00174 21.4945 8.15 21.4999C12.2967 21.6151 16.4255 22.0902 20.49 22.9199C20.6048 24.5467 21.0667 26.1301 21.8446 27.5635C22.6225 28.9969 23.6985 30.2471 25 31.2299C25.608 31.6713 26.1052 32.2479 26.4523 32.9143C26.7994 33.5807 26.9869 34.3186 27 35.0699C26.9999 35.9693 27.353 36.8327 27.9833 37.4743C28.6136 38.1158 29.4707 38.4841 30.37 38.4999H33.63C34.0826 38.4986 34.5305 38.408 34.948 38.2332C35.3655 38.0585 35.7444 37.8031 36.0631 37.4817C36.3817 37.1603 36.6338 36.7792 36.8049 36.3601C36.9759 35.9411 37.0626 35.4925 37.06 35.0399C37.0762 34.2948 37.2653 33.5638 37.6124 32.9043C37.9595 32.2448 38.455 31.6751 39.06 31.2399C40.3553 30.2513 41.4249 28.9978 42.1975 27.5631C42.97 26.1284 43.4277 24.5455 43.54 22.9199L45.2 22.5899C48.7182 21.9641 52.278 21.5998 55.85 21.4999C56 21.4922 56.15 21.5167 56.2897 21.5719C56.4295 21.6271 56.5557 21.7117 56.66 21.8199C56.7655 21.9225 56.8491 22.0453 56.9058 22.1811C56.9625 22.3169 56.9912 22.4627 56.99 22.6099V54.3999C56.9903 54.6832 56.8813 54.9556 56.6857 55.1605C56.4901 55.3654 56.223 55.487 55.94 55.4999C48.0912 55.6048 40.3236 57.1049 33 59.9299V42.4999H34C34.2652 42.4999 34.5196 42.3945 34.7071 42.207C34.8946 42.0194 35 41.7651 35 41.4999C35 41.2347 34.8946 40.9803 34.7071 40.7928C34.5196 40.6052 34.2652 40.4999 34 40.4999H30C29.7348 40.4999 29.4804 40.6052 29.2929 40.7928C29.1054 40.9803 29 41.2347 29 41.4999C29 41.7651 29.1054 42.0194 29.2929 42.207C29.4804 42.3945 29.7348 42.4999 30 42.4999H31V59.9399C23.6783 57.1073 15.9099 55.6038 8.06 55.4999C7.77525 55.4895 7.50563 55.3691 7.30791 55.1639C7.1102 54.9587 6.99981 54.6848 7 54.3999V22.5999ZM3 57.4999V29.4999C3.00174 28.8809 3.19488 28.2777 3.55294 27.7728C3.911 27.2679 4.41645 26.8862 5 26.6799V54.3999C5.00456 55.2035 5.31904 55.9744 5.87791 56.5519C6.43679 57.1294 7.19695 57.469 8 57.4999C14.2782 57.6488 20.5062 58.6582 26.51 60.4999H6C5.20435 60.4999 4.44129 60.1838 3.87868 59.6212C3.31607 59.0586 3 58.2955 3 57.4999ZM61 57.4999C61 58.2955 60.6839 59.0586 60.1213 59.6212C59.5587 60.1838 58.7956 60.4999 58 60.4999H37.48C43.487 58.6573 49.7185 57.6479 56 57.4999C56.8031 57.469 57.5632 57.1294 58.1221 56.5519C58.681 55.9744 58.9954 55.2035 59 54.3999V26.6499C59.5884 26.8579 60.0973 27.2442 60.4557 27.7551C60.8142 28.2659 61.0045 28.8758 61 29.4999V57.4999Z" fill="#1D9E00"/>
<path d="M10.931 27.4999C12.251 27.5899 13.581 27.7099 14.881 27.8699H15.001C15.2662 27.8858 15.5269 27.7957 15.7257 27.6194C15.9245 27.4432 16.0451 27.1951 16.061 26.9299C16.0769 26.6647 15.9868 26.404 15.8106 26.2052C15.6343 26.0064 15.3862 25.8858 15.121 25.8699C13.791 25.7099 12.421 25.5799 11.071 25.4899C10.8058 25.4727 10.5446 25.5615 10.3449 25.7368C10.1451 25.9122 10.0233 26.1597 10.006 26.4249C9.98878 26.6901 10.0776 26.9513 10.2529 27.151C10.4283 27.3508 10.6758 27.4727 10.941 27.4899L10.931 27.4999Z" fill="#1D9E00"/>
<path d="M10.931 31.6298C13.3706 31.7889 15.8004 32.0726 18.211 32.4798H18.381C18.5123 32.4909 18.6446 32.4761 18.7702 32.4362C18.8958 32.3962 19.0123 32.3319 19.113 32.247C19.2138 32.162 19.2968 32.058 19.3574 31.941C19.4179 31.8239 19.4549 31.6961 19.466 31.5648C19.4772 31.4334 19.4624 31.3012 19.4224 31.1756C19.3825 31.05 19.3182 30.9335 19.2332 30.8328C19.1483 30.732 19.0443 30.649 18.9272 30.5884C18.8102 30.5278 18.6823 30.4909 18.551 30.4798C16.0743 30.0595 13.5777 29.7658 11.071 29.5998C10.8058 29.5825 10.5446 29.6714 10.3449 29.8467C10.1451 30.022 10.0233 30.2696 10.006 30.5348C9.98878 30.8 10.0776 31.0612 10.2529 31.2609C10.4283 31.4606 10.6758 31.5825 10.941 31.5998L10.931 31.6298Z" fill="#1D9E00"/>
<path d="M10.0019 37.5702C9.98548 37.8339 10.074 38.0934 10.2483 38.292C10.4226 38.4906 10.6683 38.6122 10.9319 38.6302C16.2806 38.9579 21.5712 39.9213 26.6919 41.5002C26.9452 41.5798 27.2197 41.5554 27.4551 41.4326C27.6905 41.3098 27.8674 41.0985 27.9469 40.8452C28.0265 40.5919 28.0022 40.3174 27.8794 40.082C27.7565 39.8467 27.5452 39.6698 27.2919 39.5902C22.0201 37.9499 16.5718 36.9428 11.0619 36.5902C10.9273 36.5821 10.7925 36.6013 10.6655 36.6466C10.5385 36.692 10.4219 36.7626 10.3229 36.8541C10.2239 36.9457 10.1444 37.0563 10.0893 37.1793C10.0341 37.3024 10.0044 37.4354 10.0019 37.5702Z" fill="#1D9E00"/>
<path d="M27.301 44.5002C22.0292 42.86 16.5809 41.8529 11.071 41.5002C10.9397 41.4916 10.808 41.509 10.6834 41.5514C10.5588 41.5938 10.4438 41.6603 10.3449 41.7471C10.1451 41.9224 10.0233 42.1699 10.006 42.4352C9.98878 42.7004 10.0776 42.9616 10.2529 43.1613C10.4283 43.361 10.6758 43.4829 10.941 43.5002C16.29 43.8312 21.5806 44.798 26.701 46.3802C26.9356 46.4146 27.1747 46.3646 27.3758 46.239C27.5769 46.1135 27.7268 45.9206 27.7989 45.6948C27.871 45.469 27.8605 45.2249 27.7693 45.0061C27.6781 44.7873 27.5121 44.608 27.301 44.5002Z" fill="#1D9E00"/>
<path d="M27.301 49.5002C22.0292 47.8599 16.5809 46.8528 11.071 46.5002C10.8058 46.4829 10.5446 46.5717 10.3449 46.7471C10.1451 46.9224 10.0233 47.1699 10.006 47.4352C9.98878 47.7004 10.0776 47.9616 10.2529 48.1613C10.4283 48.361 10.6758 48.4829 10.941 48.5002C16.2916 48.8709 21.5788 49.878 26.691 51.5002C26.9562 51.581 27.2427 51.5533 27.4875 51.4229C27.7322 51.2926 27.9151 51.0704 27.996 50.8052C28.0769 50.5399 28.0491 50.2535 27.9188 50.0087C27.7885 49.764 27.5662 49.5811 27.301 49.5002Z" fill="#1D9E00"/>
<path d="M37.001 41.5598C37.1005 41.5749 37.2016 41.5749 37.301 41.5598C42.4214 39.9776 47.712 39.0108 53.061 38.6798C53.3263 38.6626 53.5738 38.5407 53.7491 38.341C53.9245 38.1413 54.0133 37.8801 53.996 37.6148C53.9788 37.3496 53.8569 37.1021 53.6572 36.9268C53.4575 36.7514 53.1963 36.6626 52.931 36.6798C47.4212 37.0325 41.9729 38.0396 36.701 39.6798C36.5697 39.6995 36.4436 39.7449 36.3298 39.8134C36.216 39.8818 36.1168 39.972 36.0379 40.0788C35.8785 40.2945 35.8113 40.5646 35.851 40.8298C35.8908 41.0951 36.0343 41.3336 36.25 41.493C36.4657 41.6524 36.7358 41.7196 37.001 41.6798V41.5598Z" fill="#1D9E00"/>
<path d="M37.001 46.4302C37.1005 46.4452 37.2016 46.4452 37.301 46.4302C42.4194 44.831 47.71 43.8475 53.061 43.5002C53.1924 43.4916 53.3207 43.4573 53.4388 43.3992C53.5568 43.341 53.6623 43.2602 53.7491 43.1613C53.8359 43.0624 53.9024 42.9474 53.9448 42.8228C53.9872 42.6982 54.0046 42.5665 53.996 42.4352C53.9875 42.3038 53.9532 42.1755 53.895 42.0574C53.8369 41.9394 53.7561 41.8339 53.6572 41.7471C53.5583 41.6603 53.4433 41.5938 53.3187 41.5514C53.1941 41.509 53.0624 41.4916 52.931 41.5002C47.4212 41.8529 41.9729 42.86 36.701 44.5002C36.4358 44.5399 36.1973 44.6835 36.0379 44.8991C35.8785 45.1148 35.8113 45.3849 35.851 45.6502C35.8908 45.9154 36.0343 46.1539 36.25 46.3133C36.4657 46.4727 36.7358 46.5399 37.001 46.5002V46.4302Z" fill="#1D9E00"/>
<path d="M37.001 51.4998C37.1005 51.5149 37.2016 51.5149 37.301 51.4998C42.4214 49.9175 47.712 48.9507 53.061 48.6198C53.3263 48.6025 53.5738 48.4807 53.7491 48.2809C53.9245 48.0812 54.0133 47.82 53.996 47.5548C53.9788 47.2896 53.8569 47.0421 53.6572 46.8667C53.4575 46.6914 53.1963 46.6025 52.931 46.6198C47.426 46.9334 41.9778 47.9002 36.701 49.4998C36.4358 49.5396 36.1973 49.6831 36.0379 49.8987C35.8785 50.1144 35.8113 50.3846 35.851 50.6498C35.8908 50.915 36.0343 51.1536 36.25 51.313C36.4657 51.4724 36.7358 51.5396 37.001 51.4998Z" fill="#1D9E00"/>
<path d="M32 7.5C32.2652 7.5 32.5196 7.39464 32.7071 7.20711C32.8946 7.01957 33 6.76522 33 6.5V2.5C33 2.23478 32.8946 1.98043 32.7071 1.79289C32.5196 1.60536 32.2652 1.5 32 1.5C31.7348 1.5 31.4804 1.60536 31.2929 1.79289C31.1054 1.98043 31 2.23478 31 2.5V6.5C31 6.76522 31.1054 7.01957 31.2929 7.20711C31.4804 7.39464 31.7348 7.5 32 7.5Z" fill="#1D9E00"/>
<path d="M39.0683 10.4301C39.1999 10.4309 39.3304 10.4057 39.4522 10.3559C39.5741 10.3061 39.6849 10.2328 39.7783 10.1401L42.6083 7.31012C42.7721 7.11882 42.8577 6.87275 42.848 6.62107C42.8383 6.3694 42.734 6.13066 42.5559 5.95256C42.3778 5.77447 42.139 5.67013 41.8874 5.66041C41.6357 5.65069 41.3896 5.7363 41.1983 5.90013L38.3583 8.72013C38.2173 8.86 38.1211 9.0387 38.082 9.23344C38.043 9.42819 38.0628 9.63016 38.1389 9.81361C38.2151 9.99705 38.3442 10.1537 38.5097 10.2635C38.6752 10.3733 38.8697 10.4313 39.0683 10.4301Z" fill="#1D9E00"/>
<path d="M24.2206 10.1399C24.4119 10.3037 24.658 10.3893 24.9097 10.3796C25.1613 10.3699 25.4001 10.2655 25.5782 10.0874C25.7563 9.90934 25.8606 9.6706 25.8703 9.41892C25.88 9.16725 25.7944 8.92117 25.6306 8.72987L22.8106 5.88987C22.6193 5.72604 22.3732 5.64044 22.1216 5.65016C21.8699 5.65988 21.6311 5.76421 21.4531 5.94231C21.275 6.1204 21.1706 6.35914 21.1609 6.61082C21.1512 6.86249 21.2368 7.10857 21.4006 7.29987L24.2206 10.1399Z" fill="#1D9E00"/>
</svg>
