<svg width="512" height="513" viewBox="0 0 512 513" fill="none" xmlns="http://www.w3.org/2000/svg">
<g clip-path="url(#clip0_4031_70)">
<path d="M256 114.5C177.701 114.5 114 178.201 114 256.5C114 334.799 177.701 398.5 256 398.5C334.299 398.5 398 334.799 398 256.5C398 178.201 334.299 114.5 256 114.5ZM256 378.5C188.729 378.5 134 323.771 134 256.5C134 189.229 188.729 134.5 256 134.5C323.271 134.5 378 189.229 378 256.5C378 323.771 323.271 378.5 256 378.5Z" fill="#1D9E00"/>
<path d="M506.691 1.668C503.424 -0.0659989 499.466 0.143001 496.401 2.213C447.309 35.384 418 90.56 418 149.809V279.561C418 293.478 423.42 306.562 433.26 316.403L452 335.143V482.5C452 499.042 465.458 512.5 482 512.5C498.542 512.5 512 499.042 512 482.5V10.5C512 6.801 509.958 3.404 506.691 1.668ZM492 482.5C492 488.014 487.514 492.5 482 492.5C476.486 492.5 472 488.014 472 482.5V331C472 328.348 470.946 325.805 469.071 323.929L447.402 302.26C441.339 296.197 438 288.136 438 279.561V149.809C438 103.829 457.881 60.615 492 30.797V482.5Z" fill="#1D9E00"/>
<path d="M233.057 177.193C230.889 172.114 225.011 169.755 219.933 171.922C186 186.408 164.074 219.607 164.074 256.5C164.074 262.022 168.551 266.5 174.074 266.5C179.597 266.5 184.074 262.022 184.074 256.5C184.074 227.631 201.232 201.652 227.786 190.317C232.865 188.149 235.225 182.273 233.057 177.193Z" fill="#1D9E00"/>
<path d="M256.001 164.575L255.496 164.576C249.973 164.613 245.526 169.12 245.563 174.643C245.6 180.143 250.07 184.576 255.562 184.576C255.584 184.576 255.608 184.576 255.63 184.576L256.001 184.575C261.524 184.575 266.001 180.098 266.001 174.575C266.001 169.052 261.524 164.575 256.001 164.575Z" fill="#1D9E00"/>
<path d="M394.623 124.979C376.955 106.363 356.129 91.7151 332.724 81.4431C308.488 70.8071 282.674 65.4141 256 65.4141C225.52 65.4141 196.384 72.3801 169.402 86.1201C164.481 88.6261 162.522 94.6471 165.028 99.5691C167.535 104.489 173.556 106.447 178.478 103.942C202.622 91.6481 228.704 85.4141 256 85.4141C303.396 85.4141 347.475 104.354 380.116 138.747C382.082 140.819 384.724 141.863 387.371 141.863C389.843 141.863 392.319 140.952 394.253 139.116C398.259 135.314 398.424 128.985 394.623 124.979Z" fill="#1D9E00"/>
<path d="M404.332 360.879C399.999 357.455 393.711 358.19 390.286 362.522C357.593 403.872 308.648 427.586 256.001 427.586C223.051 427.586 191.064 418.202 163.498 400.448C158.856 397.457 152.666 398.798 149.676 403.44C146.686 408.084 148.026 414.272 152.669 417.262C183.471 437.1 219.203 447.585 256.001 447.585C314.801 447.585 369.464 421.102 405.974 374.925C409.399 370.594 408.665 364.305 404.332 360.879Z" fill="#1D9E00"/>
<path d="M135.958 378.424L135.811 378.255C135.758 378.19 135.705 378.124 135.65 378.06C132.093 373.834 125.785 373.294 121.56 376.85C117.335 380.408 116.793 386.715 120.351 390.941L120.448 391.056L120.453 391.052C120.559 391.186 120.669 391.32 120.783 391.452C122.761 393.756 125.559 394.938 128.375 394.938C130.681 394.938 132.998 394.145 134.884 392.526C139.074 388.928 139.555 382.615 135.958 378.424Z" fill="#1D9E00"/>
<path d="M124 0.5C118.477 0.5 114 4.977 114 10.5V118.5H95.992C95.993 118.444 96 118.39 96 118.333V10.5C96 4.977 91.523 0.5 86 0.5C80.477 0.5 76 4.977 76 10.5V118.333C76 118.389 76.008 118.444 76.008 118.5H57.992C57.993 118.444 58 118.39 58 118.333V10.5C58 4.977 53.523 0.5 48 0.5C42.477 0.5 38 4.977 38 10.5V118.333C38 118.389 38.008 118.444 38.008 118.5H20V10.5C20 4.977 15.523 0.5 10 0.5C4.477 0.5 0 4.977 0 10.5V132.5C0 157.03 14.884 179.169 37 188.739V482.5C37 499.042 50.458 512.5 67 512.5C83.542 512.5 97 499.042 97 482.5V188.739C119.116 179.169 134 157.03 134 132.5V10.5C134 4.977 129.523 0.5 124 0.5ZM84.224 172.12C79.946 173.356 77 177.273 77 181.727V482.5C77 488.014 72.514 492.5 67 492.5C61.486 492.5 57 488.014 57 482.5V181.727C57 177.273 54.055 173.356 49.776 172.12C34.193 167.617 22.795 154.241 20.452 138.5H113.547C111.205 154.241 99.807 167.617 84.224 172.12Z" fill="#1D9E00"/>
</g>
<defs>
<clipPath id="clip0_4031_70">
<rect width="512" height="512" fill="white" transform="translate(0 0.5)"/>
</clipPath>
</defs>
</svg>
