<svg width="512" height="513" viewBox="0 0 512 513" fill="none" xmlns="http://www.w3.org/2000/svg">
<path d="M304 104.5H280V80.5C280 78.3783 279.157 76.3434 277.657 74.8431C276.157 73.3429 274.122 72.5 272 72.5H240C237.878 72.5 235.843 73.3429 234.343 74.8431C232.843 76.3434 232 78.3783 232 80.5V104.5H208C205.878 104.5 203.843 105.343 202.343 106.843C200.843 108.343 200 110.378 200 112.5V144.5C200 146.622 200.843 148.657 202.343 150.157C203.843 151.657 205.878 152.5 208 152.5H232V176.5C232 178.622 232.843 180.657 234.343 182.157C235.843 183.657 237.878 184.5 240 184.5H272C274.122 184.5 276.157 183.657 277.657 182.157C279.157 180.657 280 178.622 280 176.5V152.5H304C306.122 152.5 308.157 151.657 309.657 150.157C311.157 148.657 312 146.622 312 144.5V112.5C312 110.378 311.157 108.343 309.657 106.843C308.157 105.343 306.122 104.5 304 104.5ZM296 136.5H272C269.878 136.5 267.843 137.343 266.343 138.843C264.843 140.343 264 142.378 264 144.5V168.5H248V144.5C248 142.378 247.157 140.343 245.657 138.843C244.157 137.343 242.122 136.5 240 136.5H216V120.5H240C242.122 120.5 244.157 119.657 245.657 118.157C247.157 116.657 248 114.622 248 112.5V88.5H264V112.5C264 114.622 264.843 116.657 266.343 118.157C267.843 119.657 269.878 120.5 272 120.5H296V136.5Z" fill="#1D9E00"/>
<path d="M477.84 147.38C478.002 145.973 478.082 144.557 478.08 143.14C478.041 135.807 475.497 128.708 470.871 123.018C466.244 117.329 459.811 113.392 452.64 111.86C444.528 110.316 436.133 111.911 429.152 116.322C422.172 120.733 417.128 127.631 415.04 135.62L379.84 236.9C379.318 237.107 378.811 237.348 378.32 237.62L307.6 279.06C296.778 285.417 287.802 294.487 281.559 305.374C275.316 316.262 272.021 328.59 272 341.14V416.5C269.878 416.5 267.843 417.343 266.343 418.843C264.843 420.344 264 422.378 264 424.5V488.5C264 490.622 264.843 492.657 266.343 494.157C267.843 495.657 269.878 496.5 272 496.5H384C386.122 496.5 388.157 495.657 389.657 494.157C391.157 492.657 392 490.622 392 488.5V424.5C392 422.378 391.157 420.344 389.657 418.843C388.157 417.343 386.122 416.5 384 416.5V398.9C384.015 395.521 384.734 392.183 386.112 389.097C387.489 386.012 389.494 383.247 392 380.98L446.08 332.9C451.996 327.724 456.23 320.899 458.24 313.3L492.96 183.46C493.701 180.749 494.078 177.951 494.08 175.14C494.049 169.495 492.531 163.957 489.68 159.084C486.83 154.211 482.746 150.174 477.84 147.38ZM430.32 140.34C431.302 136.203 433.807 132.588 437.336 130.216C440.865 127.843 445.158 126.888 449.36 127.54C452.946 128.291 456.165 130.25 458.48 133.089C460.796 135.929 462.066 139.477 462.08 143.14V143.3C454.934 143.433 448.027 145.896 442.41 150.315C436.792 154.734 432.772 160.866 430.96 167.78L408.64 236.66C405.261 235.057 401.638 234.03 397.92 233.62L430.32 140.34ZM376 480.5H280V432.5H376V480.5ZM477.52 179.3L442.72 309.22C441.516 313.735 439.012 317.796 435.52 320.9L381.36 368.98C377.169 372.759 373.815 377.374 371.515 382.527C369.214 387.68 368.016 393.257 368 398.9V416.5H288V341.14C288.04 331.38 290.611 321.796 295.463 313.327C300.314 304.858 307.28 297.792 315.68 292.82L386.32 251.46C388.141 250.399 390.154 249.708 392.244 249.427C394.333 249.147 396.457 249.281 398.494 249.824C400.531 250.367 402.44 251.307 404.113 252.59C405.785 253.873 407.188 255.473 408.24 257.3C410.318 260.997 410.891 265.352 409.84 269.46C409.284 271.489 408.334 273.388 407.044 275.049C405.753 276.71 404.148 278.1 402.32 279.14L356.48 305.62C354.739 306.727 353.492 308.464 353.001 310.468C352.511 312.472 352.813 314.589 353.846 316.375C354.878 318.161 356.561 319.48 358.543 320.055C360.525 320.63 362.652 320.417 364.48 319.46L410.32 292.98C413.984 290.901 417.195 288.11 419.764 284.772C422.334 281.433 424.209 277.614 425.28 273.54C427.458 265.355 426.307 256.64 422.08 249.3L421.6 248.58L446.32 172.34C447.302 168.203 449.807 164.588 453.336 162.216C456.865 159.843 461.158 158.888 465.36 159.54C468.946 160.291 472.165 162.25 474.48 165.089C476.796 167.929 478.066 171.477 478.08 175.14C478.107 176.547 477.918 177.95 477.52 179.3Z" fill="#1D9E00"/>
<path d="M240.002 416.5V341.14C239.981 328.59 236.686 316.262 230.443 305.374C224.199 294.487 215.224 285.417 204.402 279.06L133.682 237.54C133.202 237.3 132.642 237.14 132.162 236.9L97.2019 136.18C95.17 128.074 90.1259 121.048 83.0961 116.529C76.0664 112.011 67.5792 110.342 59.3619 111.86C52.1906 113.392 45.7583 117.329 41.1314 123.018C36.5044 128.707 33.9607 135.807 33.9219 143.14C33.9198 144.557 33.9999 145.973 34.1619 147.38C29.256 150.174 25.1723 154.21 22.3215 159.084C19.4707 163.957 17.9533 169.494 17.9219 175.14C17.9374 177.945 18.2865 180.738 18.9619 183.46L53.7619 313.22C55.7505 320.851 59.9872 327.707 65.9219 332.9L119.922 380.98C122.453 383.231 124.48 385.991 125.872 389.079C127.265 392.166 127.99 395.513 128.002 398.9V416.5C125.88 416.5 123.845 417.343 122.345 418.843C120.845 420.343 120.002 422.378 120.002 424.5V488.5C120.002 490.622 120.845 492.657 122.345 494.157C123.845 495.657 125.88 496.5 128.002 496.5H240.002C242.124 496.5 244.158 495.657 245.659 494.157C247.159 492.657 248.002 490.622 248.002 488.5V424.5C248.002 422.378 247.159 420.343 245.659 418.843C244.158 417.343 242.124 416.5 240.002 416.5ZM49.9219 143.14C49.9317 139.488 51.191 135.948 53.4904 133.111C55.7897 130.273 58.9908 128.307 62.5619 127.54C66.8792 126.913 71.2737 127.942 74.8643 130.42C78.4549 132.898 80.9759 136.641 81.9219 140.9L114.082 233.62C110.364 234.03 106.741 235.057 103.362 236.66L81.2019 168.18C79.3984 161.198 75.3702 154.993 69.7265 150.504C64.0828 146.015 57.1307 143.486 49.9219 143.3V143.14ZM130.562 368.98L76.4819 320.9C72.9703 317.78 70.4644 313.687 69.2819 309.14L34.4019 179.3C34.0707 177.939 33.9095 176.541 33.9219 175.14C33.9317 171.488 35.191 167.948 37.4904 165.111C39.7897 162.273 42.9909 160.307 46.5619 159.54C50.8488 158.897 55.2203 159.9 58.7972 162.349C62.3741 164.798 64.8911 168.511 65.8419 172.74L90.4019 248.58L89.9219 249.3C85.6946 256.64 84.5442 265.355 86.7219 273.54C87.793 277.614 89.6683 281.433 92.2375 284.772C94.8067 288.11 98.0178 290.901 101.682 292.98L147.522 319.46C149.35 320.416 151.477 320.629 153.459 320.055C155.441 319.48 157.124 318.161 158.156 316.375C159.189 314.589 159.491 312.472 159 310.468C158.509 308.464 157.263 306.727 155.522 305.62L109.682 279.14C107.854 278.1 106.248 276.71 104.958 275.049C103.668 273.388 102.718 271.489 102.162 269.46C101.111 265.352 101.684 260.997 103.762 257.3C104.807 255.477 106.201 253.878 107.865 252.594C109.528 251.31 111.428 250.366 113.456 249.817C115.484 249.267 117.6 249.122 119.684 249.39C121.768 249.659 123.779 250.335 125.602 251.38L196.322 292.82C204.721 297.792 211.688 304.857 216.539 313.327C221.391 321.796 223.962 331.38 224.002 341.14V416.5H144.002V398.9C143.988 393.249 142.784 387.664 140.469 382.509C138.153 377.353 134.777 372.744 130.562 368.98ZM232.002 480.5H136.002V432.5H232.002V480.5Z" fill="#1D9E00"/>
<path d="M369.18 41.5562C361.753 34.1165 352.932 28.2144 343.222 24.1876C333.511 20.1609 323.102 18.0886 312.59 18.0894C302.078 18.0901 291.669 20.1639 281.959 24.192C272.249 28.2201 263.429 34.1234 256.004 41.5642C248.579 34.1233 239.759 28.2198 230.049 24.1919C220.34 20.164 209.931 18.0907 199.42 18.0907C188.908 18.0907 178.499 20.164 168.79 24.1919C159.08 28.2198 150.261 34.1233 142.836 41.5642C127.862 56.5696 119.453 76.9021 119.453 98.1002C119.453 119.298 127.862 139.631 142.836 154.636L250.356 262.156C251.856 263.656 253.89 264.498 256.012 264.498C258.133 264.498 260.167 263.656 261.668 262.156L369.188 154.636C384.16 139.628 392.568 119.294 392.567 98.0946C392.565 76.8951 384.154 56.5619 369.18 41.5562ZM256.004 245.188L154.14 143.324C145.197 134.369 139.109 122.964 136.648 110.549C134.186 98.1353 135.46 85.27 140.309 73.5798C145.158 61.8897 153.364 51.8996 163.889 44.8724C174.415 37.8453 186.788 34.0966 199.444 34.1002C207.851 34.0713 216.179 35.7167 223.944 38.9403C231.708 42.164 238.753 46.9014 244.668 52.8762L250.348 58.5562C251.848 60.056 253.882 60.8985 256.004 60.8985C258.125 60.8985 260.159 60.056 261.66 58.5562L267.356 52.8602C273.295 46.9102 280.349 42.1898 288.115 38.9691C295.88 35.7484 304.205 34.0906 312.612 34.0906C321.018 34.0906 329.343 35.7484 337.108 38.9691C344.874 42.1898 351.928 46.9102 357.868 52.8602C369.851 64.86 376.582 81.1255 376.582 98.0842C376.582 115.043 369.851 131.308 357.868 143.308L256.004 245.188Z" fill="#1D9E00"/>
</svg>
