<svg width="512" height="513" viewBox="0 0 512 513" fill="none" xmlns="http://www.w3.org/2000/svg">
<path d="M488 328.171H451.275C435.27 312.997 414.055 304.539 392 304.539C369.945 304.539 348.73 312.997 332.725 328.171H256C248.433 328.181 241.114 330.867 235.338 335.755C229.561 340.642 225.7 347.416 224.438 354.877L154.717 331.632C149.839 330.006 144.644 329.563 139.56 330.339C134.477 331.115 129.65 333.087 125.478 336.094C121.307 339.101 117.909 343.056 115.566 347.634C113.223 352.211 112.001 357.28 112 362.422V362.947C111.975 368.429 113.341 373.828 115.969 378.639C118.598 383.45 122.403 387.516 127.03 390.456L265.9 478.824C274.975 484.585 285.14 488.414 295.761 490.07C306.381 491.727 317.229 491.175 327.627 488.451L449.035 456.5H488C490.122 456.5 492.157 455.657 493.657 454.157C495.157 452.657 496 450.622 496 448.5V336.171C496 334.049 495.157 332.015 493.657 330.514C492.157 329.014 490.122 328.171 488 328.171ZM480 440.5H448C447.313 440.5 446.629 440.589 445.964 440.764L323.55 472.979C315.285 475.142 306.663 475.578 298.221 474.261C289.779 472.945 281.7 469.903 274.485 465.326L135.62 376.958C133.27 375.457 131.338 373.385 130.005 370.934C128.672 368.484 127.983 365.736 128 362.947V362.422C128.006 358.067 129.733 353.891 132.805 350.805C135.878 347.719 140.046 345.974 144.4 345.949C146.187 345.951 147.962 346.242 149.655 346.811L226.425 372.411C228.843 378.264 232.944 383.267 238.21 386.785C243.476 390.304 249.668 392.178 256 392.171H336C338.122 392.171 340.157 391.328 341.657 389.828C343.157 388.328 344 386.293 344 384.171C344 382.049 343.157 380.015 341.657 378.514C340.157 377.014 338.122 376.171 336 376.171H256C252.445 376.176 248.989 374.995 246.18 372.815C243.371 370.634 241.37 367.579 240.493 364.133V364.113C239.895 361.751 239.844 359.285 240.343 356.9C240.843 354.516 241.879 352.277 243.375 350.354C244.87 348.43 246.785 346.874 248.973 345.803C251.161 344.731 253.564 344.173 256 344.171H336C337.051 344.171 338.091 343.964 339.062 343.562C340.032 343.16 340.914 342.571 341.657 341.828L342.467 341.018C355.614 327.9 373.427 320.533 391.999 320.533C410.571 320.533 428.385 327.9 441.531 341.018L442.341 341.828C443.084 342.571 443.967 343.161 444.938 343.563C445.909 343.965 446.949 344.171 448 344.171H480V440.5Z" fill="#1D9E00"/>
<path d="M149.539 229.676C149.666 229.71 149.794 229.741 149.924 229.769C155.189 230.901 160.56 231.471 165.946 231.469C166.315 231.469 166.684 231.458 167.052 231.453C169.75 236.814 174.098 241.168 179.455 243.874C184.812 246.58 190.897 247.495 196.813 246.485L206.279 244.875C211.82 248.764 218.672 250.307 225.345 249.168L244.483 245.913C246.118 248.864 248.159 251.572 250.545 253.958L308.345 311.758C309.088 312.501 309.97 313.09 310.94 313.492C311.911 313.894 312.951 314.101 314.002 314.101C315.053 314.101 316.093 313.894 317.064 313.492C318.034 313.09 318.916 312.501 319.659 311.758L377.459 253.958C384.211 247.206 388.004 238.049 388.004 228.501C388.004 218.953 384.211 209.796 377.459 203.044C370.707 196.292 361.55 192.499 352.002 192.499C342.454 192.499 333.297 196.292 326.545 203.044L314 215.587L310.617 212.204C316.334 207.218 320.172 200.426 321.493 192.955C322.813 185.485 321.537 177.789 317.875 171.145C318.081 170.666 318.24 170.169 318.349 169.659L321.672 154.226C323.093 147.547 322.947 140.63 321.247 134.017C319.547 127.404 316.338 121.275 311.872 116.11L282.249 82.01C278.032 77.143 272.795 73.2638 266.911 70.6474C261.027 68.0311 254.639 66.7418 248.2 66.871L127.3 69.171L27.569 19.456C26.3493 18.848 24.9945 18.5616 23.6331 18.6241C22.2716 18.6867 20.9488 19.0959 19.7899 19.8131C18.631 20.5304 17.6746 21.5317 17.0114 22.7223C16.3481 23.9128 16 25.2531 16 26.616V146.616C16.0001 148.155 16.4441 149.661 17.2788 150.954C18.1135 152.247 19.3035 153.272 20.706 153.906L82.946 182.025L94.965 196.768C108.536 213.37 127.335 224.88 148.292 229.418C148.708 229.507 149.123 229.594 149.539 229.676ZM185.539 228.932C188.881 228.05 192.158 226.942 195.35 225.616C195.472 227.222 195.744 228.813 196.162 230.368L194.136 230.713C191.147 231.224 188.075 230.588 185.534 228.932H185.539ZM222.668 233.396C220.794 233.715 218.868 233.477 217.128 232.711C215.388 231.946 213.912 230.686 212.881 229.089C212.056 227.807 211.533 226.355 211.35 224.841C211.168 223.328 211.331 221.792 211.827 220.351C212.349 218.721 213.333 217.277 214.66 216.196L222.333 212.368L242.699 214.853C240.92 219.183 240.004 223.819 240 228.5C240 229.148 240.02 229.794 240.054 230.437L222.668 233.396ZM308.348 232.558C309.091 233.301 309.973 233.89 310.943 234.292C311.914 234.694 312.954 234.901 314.005 234.901C315.056 234.901 316.096 234.694 317.067 234.292C318.037 233.89 318.919 233.301 319.662 232.558L337.862 214.358C339.719 212.501 341.924 211.027 344.351 210.022C346.778 209.017 349.379 208.5 352.005 208.5C354.632 208.5 357.233 209.017 359.66 210.022C362.087 211.027 364.292 212.501 366.149 214.358C368.006 216.215 369.48 218.42 370.485 220.847C371.49 223.274 372.007 225.875 372.007 228.501C372.007 231.128 371.49 233.729 370.485 236.156C369.48 238.583 368.006 240.788 366.149 242.645L314 294.786L261.859 242.646C258.517 239.307 256.466 234.891 256.07 230.182C255.675 225.474 256.96 220.778 259.699 216.928L284.911 220.004C288.409 220.431 291.953 220.302 295.411 219.624L308.348 232.558ZM107.371 186.658L94.162 170.458C93.3796 169.497 92.3843 168.732 91.255 168.223L32 141.452V39.543L121.918 84.368C123.077 84.9312 124.351 85.2187 125.64 85.208L248.5 82.869C248.68 82.869 248.858 82.863 249.037 82.863C253.045 82.8584 257.008 83.7167 260.655 85.3796C264.302 87.0425 267.548 89.4709 270.173 92.5L299.8 126.6C302.642 129.887 304.684 133.787 305.765 137.995C306.847 142.204 306.939 146.605 306.035 150.855L304.508 157.95C301.794 156.509 298.892 155.451 295.887 154.808L281.31 151.669L282.994 143.849C283.441 141.775 283.045 139.608 281.894 137.825C280.743 136.043 278.931 134.791 276.857 134.344C274.783 133.897 272.616 134.293 270.833 135.444C269.051 136.595 267.799 138.407 267.352 140.481L265.668 148.302L254.213 145.835L245.194 122.987C244.415 121.013 242.884 119.43 240.937 118.585C238.991 117.741 236.789 117.704 234.815 118.483C232.841 119.262 231.258 120.793 230.413 122.74C229.569 124.686 229.532 126.888 230.311 128.862L235.411 141.788L218.611 138.171C217.578 137.934 216.509 137.904 215.464 138.084C214.42 138.264 213.422 138.649 212.527 139.218C211.633 139.787 210.861 140.527 210.256 141.397C209.65 142.267 209.223 143.248 209 144.284C208.777 145.32 208.762 146.39 208.956 147.432C209.15 148.473 209.549 149.466 210.13 150.353C210.71 151.239 211.462 152.001 212.339 152.595C213.217 153.189 214.204 153.602 215.243 153.811L292.52 170.45C296.821 171.374 300.6 173.921 303.07 177.562C305.541 181.202 306.512 185.655 305.782 189.993C305.051 194.331 302.676 198.221 299.15 200.852C295.624 203.483 291.22 204.653 286.853 204.118L221.883 196.191C220.326 196.002 218.748 196.274 217.344 196.974L211.187 200.044C211.168 200.051 211.148 200.055 211.129 200.062C209.445 200.671 207.838 201.476 206.343 202.462L192.981 209.127C180.858 215.154 167.066 216.951 153.803 214.232C153.576 214.168 153.346 214.113 153.113 214.069C152.624 213.976 152.135 213.876 151.656 213.769C134.251 210.001 118.638 200.444 107.366 186.658H107.371Z" fill="#1D9E00"/>
</svg>
