<svg width="512" height="513" viewBox="0 0 512 513" fill="none" xmlns="http://www.w3.org/2000/svg">
<g clip-path="url(#clip0_4031_20)">
<path d="M76.7501 263.48H76.9805C84.6618 263.484 91.9387 260.038 96.8035 254.094L119.468 226.377V275.273V275.393C119.084 285.351 114.723 333.3 68.4301 333.3C63.7173 333.3 59.8968 337.121 59.8968 341.833C59.8968 346.546 63.7173 350.367 68.4301 350.367C114.51 350.367 119.05 398.409 119.485 408.3V408.393V486.9C119.485 501.039 130.947 512.5 145.085 512.5H473.601C489.922 512.572 504.489 502.278 509.871 486.87C515.252 471.462 510.26 454.337 497.443 444.233C506.633 437.048 512.003 426.032 512.003 414.367C512.003 402.701 506.633 391.686 497.443 384.5C510.26 374.396 515.252 357.271 509.871 341.863C504.489 326.455 489.922 316.161 473.601 316.233H392.535V226.403L415.259 254.17C420.131 260.082 427.395 263.501 435.056 263.489H435.287C442.962 263.447 450.208 259.938 454.999 253.94L501.932 195.333C509.209 186.28 509.479 173.461 502.589 164.11L429.877 64.9011C420.234 51.8213 407.638 41.2047 393.115 33.9165L338.843 6.73787C338.101 6.37093 337.324 6.1064 336.565 5.7736H336.479C328.826 2.3388 320.539 0.542479 312.151 0.5H199.852C191.485 0.537238 183.217 2.31576 175.575 5.7224L175.421 5.79067C174.636 6.132 173.851 6.40507 173.074 6.78053L118.896 33.9165C104.366 41.2052 91.7657 51.8284 82.1261 64.9181L9.43918 164.041C2.53496 173.387 2.79072 186.21 10.0621 195.273L56.9955 253.88C61.7861 259.908 69.051 263.438 76.7501 263.48ZM102.299 341.833C113.732 334.845 122.734 324.502 128.078 312.214C133.425 324.503 142.43 334.846 153.866 341.833C142.43 348.821 133.425 359.164 128.078 371.453C122.734 359.164 113.732 348.822 102.299 341.833ZM136.535 486.9V469.833H230.837C230.609 471.246 230.464 472.671 230.401 474.1C230.397 481.7 232.661 489.128 236.904 495.433H145.068C140.355 495.433 136.535 491.613 136.535 486.9ZM494.935 474.1C494.935 485.882 485.383 495.433 473.601 495.433H268.801C257.019 495.433 247.468 485.882 247.468 474.1C247.468 462.318 257.019 452.767 268.801 452.767H473.601C485.383 452.767 494.935 462.318 494.935 474.1ZM494.935 414.367C494.935 426.149 485.383 435.7 473.601 435.7H268.801C257.019 435.7 247.468 426.149 247.468 414.367C247.468 402.585 257.019 393.033 268.801 393.033H473.601C485.383 393.033 494.935 402.585 494.935 414.367ZM494.935 354.633C494.935 366.415 485.383 375.967 473.601 375.967H268.801C257.019 375.967 247.468 366.415 247.468 354.633C247.468 342.851 257.019 333.3 268.801 333.3H473.601C485.383 333.3 494.935 342.851 494.935 354.633ZM488.62 184.607L441.687 243.239C440.082 245.233 437.667 246.402 435.107 246.422C432.541 246.375 430.111 245.255 428.409 243.333L421.719 235.15L478.986 160.73L488.85 174.187C491.15 177.31 491.055 181.589 488.62 184.607ZM256.001 77.3C295.536 77.3 329.337 55.4205 338.664 25.7331L354.083 33.4557C341.275 69.1165 301.228 94.3667 256.001 94.3667C210.775 94.3667 170.728 69.1165 157.919 33.4557L173.347 25.7331C182.666 55.4205 216.466 77.3 256.001 77.3ZM312.151 17.5667C315.766 17.5804 319.364 18.0535 322.86 18.9747C316.699 42.5608 288.872 60.2333 256.001 60.2333C223.131 60.2333 195.304 42.5608 189.143 18.9747C192.639 18.0549 196.237 17.5818 199.852 17.5667H312.151ZM95.8819 75.0216C103.913 64.096 114.417 55.2269 126.534 49.14L142.602 41.0931C158.542 82.42 204.417 111.433 256.001 111.433C307.585 111.433 353.461 82.42 369.401 41.1272L385.478 49.1827C397.584 55.2556 408.083 64.1033 416.121 75.0045L468.481 146.42L410.625 221.607L405.761 215.634C401.204 210.045 393.626 207.924 386.83 210.334C380.034 212.745 375.486 219.166 375.468 226.377V316.233H268.801C252.481 316.161 237.913 326.455 232.532 341.863C227.151 357.271 232.142 374.396 244.959 384.5C235.77 391.686 230.4 402.701 230.4 414.367C230.4 426.032 235.77 437.048 244.959 444.233C241.853 446.648 239.136 449.526 236.904 452.767H136.535V410.493C136.535 410.356 136.611 410.237 136.611 410.1C136.611 407.659 137.192 350.367 187.735 350.367C192.447 350.367 196.268 346.546 196.268 341.833C196.268 337.121 192.447 333.3 187.735 333.3C137.439 333.3 136.62 275.99 136.611 273.567C136.611 273.43 136.543 273.311 136.535 273.174V226.377C136.505 219.186 131.971 212.785 125.197 210.371C118.424 207.957 110.863 210.048 106.293 215.6L101.394 221.573L43.5213 146.42L95.8819 75.0216ZM23.3827 184.598C20.9492 181.57 20.8685 177.28 23.1864 174.162L33.0339 160.73L90.2925 235.141L83.6195 243.299C81.8958 245.206 79.4727 246.333 76.9037 246.422C74.3406 246.409 71.9213 245.236 70.3245 243.231L23.3827 184.598Z" fill="#1D9E00"/>
<path d="M162.135 230.9C212.43 230.9 213.25 288.21 213.258 290.634C213.258 295.346 217.079 299.167 221.791 299.167C226.504 299.167 230.325 295.346 230.325 290.634C230.325 288.193 230.905 230.9 281.439 230.9C286.152 230.9 289.973 227.08 289.973 222.367C289.973 217.654 286.152 213.834 281.439 213.834C231.144 213.834 230.333 156.524 230.325 154.1C230.325 149.387 226.504 145.567 221.791 145.567C217.079 145.567 213.258 149.387 213.258 154.1C213.258 156.541 212.678 213.834 162.135 213.834C157.422 213.834 153.602 217.654 153.602 222.367C153.602 227.08 157.422 230.9 162.135 230.9ZM221.791 192.748C227.135 205.036 236.137 215.379 247.571 222.367C236.137 229.355 227.135 239.698 221.791 251.986C216.444 239.697 207.44 229.355 196.004 222.367C207.44 215.379 216.444 205.037 221.791 192.748Z" fill="#1D9E00"/>
</g>
<defs>
<clipPath id="clip0_4031_20">
<rect width="512" height="512" fill="white" transform="translate(0 0.5)"/>
</clipPath>
</defs>
</svg>
