<svg width="212" height="134" viewBox="0 0 212 134" fill="none" xmlns="http://www.w3.org/2000/svg">
<path d="M202.59 111.554L98.9085 98.3427C98.9085 98.3427 83.6145 68.1477 91.9365 61.8417C100.258 55.5357 127.696 83.4217 127.696 83.4217C127.696 83.4217 117.67 42.8667 128.545 38.7847C154.278 29.1267 161.208 87.4427 161.208 87.4427C161.208 87.4427 167.731 72.4147 175.602 73.8817C183.473 75.3507 179.426 92.5467 179.426 92.5467C179.426 92.5467 200.792 67.2787 209.338 75.8397C217.883 84.4027 202.59 111.554 202.59 111.554Z" fill="#FFCE33"/>
<g opacity="0.2">
<path d="M108.538 86.1128C108.762 82.7908 107.662 79.3038 104.908 77.4838C102.756 76.0108 100.607 75.9208 98.3139 76.4558C97.8699 78.6298 97.8329 80.9848 98.6239 83.0468C100.518 87.8758 104.669 87.5208 108.538 86.1128Z" fill="white"/>
<path d="M105.988 74.0542C104.054 75.0242 101.703 75.1082 99.95 73.6262C98.552 72.4812 97.982 70.9992 97.752 69.2662C98.945 68.4232 100.345 67.8192 101.768 67.8702C105.114 68.0132 105.9 71.0042 105.988 74.0542Z" fill="white"/>
<path d="M140.219 85.6479C143.81 84.8929 147.152 82.3599 148.2 78.1889C149.069 74.9139 148.475 72.0789 147.171 69.2539C144.729 69.3579 142.218 70.0499 140.288 71.7319C135.778 75.7229 137.486 81.0349 140.219 85.6479Z" fill="white"/>
<path d="M145.307 91.4545C147.585 92.5735 150.487 92.6175 152.834 90.7895C154.703 89.3745 155.587 87.5775 156.08 85.4815C154.705 84.4985 153.041 83.8035 151.274 83.8995C147.114 84.1545 145.782 87.7765 145.307 91.4545Z" fill="white"/>
<path d="M120.775 91.6905C122.541 89.8695 123.475 87.1205 122.458 84.3255C121.687 82.1115 120.249 80.7185 118.406 79.6035C117.048 80.6105 115.876 81.9785 115.422 83.6905C114.384 87.7255 117.422 90.1075 120.775 91.6905Z" fill="white"/>
<path d="M190.426 100.303C192.192 98.4809 193.125 95.7339 192.11 92.9369C191.338 90.7229 189.9 89.3298 188.058 88.2148C186.699 89.2218 185.527 90.5898 185.074 92.3018C184.036 96.3388 187.072 98.7199 190.426 100.303Z" fill="white"/>
<path d="M193.495 100.052C193.194 95.5062 194.681 90.7361 198.406 88.2431C201.317 86.2281 204.222 86.1051 207.322 86.8391C207.922 89.8111 207.975 93.0351 206.905 95.8561C204.343 102.463 198.73 101.979 193.495 100.052Z" fill="white"/>
<path d="M170.214 77.4512C169.672 80.1372 170.127 83.4302 172.042 85.9232C173.531 87.9092 175.171 88.7462 176.994 89.1132C177.576 87.4612 177.869 85.5112 177.492 83.5162C176.575 78.8242 173.345 77.6502 170.214 77.4512Z" fill="white"/>
<path d="M133.886 41.0039C133.345 43.6889 133.801 46.9829 135.714 49.4769C137.203 51.4619 138.845 52.2999 140.666 52.6669C141.249 51.0149 141.542 49.0649 141.165 47.0689C140.247 42.3779 137.017 41.2029 133.886 41.0039Z" fill="white"/>
<path d="M204.009 76.4355C201.299 76.8335 198.352 78.3735 196.652 81.0165C195.284 83.0885 195.05 84.9155 195.319 86.7545C197.071 86.7445 199.005 86.3625 200.757 85.3345C204.862 82.8875 204.878 79.4515 204.009 76.4355Z" fill="white"/>
<path d="M140.065 66.5612C136.584 67.6252 132.6 66.9782 129.984 63.7512C127.888 61.2422 127.266 58.4152 127.272 55.2562C129.479 54.1632 131.977 53.5662 134.367 54.1352C139.975 55.5252 140.615 61.1072 140.065 66.5612Z" fill="white"/>
</g>
<path d="M8.30753 113.082L100.5 99.8721C100.5 99.8721 114.099 69.675 106.698 63.369C99.2995 57.064 74.9025 84.951 74.9025 84.951C74.9025 84.951 83.8176 44.3941 74.1476 40.3121C51.2656 30.6541 45.1045 88.9701 45.1045 88.9701C45.1045 88.9701 39.3045 73.9421 32.3055 75.4091C25.3065 76.8771 28.9065 94.0731 28.9065 94.0731C28.9065 94.0731 9.90754 68.803 2.30854 77.365C-5.29146 85.928 8.30753 113.082 8.30753 113.082Z" fill="#FFCE33"/>
<g opacity="0.2">
<path d="M91.9372 87.6396C91.7382 84.3176 92.7162 80.8305 95.1642 79.0085C97.0782 77.5375 98.9892 77.4486 101.027 77.9836C101.422 80.1556 101.454 82.5115 100.752 84.5725C99.0682 89.4015 95.3762 89.0476 91.9372 87.6396Z" fill="white"/>
<path d="M94.2031 75.5815C95.9211 76.5515 98.0131 76.6355 99.5721 75.1535C100.815 74.0075 101.322 72.5265 101.526 70.7925C100.465 69.9505 99.2201 69.3455 97.9541 69.3955C94.9811 69.5395 94.2821 72.5305 94.2031 75.5815Z" fill="white"/>
<path d="M63.7646 87.1743C60.5716 86.4193 57.6006 83.8863 56.6686 79.7143C55.8966 76.4403 56.4236 73.6053 57.5836 70.7793C59.7546 70.8833 61.9886 71.5733 63.7036 73.2563C67.7136 77.2513 66.1936 82.5623 63.7646 87.1743Z" fill="white"/>
<path d="M59.2411 92.9805C57.2161 94.1005 54.6361 94.1426 52.5481 92.3156C50.8861 90.9016 50.1011 89.1025 49.6621 87.0075C50.8851 86.0245 52.3631 85.3305 53.9361 85.4245C57.6351 85.6805 58.8181 89.3025 59.2411 92.9805Z" fill="white"/>
<path d="M81.0553 93.2198C79.4853 91.3958 78.6553 88.6499 79.5583 85.8539C80.2443 83.6399 81.5233 82.2459 83.1613 81.1309C84.3693 82.1379 85.4113 83.5059 85.8143 85.2179C86.7373 89.2549 84.0363 91.6348 81.0553 93.2198Z" fill="white"/>
<path d="M19.1207 101.831C17.5517 100.008 16.7217 97.2612 17.6247 94.4642C18.3107 92.2522 19.5897 90.8572 21.2277 89.7422C22.4347 90.7492 23.4777 92.1172 23.8807 93.8292C24.8037 97.8642 22.1028 100.246 19.1207 101.831Z" fill="white"/>
<path d="M16.3942 101.58C16.6612 97.0347 15.3382 92.2647 12.0272 89.7717C9.43824 87.7557 6.85424 87.6327 4.09924 88.3657C3.56524 91.3387 3.51826 94.5627 4.46926 97.3827C6.74726 103.992 11.7382 103.507 16.3942 101.58Z" fill="white"/>
<path d="M37.0927 78.9785C37.5737 81.6635 37.1697 84.9565 35.4667 87.4495C34.1437 89.4365 32.6847 90.2725 31.0647 90.6395C30.5457 88.9885 30.2857 87.0385 30.6207 85.0425C31.4367 80.3525 34.3087 79.1775 37.0927 78.9785Z" fill="white"/>
<path d="M69.3958 42.5312C69.8778 45.2173 69.4728 48.5103 67.7718 51.0023C66.4468 52.9903 64.9878 53.8252 63.3688 54.1922C62.8508 52.5402 62.5908 50.5922 62.9248 48.5952C63.7398 43.9052 66.6118 42.7313 69.3958 42.5312Z" fill="white"/>
<path d="M7.04389 77.9648C9.45389 78.3608 12.0739 79.9009 13.5859 82.5439C14.8029 84.6169 15.0109 86.4429 14.7709 88.2819C13.2129 88.2719 11.4949 87.8908 9.93492 86.8618C6.28492 84.4158 6.27089 80.9788 7.04389 77.9648Z" fill="white"/>
<path d="M63.9015 68.0865C66.9965 69.1525 70.5395 68.5045 72.8655 65.2775C74.7275 62.7675 75.2815 59.9415 75.2755 56.7815C73.3145 55.6895 71.0915 55.0905 68.9675 55.6615C63.9805 57.0505 63.4125 62.6325 63.9015 68.0865Z" fill="white"/>
</g>
<path d="M207.054 113.777C207.054 124.703 161.196 133.561 104.628 133.561C48.0592 133.561 2.20117 124.703 2.20117 113.777C2.20117 102.852 48.0592 93.9941 104.628 93.9941C161.196 93.9941 207.054 102.852 207.054 113.777Z" fill="#FFCE33"/>
<path opacity="0.3" d="M207.054 113.777C207.054 124.703 161.196 133.561 104.628 133.561C48.0592 133.561 2.20117 124.703 2.20117 113.777C2.20117 102.852 48.0592 93.9941 104.628 93.9941C161.196 93.9941 207.054 102.852 207.054 113.777Z" fill="white"/>
<path d="M159.845 117.432C159.845 123.51 128.92 128.439 90.7703 128.439C52.6233 128.439 21.6953 123.51 21.6953 117.432C21.6953 111.353 52.6223 106.424 90.7703 106.424C128.92 106.424 159.845 111.353 159.845 117.432Z" fill="#FFCE33"/>
<path d="M80.9205 90.2106L88.7565 105.519L77.6405 102.786L75.2715 111.487C75.2715 111.487 100.054 127.934 97.8685 99.6877L85.1125 86.9316L80.9205 90.2106Z" fill="#121A35"/>
<path d="M42.4682 88.5703V108.707L36.6372 102.783L27.1602 112.834C27.1602 112.834 43.9252 132.307 58.3212 108.707L42.4682 88.5703Z" fill="#121A35"/>
<path d="M190.074 86.2012C179.366 121.123 132.417 119.127 118.029 84.8172C112.824 87.2002 106.373 89.9332 99.2878 92.4912C109.829 97.5512 116.33 109.287 116.33 109.287L101.388 118.149C99.8418 108.797 93.5658 100.321 89.5778 95.7362C81.1088 98.3452 72.2008 100.444 63.7898 101.291C70.4158 106.808 74.3008 113.812 74.3008 113.812L59.3588 122.675C57.9078 113.9 52.2808 105.896 48.3008 101.151C42.3228 100.268 37.0608 98.2512 32.9938 94.7082C13.0718 77.3302 22.0588 32.2622 64.9418 10.7592C97.8078 -5.72083 136.31 0.635158 152.505 4.49816C134.326 27.7862 127.227 74.2922 146.216 70.0412C159.584 67.0612 163.892 55.2152 165.269 47.2342C169.074 51.5862 172.74 58.7572 168.928 68.3722C176.239 61.2432 185.467 48.6192 184.869 30.6292C190.315 40.9942 197.706 61.3012 190.074 86.2012Z" fill="#8699CE"/>
<path d="M137.229 57.5905L150.445 45.5645C150.445 45.5645 153.63 65.9735 137.229 57.5905Z" fill="#8699CE"/>
<path d="M169.777 107.398C167.58 107.398 166.065 106.801 165.194 105.605C162.638 102.093 167.252 95.1102 167.786 94.3262L168.991 95.1462C167.7 97.0442 164.713 102.468 166.373 104.748C167.172 105.847 169.523 106.744 176.182 104.791L176.592 106.189C173.848 106.995 171.583 107.398 169.777 107.398Z" fill="#121A35"/>
<path d="M160.203 98.7848L158.951 98.0388C160.251 95.8578 161.963 94.4958 164.041 93.9878C167.647 93.1058 171.014 95.1518 171.156 95.2398L170.39 96.4798C170.36 96.4628 167.384 94.6628 164.376 95.4068C162.697 95.8198 161.293 96.9568 160.203 98.7848Z" fill="#121A35"/>
<path d="M133.279 84.3788C133.056 84.3788 132.829 84.3457 132.602 84.2787C131.163 83.8607 129.639 82.1007 128.072 79.0497L129.369 78.3838C130.687 80.9518 132.014 82.5908 133.009 82.8798C133.268 82.9538 133.481 82.9308 133.7 82.8008C135.509 81.7378 134.059 77.4878 133.408 76.0818L134.73 75.4688C135.045 76.1457 137.708 82.1377 134.438 84.0587C134.075 84.2707 133.683 84.3788 133.279 84.3788Z" fill="#121A35"/>
<path d="M140.855 80.4413C140.631 80.4413 140.404 80.4082 140.177 80.3412C138.738 79.9222 137.214 78.1632 135.648 75.1122L136.945 74.4463C138.262 77.0133 139.589 78.6513 140.584 78.9413C140.843 79.0183 141.056 78.9922 141.277 78.8622C143.086 77.7992 141.635 73.5493 140.985 72.1443L142.307 71.5312C142.621 72.2082 145.285 78.1992 142.015 80.1202C141.651 80.3342 141.259 80.4413 140.855 80.4413Z" fill="#121A35"/>
<path d="M171.848 93.6003C171.611 93.2373 166.093 84.6552 170.423 81.6122C171.178 81.0812 172.047 80.9343 172.932 81.1863C176.483 82.1983 179.7 89.5322 180.055 90.3652L178.714 90.9373C177.824 88.8513 174.978 83.2853 172.532 82.5873C172.064 82.4553 171.661 82.5232 171.261 82.8052C168.618 84.6622 171.67 90.6542 173.07 92.8052L171.848 93.6003Z" fill="#121A35"/>
<path d="M176.111 87.7297C176.995 89.8437 177.21 91.7687 176.591 92.0297C175.972 92.2887 174.754 90.7817 173.869 88.6657C172.984 86.5517 172.769 84.6267 173.389 84.3667C174.009 84.1087 175.228 85.6147 176.111 87.7297Z" fill="#121A35"/>
<path d="M169.729 66.0174C162.863 73.5694 154.233 71.5364 149.152 69.1894C160.231 65.2534 164 54.6034 165.268 47.2344C168.752 51.2204 172.126 57.5774 169.729 66.0174Z" fill="#FF994D"/>
<path d="M191.583 80.5019C174.177 83.4459 172.056 70.4859 171.895 65.2599C178.506 57.8109 185.386 46.2359 184.869 30.6289C189.892 40.1919 196.576 58.2119 191.583 80.5019Z" fill="#FF994D"/>
<path d="M157.554 74.6442C152.626 74.6442 149.215 71.9382 149.158 71.8912L150.078 70.7612C150.435 71.0492 158.917 77.7122 168.402 67.8652L169.452 68.8772C165.165 73.3282 160.991 74.6442 157.554 74.6442Z" fill="#121A35"/>
<path d="M177.347 80.9792C170.85 78.3402 170.531 71.0982 170.521 70.7902L171.978 70.7402C171.988 71.0092 172.286 77.3492 177.896 79.6272L177.347 80.9792Z" fill="#121A35"/>
<path d="M62.6235 119.62C62.3995 119.121 61.3175 116.554 61.9875 115.077C62.2035 114.599 62.5795 114.266 63.0745 114.115C63.9125 113.855 64.7135 114.104 65.3985 114.531C65.2565 113.419 65.4055 112.33 66.3425 111.877C67.3705 111.379 68.5225 111.813 69.3735 112.323C69.4665 111.545 69.7425 110.709 70.4555 110.365C71.6545 109.787 73.0435 110.977 73.9835 111.924L72.9495 112.951C71.5805 111.573 71.0915 111.68 71.0885 111.679C70.8815 111.779 70.7155 112.747 70.8235 113.696L71.0495 115.679L69.5975 114.308C69.0525 113.792 67.6945 112.841 66.9765 113.19C66.6295 113.358 66.8335 115.083 67.5575 116.781L66.2765 117.466C65.7765 116.702 64.4445 115.226 63.5025 115.509C63.4205 115.534 63.3645 115.57 63.3145 115.681C63.0195 116.331 63.5215 118.061 63.9535 119.026L62.6235 119.62Z" fill="#121A35"/>
<path d="M104.75 115.283C104.526 114.784 103.444 112.219 104.114 110.742C104.33 110.265 104.706 109.932 105.201 109.779C106.039 109.519 106.839 109.767 107.525 110.195C107.383 109.083 107.533 107.995 108.469 107.542C109.485 107.048 110.617 107.384 111.446 107.797C111.541 107.077 111.811 106.296 112.503 105.964C113.711 105.389 115.141 106.613 116.111 107.588L115.077 108.615C113.64 107.17 113.137 107.28 113.133 107.279C112.952 107.365 112.799 108.229 112.885 109.029L113.074 110.78L111.702 109.675C111.284 109.339 109.911 108.463 109.104 108.855C108.757 109.023 108.961 110.747 109.685 112.446L108.404 113.13C107.905 112.366 106.562 110.888 105.63 111.173C105.549 111.198 105.492 111.235 105.442 111.344C105.145 111.999 105.636 113.695 106.081 114.689L104.75 115.283Z" fill="#121A35"/>
<path d="M88.4323 90.1908L87.5293 89.0458C87.7113 88.9018 92.0383 85.5628 97.0813 87.9098L96.4653 89.2318C92.2313 87.2578 88.4703 90.1608 88.4323 90.1908Z" fill="#121A35"/>
<path d="M62.7098 100.322C60.7638 89.9543 45.7198 91.7273 45.5678 91.7493L45.3848 90.3023C45.5498 90.2813 61.9448 88.3543 64.1418 100.053L62.7098 100.322Z" fill="#121A35"/>
<path d="M62.732 95.4488C60.704 89.2388 51.106 90.0508 51.009 90.0598L50.875 88.6088C51.316 88.5638 61.732 87.6948 64.117 94.9958L62.732 95.4488Z" fill="#121A35"/>
<path d="M94.86 85.2587C94.319 85.0407 81.535 79.7287 75.419 63.8587C69.277 47.9227 72.139 27.5227 83.923 3.22266L85.234 3.85965C73.633 27.7806 70.788 47.7917 76.778 63.3347C82.669 78.6197 95.278 83.8567 95.404 83.9077L94.86 85.2587Z" fill="#121A35"/>
<path d="M106.261 70.3837C105.059 70.3837 104.016 70.0747 103.136 69.4587C98.5579 66.2487 100.468 55.8917 100.551 55.4517L100.737 54.4707L117.712 63.6937L117.016 64.9747L101.822 56.7187C101.37 59.9757 101.138 66.2797 103.973 68.2657C105.794 69.5417 108.748 68.9847 112.754 66.6077L113.498 67.8617C110.669 69.5417 108.249 70.3837 106.261 70.3837Z" fill="#121A35"/>
<path d="M103.608 59.2812L112.356 65.4272C112.356 65.4272 100.42 71.9043 103.608 59.2812Z" fill="#121A35"/>
<path d="M140.234 57.136L149.619 50.2109C149.619 50.2109 148.527 62.33 140.234 57.136Z" fill="#121A35"/>
<path d="M21.6949 79.9667C21.6949 79.9667 11.673 84.8037 13.495 72.4727C13.495 72.4727 2.56095 93.5957 21.6949 79.9667Z" fill="#8699CE"/>
<path d="M11.8957 65.2194L12.0817 68.2204L10.2627 65.0984C9.73973 65.3294 9.16672 65.6584 8.55072 66.1064L9.47772 68.9284L7.8667 66.6424C7.4707 66.9714 7.06572 67.3324 6.63672 67.7654C6.63672 67.7654 8.41171 78.0474 13.7297 74.8354C19.0467 71.6234 14.1877 64.9854 14.1877 64.9854C14.1877 64.9854 13.6527 64.6034 12.6607 64.5664L13.4747 67.1434L11.8957 65.2194Z" fill="#121A35"/>
</svg>
