<svg width="214" height="168" viewBox="0 0 214 168" fill="none" xmlns="http://www.w3.org/2000/svg">
<path d="M54.9588 148.919C54.9588 148.919 39.2928 136.81 42.5778 133.169C45.8638 129.53 59.8838 137.166 59.8838 137.166C59.8838 137.166 46.0708 114.405 52.8178 111.501C59.5658 108.595 72.8298 132.233 72.8298 132.233C72.8298 132.233 72.8018 125.811 75.8288 125.329C78.8548 124.845 83.3938 135.264 83.3938 135.264C83.3938 135.264 86.3178 130.324 90.3248 131.422C94.3328 132.523 89.5788 141.931 89.5788 141.931L54.9588 148.919Z" fill="#9E9E0D"/>
<path d="M43.1034 113.854C43.1034 113.854 39.9244 122.004 49.6004 125.003C49.6004 125.003 54.0864 114.147 43.1034 113.854Z" fill="#9E9E0D"/>
<path d="M48.7119 129.648C48.7119 129.648 42.2949 133.819 38.4199 127.544C38.4199 127.544 46.9309 121.811 48.7119 129.648Z" fill="#9E9E0D"/>
<path d="M213.331 151.301C213.331 160.172 175.356 167.365 128.513 167.365C81.6703 167.365 43.6973 160.173 43.6973 151.301C43.6973 142.43 81.6713 135.238 128.513 135.238C175.355 135.238 213.331 142.43 213.331 151.301Z" fill="#FFCE33"/>
<path d="M73.5661 160.376L104.073 159.057C104.073 159.057 105.969 153.587 104.073 152.222C102.176 150.857 93.8331 156.299 93.8331 156.299C93.8331 156.299 93.9071 142.841 90.6611 143.387C87.4151 143.932 84.6821 154.764 84.6821 154.764C84.6821 154.764 80.8551 148.018 78.8501 149.073C76.8461 150.128 78.8501 155.679 78.8501 155.679C78.8501 155.679 67.0051 148.758 73.5661 160.376Z" fill="#9E9E0D"/>
<path d="M134.123 117.355L111.041 120.27C111.041 120.27 118.573 138.737 132.908 133.147V130.234L115.414 121.728H132.908L134.123 117.355Z" fill="#121A35"/>
<path d="M151.859 114.682C151.859 114.682 153.56 126.669 163.765 125.778L157.812 141.894H161.821L170.145 109.58L151.859 114.682Z" fill="#121A35"/>
<path d="M31.8325 32.662C31.8325 32.662 0.00353241 34.988 31.8325 0C31.8325 0 0.409532 6.10499 0.00353151 30.598C-0.403468 55.089 34.5045 41.791 34.5045 41.791L31.8325 32.662Z" fill="#FF994D"/>
<path d="M176.397 104.476L181.5 137.037L175.669 139.464L175.188 117.115C175.188 117.115 171.31 117.77 167.309 117.094C159.262 121.985 145.595 127.933 134.121 121.241L138.014 145.295L131.935 147.483L130.477 119.544L98.1278 99.9288C93.4038 102.078 85.8898 103.443 74.1098 103.02C33.2918 101.562 8.01985 62.8997 22.8458 32.6637C36.0598 5.70174 73.6148 -2.29426 94.1688 6.30674C77.8998 30.8577 71.0779 65.3127 91.9538 66.0997C111.066 66.8227 115.934 44.9467 117.174 33.6197C169.219 51.5977 146.075 91.6018 146.075 91.6018C146.075 91.6018 158.765 88.5867 159.56 76.3267C164.093 71.6037 170.77 67.2157 178.103 70.9477C191.464 77.7537 188.06 98.6438 176.397 104.476Z" fill="#7A4B3C"/>
<path d="M96.9455 127.561C77.7175 133.61 75.2165 116.349 75.9235 103.069C81.4995 103.185 86.0545 102.886 89.7805 102.274C95.7135 110.737 106.997 120.475 111.042 80.4219C111.042 80.4219 127.078 118.085 96.9455 127.561Z" fill="#FF994D"/>
<path d="M101.77 71.4713C101.142 71.4713 100.573 71.2983 100.108 70.8853C99.6473 70.4753 99.4113 69.9222 99.4243 69.2852C99.4793 66.6502 104.099 62.7962 104.626 62.3652L105.549 63.4942C103.761 64.9582 100.912 67.8332 100.882 69.3152C100.878 69.5272 100.936 69.6702 101.077 69.7952C102.232 70.8212 106.18 68.1942 108.484 66.0952L109.466 67.1732C108.553 68.0042 104.581 71.4703 101.77 71.4713Z" fill="#121A35"/>
<path d="M108.248 75.8443C107.62 75.8443 107.05 75.6713 106.585 75.2583C106.125 74.8493 105.888 74.2963 105.901 73.6593C105.955 71.0253 110.576 67.1703 111.103 66.7383L112.026 67.8673C110.237 69.3313 107.388 72.2073 107.359 73.6883C107.355 73.8993 107.413 74.0423 107.554 74.1673C108.71 75.1953 112.658 72.5673 114.961 70.4683L115.943 71.5463C115.031 72.3783 111.059 75.8443 108.248 75.8443Z" fill="#121A35"/>
<path d="M177.895 79.8541C179.72 84.4311 187.235 84.2081 190.747 82.0271C195.781 78.9001 194.47 71.0731 193.493 66.2901C193.322 65.4531 191.203 65.989 191.381 66.856C192.128 70.51 192.68 74.2961 191.664 77.9531C190.937 80.5641 188.8 82.1351 186.127 82.1481C183.931 82.1591 180.916 81.564 180.008 79.288C179.676 78.458 177.585 79.0771 177.895 79.8541Z" fill="#7A4B3C"/>
<path d="M198.924 67.8925C197.466 72.5075 189.695 70.9325 187.385 67.8925C183.522 62.6075 189.229 57.6085 195.082 55.0645C197.385 59.0965 200.112 64.4245 198.924 67.8925Z" fill="#121A35"/>
<path d="M78.2657 103.824C76.9177 103.824 75.5237 103.799 74.0817 103.747C53.3237 103.006 34.9357 92.5534 24.8937 75.7864C16.5047 61.7794 15.5177 45.9444 22.1867 32.3404C36.1107 3.94144 74.9037 -2.53957 94.4507 5.63243L93.8877 6.97844C74.8447 -0.988559 37.0567 5.32445 23.4947 32.9834C17.0477 46.1344 18.0137 61.4624 26.1437 75.0384C35.9307 91.3804 53.8717 101.567 74.1327 102.291C94.0267 103.002 101.127 98.5295 103.577 94.6525C106.467 90.0775 103.858 84.9434 103.832 84.8924L105.123 84.2154C105.248 84.4544 108.15 90.1215 104.818 95.4155C101.304 101.001 92.3787 103.824 78.2657 103.824Z" fill="#121A35"/>
<path d="M107.677 86.3435C106.309 85.2795 105.081 84.8295 104.126 85.0345C103.155 85.2455 102.717 86.0645 102.699 86.0995L101.398 85.4415C101.427 85.3825 102.14 83.9905 103.785 83.6175C105.204 83.2935 106.815 83.8255 108.573 85.1925L107.677 86.3435Z" fill="#121A35"/>
<path d="M44.401 34.5671C36.498 40.2411 28.502 42.6281 26.541 39.8951C24.58 37.1641 29.396 30.3501 37.3 24.6761C45.202 19.0021 53.198 16.6161 55.159 19.3481C57.12 22.0791 52.303 28.8931 44.401 34.5671Z" fill="#121A35"/>
<path d="M59.9702 48.8974C54.3742 56.8564 47.6072 61.7374 44.8572 59.8034C42.1072 57.8684 44.4142 49.8494 50.0102 41.8934C55.6072 33.9344 62.3732 29.0514 65.1232 30.9854C67.8742 32.9204 65.5672 40.9394 59.9702 48.8974Z" fill="#121A35"/>
<path d="M174.942 139.481L174.473 117.947C171.735 118.269 163.105 118.812 159.499 113.53C156.401 108.994 157.953 101.489 164.111 91.2246L165.361 91.9746C159.522 101.707 157.954 108.683 160.703 112.708C164.405 118.129 174.956 116.411 175.062 116.394L175.894 116.253L176.399 139.449L174.942 139.481Z" fill="#121A35"/>
<path d="M159.615 72.7316C159.515 69.5086 159.004 66.1926 158.075 62.9296H151.616L156.475 60.2266H153.073L156.508 58.4446C155.525 56.0766 154.307 53.7816 152.849 51.6206L146.756 53.0506L151.838 50.1966C151.682 49.9876 151.533 49.7726 151.373 49.5666C147.875 45.0766 143.831 41.4476 139.706 38.5186L136.673 40.0906V37.4176L134.73 39.2386L135.859 35.9906C134.142 34.9486 132.437 34.0206 130.775 33.1956L128.169 35.9596L128.758 32.2306C124.404 30.2326 120.462 28.9396 117.58 28.1426C117.544 29.2796 117.442 31.2106 117.172 33.6166C167.496 58.1006 139.222 96.9456 139.222 96.9456C151.781 98.4966 158.764 88.5846 159.559 76.3236C159.614 75.4936 159.63 74.6486 159.628 73.8016L156.961 73.1346L159.615 72.7316Z" fill="#121A35"/>
<path d="M105.678 51.025L104.916 35.9609C104.916 35.9609 85.7367 49.323 105.678 51.025Z" fill="#7A4B3C"/>
<path d="M102.646 39.4824L104.563 49.6874C104.563 49.6874 92.4304 47.8644 102.646 39.4824Z" fill="#121A35"/>
<path d="M134.987 73.2701C132.764 73.2701 130.065 72.2291 126.918 70.1541L127.721 68.9371C131.908 71.6991 135.086 72.4831 137.17 71.2611C139.926 69.6511 140.221 64.9161 140.221 62.9661L127.479 65.826L127.16 64.4041L141.594 61.1641L141.654 62.0101C141.677 62.3361 142.167 70.0301 137.906 72.5201C137.049 73.0201 136.075 73.2701 134.987 73.2701Z" fill="#121A35"/>
<path d="M129.264 66.8378L138.402 65.9668C138.402 65.9668 135.703 75.8488 129.264 66.8378Z" fill="#121A35"/>
<path d="M201.425 147.483L112.741 148.941C112.741 148.941 102.016 136.307 105.678 131.689C109.34 127.074 129.02 141.894 129.02 141.894C129.02 141.894 135.337 128.534 140.683 130.234C146.028 131.933 143.598 141.894 143.598 141.894C143.598 141.894 150.35 130.96 153.17 131.933C155.99 132.905 153.17 139.512 153.17 139.512C153.17 139.512 165.951 130.475 167.895 141.894C167.895 141.894 180.53 122.538 188.062 125.778C195.594 129.017 185.147 141.894 185.147 141.894C185.147 141.894 198.054 133.147 203.506 136.063C208.957 138.979 201.425 147.483 201.425 147.483Z" fill="#9E9E0D"/>
</svg>
