<svg width="256" height="211" viewBox="0 0 256 211" fill="none" xmlns="http://www.w3.org/2000/svg">
<path d="M188.813 200.922L87.9683 197.786C68.2153 161.849 84.3963 159.373 96.4123 139.281C108.428 119.189 91.9293 100.747 91.9293 100.747L27.9473 65.9081L38.5543 59.4661L117.277 89.6781L79.9223 48.9231L86.9113 46.2501L129.556 88.1831L108.894 55.1511L123.459 46.2501L136.636 88.1831L157.167 40.4941L165.959 46.6951L136.636 96.7211L168.435 81.9291L187.761 51.2831L198.646 52.7401L179.155 78.9481L232.481 46.1061L243.299 63.7211L148.354 94.9991C148.354 94.9991 189.097 155.287 188.813 200.922Z" fill="#7A4B3C"/>
<path d="M172.324 165.253C162.668 115.378 143.549 100.899 143.357 100.758L144.215 99.5801C145.017 100.163 163.972 114.447 173.756 164.975L172.324 165.253Z" fill="#121A35"/>
<path d="M169.027 181.749L167.576 181.607C171.33 143.172 141.975 107.495 141.678 107.139L142.797 106.205C143.098 106.567 172.839 142.714 169.027 181.749Z" fill="#121A35"/>
<path d="M250.227 59.2532C252.834 57.3402 256.022 54.4102 255.102 52.0442C253.635 48.2782 244.421 54.1122 243.984 54.3962C244.67 53.5462 264.368 29.2672 240.449 39.8542C244.781 34.8272 246.119 29.5942 238.587 26.3072C231.939 23.5192 222.287 25.4502 216.281 28.6672C216.006 28.8302 215.672 29.0192 215.311 29.2332C216.135 26.4872 215.654 23.8192 212.634 22.4462C209.821 21.0822 206.036 20.8602 202.364 21.6232C204.08 15.3432 202.373 9.61222 193.76 7.64722C183.465 5.07322 172.955 9.14823 166.521 17.2982C165.38 18.6882 164.016 20.4212 162.823 22.3082C162.549 18.2932 160.927 14.3382 157.942 12.7942C154.115 10.8812 151.507 13.5142 149.525 16.7322C148.393 12.7772 144.952 9.88622 139.067 10.6502C133.173 11.4912 128.309 17.0922 127.528 22.7812C123.994 18.5932 118.614 15.0512 115.475 14.0812C112.489 13.2662 109.255 13.3952 106.732 14.7842C104.682 9.91122 99.8765 6.72922 92.3105 7.64622C85.3015 8.26422 80.4715 12.0562 78.0175 18.4392C77.3915 15.1952 76.3535 12.0732 75.5815 10.4342C72.5795 3.35622 65.5005 -1.36178 57.7795 0.353221C46.7805 3.09922 41.6415 14.3892 42.4405 25.1042C41.2645 21.7072 39.5065 18.5492 36.9755 16.2252C32.2565 11.9352 24.9645 11.9352 20.8895 17.0822C15.5275 23.9462 18.1015 34.6702 21.1035 41.9622C21.1295 42.0212 21.1555 42.0902 21.1895 42.1672C16.4435 39.5762 11.0475 39.0442 10.1655 43.2492C9.46253 46.3972 10.9465 49.7342 13.3565 52.7462C7.75454 50.1892 1.96353 48.3792 0.513534 50.9702C-1.94647 55.3632 5.08953 62.6302 7.71553 65.1162C4.53053 66.9342 2.27053 68.9582 3.73053 70.6042C7.30553 74.6352 46.7695 70.6042 46.7695 70.6042C46.7695 70.6042 44.3385 75.4932 47.7705 75.4932C51.2015 75.4932 56.4925 71.5282 56.4925 71.5282C56.4925 71.5282 88.0925 87.9512 124.484 71.9272C124.484 71.9272 123.697 78.0672 126.842 78.0672C129.988 78.0672 134.778 73.2062 134.778 73.2062C134.778 73.2062 160.159 83.5892 170.74 70.6052C170.74 70.6052 192.902 82.3572 194.475 68.0582C194.475 68.0582 214.35 77.3522 211.776 66.3432C211.776 66.3432 218.926 72.5092 220.355 71.9282C221.786 71.3482 220.355 67.0672 220.355 67.0672C220.355 67.0672 244.091 74.4942 251.956 68.0602C256.679 64.1952 253.51 61.1062 250.227 59.2532Z" fill="#9E9E0D"/>
<g opacity="0.2">
<path d="M37.0663 65.2452C33.1663 65.2602 29.1902 63.5832 27.3042 59.9362C25.7732 57.0822 25.8563 54.3462 26.6823 51.4772C29.2583 51.0882 32.0143 51.2302 34.3533 52.4012C39.8273 55.1972 39.0483 60.4422 37.0663 65.2452Z" fill="white"/>
<path d="M80.2173 29.0213C79.9333 25.1323 81.3343 21.0493 84.8413 18.9173C87.5833 17.1933 90.3193 17.0873 93.2383 17.7143C93.8033 20.2583 93.8533 23.0173 92.8443 25.4303C90.4323 31.0843 85.1463 30.6693 80.2173 29.0213Z" fill="white"/>
<path d="M169.094 66.8094C168.81 62.9204 170.21 58.8384 173.718 56.7054C176.46 54.9804 179.196 54.8744 182.114 55.5014C182.679 58.0454 182.728 60.8054 181.72 63.2174C179.309 68.8724 174.023 68.4574 169.094 66.8094Z" fill="white"/>
<path d="M179.268 38.0845C178.984 34.1955 180.384 30.1125 183.892 27.9805C186.635 26.2555 189.37 26.1495 192.289 26.7775C192.853 29.3205 192.904 32.0805 191.894 34.4935C189.482 40.1465 184.196 39.7325 179.268 38.0845Z" fill="white"/>
<path d="M96.4476 70.533C96.1646 66.644 97.5646 62.5611 101.073 60.4291C103.814 58.7051 106.551 58.599 109.469 59.226C110.034 61.77 110.083 64.5281 109.075 66.9421C106.663 72.5961 101.377 72.181 96.4476 70.533Z" fill="white"/>
<path d="M165.958 46.6953C163.726 48.1813 162.3 50.9593 163.053 54.4023C163.611 57.1163 165.031 59.1253 166.942 60.9463C168.607 60.2453 170.109 59.0833 170.855 57.3113C172.575 53.1263 169.5 49.5153 165.958 46.6953Z" fill="white"/>
<path d="M62.2188 52.617C61.9368 48.727 63.3358 44.646 66.8438 42.513C69.5848 40.789 72.3208 40.683 75.2398 41.31C75.8048 43.853 75.8548 46.613 74.8468 49.026C72.4348 54.679 67.1478 54.264 62.2188 52.617Z" fill="white"/>
<path d="M57.3681 31.6133C55.1361 33.0993 53.709 35.8763 54.463 39.3193C55.021 42.0333 56.443 44.0423 58.354 45.8643C60.018 45.1643 61.52 44.0013 62.266 42.2293C63.986 38.0433 60.9101 34.4323 57.3681 31.6133Z" fill="white"/>
<path d="M182.516 23.964C184.979 25.097 187.973 25.196 190.205 23.462C191.986 22.12 192.712 20.387 193.007 18.355C191.486 17.369 189.703 16.663 187.889 16.72C183.629 16.889 182.629 20.391 182.516 23.964Z" fill="white"/>
<path d="M134.055 69.0797C133.849 66.2597 134.863 63.2997 137.408 61.7537C139.395 60.5037 141.379 60.4267 143.495 60.8817C143.905 62.7267 143.94 64.7267 143.209 66.4757C141.461 70.5757 137.627 70.2747 134.055 69.0797Z" fill="white"/>
<path d="M131.27 72.0507C132.599 69.6877 132.941 66.7117 131.394 64.3457C130.201 62.4617 128.531 61.5967 126.532 61.1387C125.426 62.5737 124.577 64.2947 124.487 66.1067C124.309 70.3667 127.717 71.6487 131.27 72.0507Z" fill="white"/>
<path d="M92.4989 48.3359C90.2669 49.8219 88.8399 52.5999 89.5939 56.0419C90.1519 58.7569 91.5729 60.7649 93.4829 62.5869C95.1489 61.8869 96.6499 60.7229 97.3959 58.9519C99.1169 54.7659 96.0399 51.1549 92.4989 48.3359Z" fill="white"/>
<path d="M24.0596 34.6449C23.4976 37.5439 24.0026 40.7078 26.0566 42.5538C27.6566 44.0388 29.4116 44.3088 31.3556 44.0418C31.9676 42.1718 32.2696 40.1038 31.8546 38.2198C30.8506 33.8088 27.3996 33.7519 24.0596 34.6449Z" fill="white"/>
<path d="M37.4129 38.0566C35.1809 39.5416 33.7539 42.3196 34.5079 45.7616C35.0659 48.4766 36.4869 50.4846 38.3979 52.3066C40.0619 51.6066 41.565 50.4436 42.311 48.6716C44.031 44.4866 40.9549 40.8746 37.4129 38.0566Z" fill="white"/>
<path d="M98.2807 12.1758C96.0487 13.6608 94.6217 16.4388 95.3747 19.8808C95.9327 22.5958 97.3537 24.6048 99.2647 26.4248C100.93 25.7248 102.431 24.5618 103.178 22.7908C104.899 18.6048 101.822 14.9928 98.2807 12.1758Z" fill="white"/>
<path d="M239.759 53.8357C237.131 53.3037 234.156 54.2527 232.249 57.2167C230.719 59.5277 230.299 61.9517 230.357 64.5917C232.028 65.2767 233.912 65.5197 235.693 64.7987C239.874 63.0617 240.261 58.3347 239.759 53.8357Z" fill="white"/>
<path d="M227.826 60.278C224.484 59.632 221.373 57.465 220.399 53.896C219.59 51.094 220.144 48.668 221.355 46.25C223.63 46.339 225.966 46.93 227.763 48.37C231.958 51.786 230.369 56.33 227.826 60.278Z" fill="white"/>
<path d="M176.243 30.7467C172.9 30.1007 169.789 27.9337 168.815 24.3647C168.006 21.5617 168.56 19.1367 169.771 16.7188C172.046 16.8078 174.382 17.3987 176.179 18.8387C180.375 22.2547 178.786 26.7997 176.243 30.7467Z" fill="white"/>
<path d="M92.2277 73.405C88.9477 74.317 85.1977 73.763 82.7337 71.003C80.7607 68.855 80.1747 66.437 80.1817 63.732C82.2577 62.798 84.6127 62.286 86.8627 62.774C92.1417 63.963 92.7447 68.739 92.2277 73.405Z" fill="white"/>
<path d="M132.884 42.8289C133.163 38.9399 131.781 34.8569 128.312 32.7249C125.604 30.9999 122.899 30.8939 120.015 31.5209C119.456 34.0649 119.407 36.8239 120.404 39.2379C122.788 44.8919 128.012 44.4769 132.884 42.8289Z" fill="white"/>
<path d="M144.323 24.793C144.827 27.092 144.403 29.909 142.623 32.042C141.236 33.744 139.708 34.458 138.014 34.772C137.472 33.359 137.198 31.692 137.551 29.984C138.403 25.969 141.409 24.964 144.323 24.793Z" fill="white"/>
<path d="M137.054 45.6999C140.295 46.6119 144.004 46.0579 146.437 43.2979C148.388 41.1499 148.968 38.7319 148.961 36.0269C146.908 35.0929 144.582 34.5809 142.358 35.0689C137.139 36.2579 136.543 41.0339 137.054 45.6999Z" fill="white"/>
</g>
<path d="M208.197 195.339C208.197 203.873 170.716 210.791 124.481 210.791C78.2476 210.791 40.7676 203.873 40.7676 195.339C40.7676 186.805 78.2476 179.887 124.481 179.887C170.716 179.887 208.197 186.805 208.197 195.339Z" fill="#FF994D"/>
<path d="M56.5974 200.922H78.1004C78.1004 200.922 82.9704 193.449 80.4444 192.395C77.9184 191.34 73.1804 196.658 73.1804 196.658C73.1804 196.658 75.3674 193.173 73.1804 192.256C70.9934 191.34 68.8834 197.536 68.8834 197.536C68.8834 197.536 63.4604 186.42 60.6674 187.513C57.8734 188.606 59.6954 197.171 59.6954 197.171C59.6954 197.171 51.1304 188.999 56.5974 200.922Z" fill="#FFCE33"/>
<path d="M179.236 198.082H198.37C198.37 198.082 201.65 196.289 199.828 194.179C198.005 192.069 192.903 196.131 192.903 196.131C192.903 196.131 195.273 190.247 193.632 189.7C191.992 189.154 188.894 194.179 188.894 194.179C188.894 194.179 187.983 188.706 186.161 189.658C184.339 190.611 183.1 195.338 183.1 195.338C183.1 195.338 176.321 185.509 179.236 198.082Z" fill="#9E9E0D"/>
<path d="M150.663 130.76C152.361 137.489 155.702 148.057 163.628 149.826C170.364 151.33 172.818 145.608 174.089 139.977C174.237 139.323 172.131 139.669 171.99 140.291C171.533 142.317 171.01 144.266 170.147 146.162C167.739 151.45 161.939 147.659 159.38 144.899C155.767 141.003 154.044 135.226 152.775 130.193C152.62 129.578 150.505 130.133 150.663 130.76Z" fill="white"/>
<path d="M177.899 141.898L179.343 140.088L175.475 135.334L173.04 137.672L174.421 134.038L173.875 133.368L172.735 134.669L173.256 132.608L172.116 131.207C172.116 131.207 167.742 140.865 170.802 144.813C173.862 148.761 180.863 141.959 180.863 141.959L179.912 140.79L177.899 141.898Z" fill="#121A35"/>
<path d="M111.162 68.9396L101.971 57.5856L103.881 42.6426C103.881 42.6426 95.6124 46.6646 86.5504 54.3136L87.3934 57.0556L85.2834 55.4046C81.7074 58.5356 78.0664 62.2216 74.8024 66.4386L76.2164 69.7946L73.8074 67.7586C73.3504 68.3806 72.9004 69.0086 72.4634 69.6516L76.7024 73.4406L71.6324 70.9056C68.6214 75.5716 66.1724 80.7856 64.7534 86.5146L67.1054 88.9906H64.2084C63.0184 95.2586 63.0794 102.112 64.9804 109.522C66.3534 114.879 67.9444 119.636 69.6784 123.861L72.5734 123.128L71.3594 124.752H73.5454L70.7454 126.346C72.3364 129.921 74.0284 133.087 75.7684 135.884H79.3764L76.6634 137.289C81.1814 144.181 85.9464 148.701 90.0334 151.639L103.189 128.594L101.509 78.8426L111.162 68.9396Z" fill="#121A35"/>
<path d="M104.219 148.275L78.0996 168.927C78.0996 168.927 84.6606 182.412 103.612 179.861V173.483L82.2906 170.384L105.799 155.624L104.219 148.275Z" fill="#121A35"/>
<path d="M123.353 146.045C123.353 146.045 120.487 156.611 133.8 158.578L131.735 181.441L139.51 182.292L137.161 147.136L123.353 146.045Z" fill="#121A35"/>
<path d="M146.436 151.433C146.436 151.433 153.907 174.212 151.356 188.607L147.894 191.341L145.343 158.54C145.343 158.54 139.038 159.306 136.392 153.948L104.159 157.447L109.991 195.168H101.972L100.697 156.9C100.697 156.9 96.1186 156.025 90.0326 151.637C58.6676 84.4089 101.972 57.5849 101.972 57.5849L101.98 57.5779C102.307 57.4749 110.216 54.8509 118.832 53.5469C113.745 65.3259 114.276 74.5319 115.757 80.3929C113.147 80.1599 110.318 79.7289 107.258 79.0879L110.356 120.818C110.356 120.818 144.433 116.08 152.269 126.102C160.103 136.127 146.436 151.433 146.436 151.433Z" fill="white"/>
<path d="M107.662 84.5494L107.287 79.5084L94.5392 64.0234C93.9012 64.7014 93.2442 65.4354 92.5762 66.2264L107.662 84.5494Z" fill="#121A35"/>
<path d="M111.256 78.74L100.806 58.394C100.213 58.83 99.4185 59.446 98.4805 60.249L108.261 79.291C110.449 79.724 112.518 80.045 114.465 80.263L110.29 55.248C109.278 55.494 108.328 55.738 107.455 55.971L111.256 78.74Z" fill="#121A35"/>
<path d="M108.175 91.4638L107.887 87.5878L87.9757 72.5078C87.4657 73.3128 86.9637 74.1518 86.4707 75.0258L108.175 91.4638Z" fill="#121A35"/>
<path d="M102.094 80.9715L90.4256 68.9395C89.9976 69.5155 89.5686 70.1095 89.1426 70.7315L102.094 80.9715Z" fill="#121A35"/>
<path d="M108.678 98.2343L108.43 94.8893L82.8425 82.7363C82.4975 83.6313 82.1665 84.5483 81.8535 85.4943L108.678 98.2343Z" fill="#121A35"/>
<path d="M82.2129 79.6331L108.324 93.4771L108.256 92.5621L83.6479 77.2031L82.2129 79.6331Z" fill="#121A35"/>
<path d="M109.114 104.098L108.883 101L79.9466 92.7539C79.7576 93.6949 79.5865 94.6579 79.4355 95.6399L109.114 104.098Z" fill="#121A35"/>
<path d="M109.468 108.879L78.75 110.516C78.802 111.472 78.871 112.441 78.958 113.425L109.684 111.787L109.468 108.879Z" fill="#121A35"/>
<path d="M112.153 120.599L84.5293 138.157C84.8533 139.084 85.1923 140.02 85.5463 140.965L118.488 120.027C115.809 120.211 113.593 120.436 112.153 120.599Z" fill="#121A35"/>
<path d="M110.277 119.79L110.043 116.637L82.2129 130.816C82.4739 131.756 82.7529 132.704 83.0459 133.664L110.277 119.79Z" fill="#121A35"/>
<path d="M105.921 117.781L80.4453 123.481C80.6033 124.254 80.7683 125.032 80.9473 125.819L105.921 117.781Z" fill="#121A35"/>
<path d="M109.436 108.454L109.217 105.5L78.7434 102.34C78.6914 103.296 78.6624 104.272 78.6484 105.261L109.436 108.454Z" fill="#121A35"/>
<path d="M126.5 119.705C124.788 119.721 123.125 119.773 121.559 119.847L87.6152 146.168C88.0002 147.082 88.3952 148.002 88.8082 148.933L126.5 119.705Z" fill="#121A35"/>
<path d="M111.28 156.475L111.05 156.543L138.218 120.319C137.109 120.174 135.977 120.058 134.835 119.969L106.953 157.145L111.337 156.669L111.28 156.475Z" fill="#121A35"/>
<path d="M100.785 159.563L100.885 162.573L104.774 161.428L104.324 158.521L100.785 159.563Z" fill="#121A35"/>
<path d="M101.051 167.54L105.429 165.663L104.969 162.688L100.947 164.413L101.051 167.54Z" fill="#121A35"/>
<path d="M132.769 119.831C131.322 119.755 129.871 119.715 128.441 119.703L90.7031 152.103C91.5951 152.721 92.4571 153.272 93.2661 153.745L132.769 119.831Z" fill="#121A35"/>
<path d="M142.85 121.154C141.884 120.925 140.881 120.726 139.849 120.559L120.492 155.676L124.033 155.291L142.85 121.154Z" fill="#121A35"/>
<path d="M144.105 121.475L134.582 154.145L136.393 153.949C136.651 154.473 136.953 154.922 137.272 155.335L146.872 122.401C146.005 122.052 145.078 121.745 144.105 121.475Z" fill="#121A35"/>
<path d="M148.913 160.422C148.663 159.375 148.415 158.396 148.179 157.492L145.383 159.058L145.632 162.261L148.913 160.422Z" fill="#121A35"/>
<path d="M144.709 158.576L147.754 155.913C147.402 154.629 147.095 153.579 146.865 152.817L141.26 157.717L151.109 124.891C150.382 124.251 149.53 123.686 148.576 123.186L138.541 156.634C140.764 158.414 143.495 158.599 144.709 158.576Z" fill="#121A35"/>
<path d="M148.469 148.857C149.751 147.094 151.397 144.56 152.675 141.687L154.506 131.167C154.214 129.469 153.548 127.819 152.396 126.287L148.469 148.857Z" fill="#121A35"/>
<path d="M135.139 127.016L115.984 156.164L119.104 155.826L135.139 127.016Z" fill="#121A35"/>
<path d="M125.418 129.201L96.9062 155.603C98.0493 156.1 98.9663 156.416 99.6183 156.614L125.418 129.201Z" fill="#121A35"/>
<path d="M109.956 115.44L109.74 112.529L79.2617 116.237C79.3787 117.186 79.5137 118.15 79.6657 119.125L109.956 115.44Z" fill="#121A35"/>
<path d="M101.117 169.535L106.081 169.884L106.252 170.989L101.117 171.297V169.535Z" fill="#121A35"/>
<path d="M145.834 164.867L149.537 163.143L150.201 166.377L146.197 169.536L146.105 168.507L149.727 164.635L145.879 165.455L145.834 164.867Z" fill="#121A35"/>
<path d="M115.755 80.3936C114.274 74.5336 113.743 65.3276 118.83 53.5476C127.27 52.2506 136.39 52.2206 139.692 57.0396C145.822 65.9906 142.01 82.7836 115.755 80.3936Z" fill="#FF994D"/>
<path d="M106.709 58.3154C106.709 61.5364 104.261 64.1464 101.242 64.1464C98.2224 64.1464 95.7754 61.5364 95.7754 58.3154C95.7754 55.0954 98.2224 52.4844 101.242 52.4844C104.261 52.4844 106.709 55.0954 106.709 58.3154Z" fill="#121A35"/>
<path d="M115.511 55.5615C115.511 58.7825 113.063 61.3925 110.045 61.3925C107.025 61.3925 104.578 58.7825 104.578 55.5615C104.578 52.3405 107.025 49.7305 110.045 49.7305C113.064 49.7295 115.511 52.3405 115.511 55.5615Z" fill="#121A35"/>
<path d="M108.714 53.0547C106.892 53.0547 105.416 54.4087 105.316 56.1107C104.712 55.1977 103.648 54.5877 102.427 54.5877C100.539 54.5877 99.0098 56.0357 99.0098 57.8217C99.0098 59.6077 100.539 61.0567 102.427 61.0567C104.249 61.0567 105.724 59.7027 105.824 57.9997C106.428 58.9127 107.492 59.5237 108.713 59.5237C110.599 59.5237 112.13 58.0757 112.13 56.2887C112.13 54.5027 110.6 53.0547 108.714 53.0547Z" fill="white"/>
<path d="M102.382 58.133C102.382 58.988 101.8 59.682 101.084 59.682C100.366 59.682 99.7852 58.989 99.7852 58.133C99.7852 57.277 100.366 56.584 101.084 56.584C101.8 56.584 102.382 57.277 102.382 58.133Z" fill="#121A35"/>
<path d="M108.715 56.5842C108.715 57.4402 108.133 58.1332 107.417 58.1332C106.7 58.1332 106.119 57.4402 106.119 56.5842C106.119 55.7292 106.7 55.0352 107.417 55.0352C108.133 55.0352 108.715 55.7282 108.715 56.5842Z" fill="#121A35"/>
<path d="M117.916 62.3242L129.216 68.7022C129.216 68.7022 114.272 95.3072 117.916 62.3242Z" fill="#121A35"/>
<path d="M118.735 64.1465L127.566 68.5205C127.566 68.5205 117.368 74.2605 118.735 64.1465Z" fill="white"/>
<path d="M118.189 72.1171C118.189 72.1171 118.442 77.6531 120.257 77.8151C120.257 77.8151 122.106 71.6121 118.189 72.1171Z" fill="#FE2919"/>
<path d="M129.927 60.3617C131.166 61.4677 131.857 62.7137 131.473 63.1437C131.089 63.5737 129.774 63.0257 128.536 61.9187C127.297 60.8127 126.605 59.5667 126.988 59.1367C127.373 58.7067 128.689 59.2557 129.927 60.3617Z" fill="#121A35"/>
<path d="M134.887 59.3667C134.554 60.7857 133.886 61.8417 133.394 61.7257C132.901 61.6097 132.771 60.3667 133.105 58.9487C133.436 57.5307 134.104 56.4747 134.597 56.5907C135.089 56.7067 135.22 57.9497 134.887 59.3667Z" fill="#121A35"/>
<path d="M126.339 62.5216C125.93 62.0886 123.9 59.8426 124.132 58.0956C124.209 57.5116 124.522 57.0366 125.037 56.7206C127.295 55.3396 130.609 57.9336 130.98 58.2346L130.062 59.3666C129.328 58.7746 126.972 57.2446 125.799 57.9636C125.637 58.0626 125.593 58.1646 125.577 58.2856C125.473 59.0766 126.579 60.6526 127.399 61.5186L126.339 62.5216Z" fill="#121A35"/>
<path d="M92.6766 63.9031C92.6766 63.9031 83.6866 70.3311 84.8406 58.5521C84.8406 58.5521 91.2796 56.9211 92.6766 63.9031Z" fill="white"/>
<path d="M85.266 59.1582L91.887 63.4772C91.887 63.4772 84.597 67.7182 85.266 59.1582Z" fill="#121A35"/>
<path d="M136.873 59.987L135.549 59.376C135.785 58.861 136.373 57.187 135.988 56.276C135.874 56.005 135.68 55.828 135.379 55.721C135.063 55.61 134.779 55.624 134.485 55.766C133.546 56.222 132.842 57.796 132.65 58.365L131.268 57.902C131.357 57.634 132.19 55.262 133.845 54.456C134.488 54.143 135.186 54.104 135.868 54.348C136.554 54.592 137.06 55.064 137.333 55.713C138.035 57.381 136.994 59.725 136.873 59.987Z" fill="#121A35"/>
<path d="M168.045 193.962L93.1805 196.369C93.1805 196.369 80.3365 181.289 81.9815 178.397C83.6265 175.504 98.0605 179.143 98.0605 179.143C98.0605 179.143 91.9845 167.156 94.6225 166.34C97.2605 165.524 109.683 178.329 109.683 178.329C109.683 178.329 112.911 168.892 120.847 168.617C128.785 168.342 133.44 179.913 133.44 179.913C133.44 179.913 133.425 171.475 136.079 171.218C138.731 170.961 137.63 177.847 137.63 177.847C137.63 177.847 149.424 165.587 157.027 167.929C164.631 170.271 162.936 179.378 162.936 179.378C162.936 179.378 169.315 170.077 173.505 172.143C177.694 174.206 168.045 193.962 168.045 193.962Z" fill="#9E9E0D"/>
<path d="M136.452 196.37H169.732C169.732 196.37 174.279 191.11 173.77 189.549C173.261 187.987 164.697 192.179 164.697 192.179C164.697 192.179 168.706 182.566 165.243 181.177C161.781 179.787 153.58 191.14 153.58 191.14C153.58 191.14 151.736 183.432 150.198 183.432C148.66 183.432 147.161 191.14 147.161 191.14C147.161 191.14 127.705 180.516 136.452 196.37Z" fill="#FFCE33"/>
</svg>
