<svg width="150" height="222" viewBox="0 0 150 222" fill="none" xmlns="http://www.w3.org/2000/svg">
<path d="M149.306 201.642C149.306 212.495 115.883 221.295 74.653 221.295C33.424 221.295 0 212.495 0 201.642C0 190.787 33.423 181.99 74.653 181.99C115.883 181.99 149.306 190.787 149.306 201.642Z" fill="#FF994D"/>
<path opacity="0.2" d="M135.306 203.629C135.306 210.228 111.809 215.577 82.8238 215.577C53.8388 215.577 30.3418 210.228 30.3418 203.629C30.3418 197.029 53.8388 191.68 82.8238 191.68C111.809 191.68 135.306 197.029 135.306 203.629Z" fill="white"/>
<path opacity="0.2" d="M32.8944 194.153C32.8944 195.518 29.6314 196.625 25.6054 196.625C21.5794 196.625 18.3164 195.518 18.3164 194.153C18.3164 192.787 21.5794 191.68 25.6054 191.68C29.6314 191.68 32.8944 192.786 32.8944 194.153Z" fill="white"/>
<path opacity="0.2" d="M40.9117 190.086C40.9117 190.966 39.3207 191.679 37.3587 191.679C35.3957 191.679 33.8047 190.966 33.8047 190.086C33.8047 189.207 35.3957 188.494 37.3587 188.494C39.3207 188.494 40.9117 189.207 40.9117 190.086Z" fill="white"/>
<path d="M39.4544 36.9922C39.4544 36.9922 26.4244 48.2902 42.1874 53.8482C42.1874 53.8482 25.1494 71.1602 34.3524 91.5692C43.5544 111.979 65.1484 114.256 65.1484 114.256L68.0634 110.429C68.0634 110.429 15.3994 88.1062 49.8444 53.2742L39.4544 36.9922Z" fill="#7A4B3C"/>
<path d="M44.2315 53.2622C38.4315 51.2752 38.7135 45.2952 39.6725 42.4102L41.0565 42.8692C40.9625 43.1542 38.8265 49.8692 44.7035 51.8832L44.2315 53.2622Z" fill="#121A35"/>
<path d="M38.8494 51.7956C32.8504 46.9946 38.1194 38.5996 38.1734 38.5156L39.4014 39.3016C39.2104 39.6006 34.7854 46.6776 39.7604 50.6576L38.8494 51.7956Z" fill="#121A35"/>
<path d="M40.6495 52.7952L40.082 54.9062L48.556 57.1842L49.1235 55.0732L40.6495 52.7952Z" fill="#FFCE33"/>
<path d="M38.8121 55.7279L37.9961 57.7559L45.6264 60.8263L46.4425 58.7983L38.8121 55.7279Z" fill="#FFCE33"/>
<path d="M93.212 53.9405C93.212 53.9405 118.906 108.518 71.709 110.614L72.255 114.848C72.255 114.848 93.029 119.269 104.053 102.14C115.078 85.0105 99.316 59.9535 99.316 59.9535C99.316 59.9535 115.352 55.0335 104.327 43.6445L93.212 53.9405Z" fill="#7A4B3C"/>
<path d="M98.0609 58.7599L97.8379 57.3199C102.136 56.6559 101.795 51.1729 101.778 50.9399L103.232 50.8359C103.407 53.2729 102.55 58.0669 98.0609 58.7599Z" fill="#121A35"/>
<path d="M103.973 57.0242L102.967 55.9682C107.241 51.8972 104.806 47.2732 104.781 47.2262L106.062 46.5312C106.093 46.5883 109.046 52.1922 103.973 57.0242Z" fill="#121A35"/>
<path d="M100.373 58.7434L94.7246 59.8809L95.1563 62.0248L100.805 60.8874L100.373 58.7434Z" fill="#FFCE33"/>
<path d="M101.647 61.7808L96.043 63.5586L96.704 65.6423L102.308 63.8645L101.647 61.7808Z" fill="#FFCE33"/>
<path d="M94.9434 154.531C95.2164 154.531 113.074 152.393 113.074 152.393C113.074 152.393 113.894 177.674 108.7 180.498C103.507 183.323 109.52 159.633 109.52 159.633L95.7614 158.722L94.9434 154.531Z" fill="#7A4B3C"/>
<path d="M109.944 151.115L107.514 160.955L109.637 161.48L112.067 151.639L109.944 151.115Z" fill="#FFCE33"/>
<path d="M48.2009 189.699L56.3099 205.827C56.3099 205.827 36.629 203.094 38.087 206.374C39.545 209.653 55.663 211.202 65.599 209.107L51.804 190.884L48.2009 189.699Z" fill="#7A4B3C"/>
<path d="M54.4278 204.481L54.1758 206.652L64.4654 207.847L64.7174 205.675L54.4278 204.481Z" fill="#FFCE33"/>
<path d="M66.3331 110.156L75.0801 109.244L70.7061 126.373C70.7061 126.373 92.3921 123.458 68.7931 154.437L97.4941 153.07C97.4941 153.07 98.8611 208.285 47.2901 192.796L36.9941 155.075L65.6001 127.285L59.6811 118.356L66.3331 110.156Z" fill="#FE2919"/>
<path d="M52.5177 187.966C48.8477 187.966 46.3688 187.597 46.0938 187.554L46.5417 184.673C46.7207 184.699 64.5157 187.321 76.5707 177.708C83.1957 172.425 86.9358 164.387 87.6878 153.816L90.5957 154.023C89.7827 165.448 85.6707 174.188 78.3727 180C69.9227 186.73 59.2307 187.966 52.5177 187.966Z" fill="white"/>
<path d="M49.515 177.723C45.799 177.723 43.295 177.3 43.207 177.285L43.72 174.415C44.909 174.627 72.879 179.289 79.04 154.002L81.873 154.692C76.955 174.877 59.156 177.723 49.515 177.723Z" fill="white"/>
<path d="M45.9823 182.256C45.7413 182.238 45.6133 182.226 45.6133 182.226L45.6873 181.5C45.6903 181.501 45.8113 181.513 46.0353 181.529L45.9823 182.256Z" fill="white"/>
<path d="M48.8647 182.353C48.6187 182.353 48.4077 182.351 48.2067 182.348L48.2187 181.619C48.4377 181.622 48.6697 181.623 48.9137 181.624L48.9497 182.353C48.9207 182.353 48.8927 182.353 48.8647 182.353ZM49.6947 182.347L49.6827 181.618C49.9187 181.614 50.1627 181.609 50.4157 181.601L50.4377 182.33C50.1817 182.337 49.9337 182.343 49.6947 182.347ZM47.4647 182.33C47.1887 182.322 46.9397 182.311 46.7207 182.3L46.7567 181.572C46.9717 181.582 47.2147 181.593 47.4867 181.601L47.4647 182.33ZM51.1817 182.303L51.1497 181.574L51.8827 181.537L51.9237 182.265L51.1817 182.303ZM52.6647 182.216L52.6117 181.489L53.3427 181.431L53.4047 182.158L52.6647 182.216ZM54.1457 182.088L54.0727 181.362C54.3127 181.338 54.5547 181.312 54.8017 181.283L54.8847 182.008C54.6357 182.036 54.3887 182.063 54.1457 182.088ZM55.6217 181.917L55.5277 181.194C55.7667 181.163 56.0087 181.13 56.2537 181.094L56.3587 181.816C56.1107 181.852 55.8657 181.886 55.6217 181.917ZM57.0937 181.705L56.9787 180.985C57.2177 180.947 57.4577 180.906 57.7007 180.864L57.8267 181.582C57.5807 181.625 57.3367 181.665 57.0937 181.705ZM58.5577 181.447L58.4207 180.731C58.6577 180.686 58.8977 180.638 59.1377 180.587L59.2867 181.301C59.0427 181.351 58.7997 181.4 58.5577 181.447ZM60.0127 181.143L59.8527 180.432C60.0887 180.379 60.3267 180.323 60.5657 180.265L60.7367 180.974C60.4937 181.033 60.2537 181.089 60.0127 181.143ZM61.4587 180.791L61.2737 180.086C61.5087 180.025 61.7437 179.961 61.9797 179.895L62.1767 180.597C61.9377 180.664 61.6977 180.729 61.4587 180.791ZM62.8917 180.39L62.6827 179.692C62.9147 179.622 63.1477 179.55 63.3817 179.476L63.6027 180.17C63.3647 180.246 63.1277 180.32 62.8917 180.39ZM64.3087 179.938L64.0747 179.248C64.3047 179.17 64.5347 179.089 64.7637 179.007L65.0107 179.693C64.7767 179.777 64.5427 179.859 64.3087 179.938ZM65.7097 179.431L65.4477 178.75C65.6747 178.663 65.9007 178.574 66.1267 178.481L66.4007 179.157C66.1707 179.251 65.9397 179.343 65.7097 179.431ZM67.0887 178.87L66.7997 178.201C67.0227 178.105 67.2447 178.006 67.4657 177.905L67.7697 178.568C67.5427 178.671 67.3157 178.771 67.0887 178.87ZM68.4437 178.25L68.1267 177.594C68.3447 177.489 68.5627 177.38 68.7797 177.269L69.1117 177.917C68.8897 178.031 68.6667 178.142 68.4437 178.25ZM69.7707 177.57L69.4227 176.929C69.6357 176.813 69.8487 176.695 70.0597 176.574L70.4207 177.207C70.2057 177.331 69.9887 177.452 69.7707 177.57ZM71.0657 176.83L70.6877 176.207C70.8947 176.081 71.1007 175.954 71.3067 175.822L71.6987 176.436C71.4887 176.57 71.2777 176.701 71.0657 176.83ZM72.3227 176.027L71.9157 175.423C72.1167 175.288 72.3157 175.15 72.5137 175.009L72.9367 175.603C72.7337 175.747 72.5287 175.888 72.3227 176.027ZM73.5377 175.161L73.0997 174.578C73.2927 174.433 73.4847 174.284 73.6757 174.133L74.1277 174.705C73.9327 174.86 73.7367 175.012 73.5377 175.161ZM74.7067 174.232L74.2377 173.673C74.4227 173.518 74.6067 173.36 74.7877 173.198L75.2717 173.743C75.0857 173.911 74.8967 174.073 74.7067 174.232ZM75.8247 173.242L75.3267 172.71C75.5027 172.545 75.6777 172.377 75.8497 172.206L76.3627 172.725C76.1847 172.899 76.0057 173.072 75.8247 173.242ZM76.8857 172.191L76.3587 171.687C76.5247 171.513 76.6897 171.335 76.8527 171.155L77.3937 171.643C77.2257 171.829 77.0567 172.011 76.8857 172.191ZM77.8867 171.081L77.3317 170.608C77.4877 170.424 77.6427 170.238 77.7947 170.049L78.3627 170.505C78.2067 170.701 78.0477 170.892 77.8867 171.081ZM78.8227 169.916L78.2417 169.477C78.3877 169.285 78.5307 169.089 78.6737 168.891L79.2657 169.316C79.1197 169.519 78.9717 169.719 78.8227 169.916ZM79.6907 168.702L79.0857 168.296C79.2197 168.096 79.3527 167.893 79.4827 167.687L80.0977 168.078C79.9647 168.289 79.8287 168.496 79.6907 168.702ZM80.4897 167.441L79.8637 167.068C79.9867 166.861 80.1077 166.65 80.2267 166.438L80.8627 166.794C80.7407 167.013 80.6157 167.228 80.4897 167.441ZM81.2177 166.137L80.5717 165.799C80.6837 165.586 80.7927 165.37 80.9007 165.151L81.5547 165.471C81.4447 165.697 81.3317 165.918 81.2177 166.137ZM81.8747 164.797L81.2117 164.493C81.3117 164.274 81.4107 164.052 81.5067 163.828L82.1767 164.116C82.0767 164.346 81.9767 164.573 81.8747 164.797ZM82.4607 163.425L81.7827 163.156C81.8717 162.932 81.9587 162.706 82.0437 162.476L82.7277 162.729C82.6397 162.964 82.5517 163.196 82.4607 163.425ZM82.9767 162.027L82.2877 161.791C82.3657 161.563 82.4417 161.333 82.5157 161.1L83.2107 161.32C83.1347 161.558 83.0577 161.794 82.9767 162.027ZM83.4257 160.606L82.7257 160.403C82.7927 160.172 82.8577 159.938 82.9217 159.701L83.6257 159.889C83.5607 160.131 83.4937 160.37 83.4257 160.606ZM83.8097 159.167L83.1017 158.995C83.1587 158.761 83.2137 158.524 83.2667 158.284L83.9787 158.441C83.9247 158.686 83.8677 158.928 83.8097 159.167ZM84.1317 157.714L83.4167 157.571C83.4637 157.334 83.5097 157.096 83.5517 156.855L84.2697 156.982C84.2257 157.228 84.1797 157.472 84.1317 157.714ZM84.3927 156.249L83.6727 156.135C83.7107 155.896 83.7467 155.655 83.7807 155.412L84.5027 155.515C84.4677 155.761 84.4317 156.006 84.3927 156.249Z" fill="white"/>
<path d="M84.6019 154.754L83.8789 154.666L83.9199 154.307L84.6449 154.388L84.6019 154.754Z" fill="white"/>
<path d="M56.1194 192.041C55.8694 192.039 55.6254 192.037 55.3854 192.032L55.3994 191.303L56.1244 191.312L56.1194 192.041ZM56.8544 192.04L56.8464 191.311C57.0844 191.308 57.3264 191.305 57.5714 191.299L57.5894 192.028C57.3404 192.034 57.0954 192.038 56.8544 192.04ZM54.6504 192.014L53.9174 191.984L53.9514 191.255L54.6754 191.285L54.6504 192.014ZM58.3234 192.005L58.2954 191.276C58.5344 191.267 58.7754 191.256 59.0194 191.243L59.0574 191.971C58.8094 191.985 58.5644 191.996 58.3234 192.005ZM53.1844 191.943C52.9334 191.928 52.6884 191.91 52.4514 191.892L52.5074 191.165C52.7404 191.183 52.9814 191.2 53.2284 191.215L53.1844 191.943ZM59.7914 191.928L59.7414 191.2C59.9794 191.184 60.2204 191.165 60.4644 191.145L60.5244 191.872C60.2774 191.892 60.0334 191.911 59.7914 191.928ZM51.7204 191.83C51.4644 191.807 51.2204 191.783 50.9884 191.757L51.0664 191.032C51.2944 191.056 51.5344 191.081 51.7854 191.104L51.7204 191.83ZM61.2554 191.806L61.1834 191.08C61.4214 191.057 61.6624 191.031 61.9034 191.003L61.9864 191.728C61.7414 191.755 61.4974 191.781 61.2554 191.806ZM50.2584 191.673C49.9934 191.64 49.7494 191.607 49.5294 191.575L49.6334 190.853C49.8504 190.884 50.0884 190.916 50.3494 190.949L50.2584 191.673ZM62.7154 191.637L62.6204 190.914C62.8574 190.883 63.0964 190.85 63.3374 190.814L63.4424 191.535C63.1994 191.572 62.9564 191.606 62.7154 191.637ZM48.7994 191.463C48.3234 191.384 48.0664 191.331 48.0664 191.331L48.2154 190.617C48.2194 190.618 48.4654 190.669 48.9184 190.744L48.7994 191.463ZM64.1704 191.423L64.0524 190.703C64.2884 190.664 64.5264 190.623 64.7644 190.58L64.8954 191.297C64.6534 191.341 64.4104 191.383 64.1704 191.423ZM65.6174 191.159L65.4744 190.444C65.7094 190.397 65.9454 190.348 66.1824 190.297L66.3364 191.009C66.0964 191.061 65.8564 191.112 65.6174 191.159ZM67.0544 190.846L66.8864 190.137C67.1194 190.082 67.3534 190.024 67.5884 189.964L67.7694 190.67C67.5304 190.731 67.2924 190.79 67.0544 190.846ZM68.4804 190.481L68.2864 189.779C68.5174 189.715 68.7494 189.649 68.9814 189.58L69.1874 190.279C68.9524 190.349 68.7164 190.416 68.4804 190.481ZM69.8914 190.063L69.6704 189.369C69.8994 189.296 70.1284 189.221 70.3574 189.144L70.5904 189.835C70.3584 189.913 70.1244 189.989 69.8914 190.063ZM71.2854 189.59L71.0374 188.904C71.2624 188.822 71.4884 188.738 71.7144 188.651L71.9754 189.332C71.7454 189.421 71.5154 189.506 71.2854 189.59ZM72.6604 189.06L72.3844 188.385C72.6064 188.294 72.8274 188.201 73.0494 188.105L73.3394 188.774C73.1134 188.872 72.8874 188.968 72.6604 189.06ZM74.0114 188.473L73.7064 187.811C73.9234 187.711 74.1414 187.608 74.3574 187.502L74.6764 188.157C74.4554 188.265 74.2334 188.371 74.0114 188.473ZM75.3364 187.828L75.0024 187.18C75.2154 187.071 75.4284 186.958 75.6404 186.843L75.9884 187.484C75.7714 187.601 75.5544 187.716 75.3364 187.828ZM76.6314 187.124L76.2684 186.492C76.4764 186.373 76.6834 186.251 76.8894 186.126L77.2664 186.75C77.0544 186.878 76.8434 187.002 76.6314 187.124ZM77.8924 186.361L77.5004 185.746C77.7024 185.618 77.9024 185.487 78.1034 185.352L78.5094 185.957C78.3044 186.095 78.0984 186.229 77.8924 186.361ZM79.1174 185.539L78.6964 184.943C78.8924 184.805 79.0864 184.664 79.2794 184.521L79.7144 185.106C79.5164 185.254 79.3174 185.398 79.1174 185.539ZM80.3014 184.66L79.8524 184.086C80.0404 183.939 80.2284 183.789 80.4154 183.636L80.8764 184.2C80.6844 184.356 80.4934 184.51 80.3014 184.66ZM81.4404 183.726L80.9644 183.173C81.1454 183.018 81.3244 182.859 81.5034 182.697L81.9934 183.237C81.8104 183.403 81.6264 183.565 81.4404 183.726ZM82.5344 182.736L82.0324 182.208C82.2054 182.043 82.3774 181.876 82.5494 181.706L83.0634 182.223C82.8874 182.396 82.7114 182.567 82.5344 182.736ZM83.5774 181.695L83.0504 181.191C83.2154 181.019 83.3794 180.843 83.5414 180.665L84.0804 181.156C83.9144 181.338 83.7464 181.517 83.5774 181.695ZM84.5704 180.604L84.0194 180.126C84.1754 179.945 84.3304 179.763 84.4844 179.577L85.0454 180.042C84.8884 180.232 84.7304 180.42 84.5704 180.604ZM85.5094 179.468L84.9374 179.017C85.0844 178.829 85.2314 178.639 85.3764 178.446L85.9584 178.884C85.8104 179.082 85.6604 179.277 85.5094 179.468ZM86.3954 178.291L85.8024 177.866C85.9414 177.672 86.0784 177.475 86.2144 177.276L86.8174 177.686C86.6784 177.89 86.5374 178.092 86.3954 178.291ZM87.2254 177.074L86.6144 176.676C86.7444 176.476 86.8734 176.273 87.0004 176.068L87.6194 176.453C87.4894 176.662 87.3584 176.869 87.2254 177.074ZM88.0004 175.822L87.3724 175.452C87.4934 175.246 87.6134 175.038 87.7314 174.827L88.3674 175.184C88.2464 175.399 88.1244 175.612 88.0004 175.822ZM88.7214 174.539L88.0784 174.195C88.1904 173.985 88.3024 173.771 88.4114 173.555L89.0604 173.886C88.9504 174.106 88.8364 174.323 88.7214 174.539ZM89.3884 173.227L88.7324 172.91C88.8364 172.695 88.9384 172.477 89.0404 172.258L89.7024 172.563C89.5994 172.786 89.4944 173.008 89.3884 173.227ZM90.0034 171.89L89.3354 171.598C89.4314 171.379 89.5254 171.158 89.6174 170.934L90.2914 171.212C90.1974 171.441 90.1004 171.667 90.0034 171.89ZM90.5674 170.532L89.8884 170.265C89.9764 170.042 90.0624 169.818 90.1474 169.591L90.8304 169.846C90.7434 170.077 90.6564 170.306 90.5674 170.532ZM91.0814 169.156L90.3934 168.913C90.4734 168.687 90.5514 168.46 90.6284 168.23L91.3194 168.46C91.2424 168.694 91.1624 168.926 91.0814 169.156ZM91.5474 167.762L90.8524 167.542C90.9244 167.313 90.9954 167.084 91.0654 166.851L91.7634 167.06C91.6924 167.297 91.6204 167.531 91.5474 167.762ZM91.9674 166.355L91.2664 166.157C91.3314 165.927 91.3944 165.694 91.4574 165.46L92.1614 165.648C92.0974 165.886 92.0334 166.121 91.9674 166.355ZM92.3444 164.936L91.6374 164.759C91.6954 164.527 91.7524 164.293 91.8074 164.056L92.5174 164.222C92.4614 164.463 92.4034 164.701 92.3444 164.936ZM92.6794 163.507L91.9674 163.351C92.0184 163.117 92.0684 162.881 92.1174 162.643L92.8314 162.789C92.7824 163.03 92.7314 163.269 92.6794 163.507ZM92.9744 162.071L92.2584 161.933C92.3034 161.698 92.3474 161.461 92.3894 161.222L93.1074 161.349C93.0634 161.591 93.0194 161.832 92.9744 162.071ZM93.2304 160.626L92.5104 160.508L92.6234 159.793L93.3444 159.902L93.2304 160.626ZM93.4504 159.177L92.7284 159.077L92.8244 158.358L93.5474 158.451L93.4504 159.177ZM93.6354 157.723L92.9114 157.639L92.9914 156.919L93.7164 156.995L93.6354 157.723ZM93.7884 156.265L93.0624 156.198L93.1254 155.476L93.8524 155.535L93.7884 156.265ZM93.9104 154.804L93.1834 154.752L93.2134 154.322L93.9414 154.369L93.9104 154.804Z" fill="white"/>
<path d="M68.1551 108.7L66.6061 100.044C66.6061 100.044 41.7311 112.435 32.3471 101.502C22.9621 90.5686 42.0951 63.5076 55.4901 53.8496L89.4751 58.7696L80.8191 80.6366C80.8191 80.6366 92.9371 79.4526 94.0301 85.3746C95.1231 91.2976 85.9211 96.6726 74.0761 90.6596L71.1601 108.7H68.1551Z" fill="#7A4B3C"/>
<path d="M45.377 60.1013L44.4707 63.6309L84.9252 74.0181L85.8315 70.4885L45.377 60.1013Z" fill="#FFCE33"/>
<path d="M45.1006 61.1679L44.7383 62.5801L45.4444 62.7612L45.8067 61.349L45.1006 61.1679Z" fill="#FE2919"/>
<path d="M83.0426 72.4079L81.5966 72.0359L81.9586 70.6239L83.4046 70.9949L83.0426 72.4079ZM80.1506 71.6649L78.7046 71.2939L79.0666 69.8819L80.5126 70.2529L80.1506 71.6649ZM77.2586 70.9229L75.8126 70.5509L76.1756 69.1389L77.6206 69.5109L77.2586 70.9229ZM74.3666 70.1809L72.9206 69.8089L73.2826 68.3969L74.7286 68.7679L74.3666 70.1809ZM71.4746 69.4369L70.0286 69.0659L70.3916 67.6539L71.8376 68.0249L71.4746 69.4369ZM68.5826 68.6949L67.1366 68.3239L67.4996 66.9109L68.9456 67.2829L68.5826 68.6949ZM65.6906 67.9529L64.2446 67.5819L64.6066 66.1699L66.0526 66.5409L65.6906 67.9529ZM62.7986 67.2099L61.3526 66.8389L61.7146 65.4259L63.1606 65.7979L62.7986 67.2099ZM59.9066 66.4679L58.4606 66.0959L58.8236 64.6829L60.2696 65.0549L59.9066 66.4679ZM57.0146 65.7249L55.5686 65.3539L55.9306 63.9409L57.3766 64.3129L57.0146 65.7249ZM54.1226 64.9819L52.6766 64.6109L53.0386 63.1979L54.4846 63.5689L54.1226 64.9819ZM51.2296 64.2399L49.7836 63.8679L50.1466 62.4559L51.5926 62.8279L51.2296 64.2399ZM48.3386 63.4969L46.8926 63.1249L47.2546 61.7129L48.7006 62.0849L48.3386 63.4969Z" fill="#FE2919"/>
<path d="M84.8438 71.3732L84.4805 72.7852L85.1864 72.9668L85.5498 71.5549L84.8438 71.3732Z" fill="#FE2919"/>
<path d="M48.1584 56.7522L47.5098 60.3379L87.5536 67.5816L88.2023 63.9959L48.1584 56.7522Z" fill="#FFCE33"/>
<path d="M47.967 57.8192L47.707 59.2539L48.4244 59.3839L48.6843 57.9492L47.967 57.8192Z" fill="#FE2919"/>
<path d="M85.6035 66.1129L84.1735 65.8539L84.4325 64.4199L85.8625 64.6789L85.6035 66.1129ZM82.7435 65.5949L81.3135 65.3369L81.5735 63.9019L83.0035 64.1609L82.7435 65.5949ZM79.8835 65.0779L78.4535 64.8199L78.7125 63.3849L80.1425 63.6429L79.8835 65.0779ZM77.0235 64.5599L75.5935 64.3009L75.8525 62.8669L77.2835 63.1249L77.0235 64.5599ZM74.1635 64.0429L72.7335 63.7839L72.9925 62.3499L74.4225 62.6079L74.1635 64.0429ZM71.3035 63.5259L69.8735 63.2669L70.1335 61.8319L71.5635 62.0909L71.3035 63.5259ZM68.4435 63.0079L67.0135 62.7499L67.2735 61.3149L68.7035 61.5739L68.4435 63.0079ZM65.5835 62.4909L64.1535 62.2329L64.4125 60.7979L65.8425 61.0569L65.5835 62.4909ZM62.7235 61.9729L61.2935 61.7139L61.5535 60.2799L62.9835 60.5379L62.7235 61.9729ZM59.8635 61.4559L58.4335 61.1969L58.6925 59.7629L60.1235 60.0219L59.8635 61.4559ZM57.0035 60.9389L55.5735 60.6799L55.8325 59.2449L57.2625 59.5039L57.0035 60.9389ZM54.1435 60.4209L52.7135 60.1619L52.9725 58.7279L54.4025 58.9859L54.1435 60.4209ZM51.2835 59.9039L49.8535 59.6459L50.1135 58.2109L51.5435 58.4699L51.2835 59.9039Z" fill="#FE2919"/>
<path d="M87.295 64.9364L87.0352 66.3711L87.7525 66.501L88.0123 65.0663L87.295 64.9364Z" fill="#FE2919"/>
<path d="M48.5586 89.0983C45.3336 89.0993 42.3066 88.6093 41.9726 86.8293C41.7926 85.8703 42.1656 85.2833 42.5116 84.9603C43.7336 83.8143 46.5976 84.2413 47.9546 84.5273L50.0376 79.6973L51.3766 80.2743L48.8066 86.2343L48.2036 86.0803C46.6956 85.6973 44.1596 85.4113 43.5086 86.0243C43.4526 86.0773 43.3356 86.1863 43.4056 86.5613C43.6166 87.6853 48.7556 87.9563 54.6386 87.2013C54.3286 86.6623 53.9246 86.1713 53.5626 86.1283C53.2606 86.1033 52.8376 86.4453 52.4086 87.0963L51.1906 86.2943C51.9666 85.1143 52.8186 84.5733 53.7346 84.6803C55.3986 84.8783 56.3046 87.2693 56.4026 87.5413L56.7046 88.3803L55.8226 88.5093C54.3776 88.7213 51.3916 89.0983 48.5586 89.0983Z" fill="#121A35"/>
<path d="M64.9216 93.1872C64.9216 94.8612 62.9836 96.2172 60.5936 96.2172C58.2026 96.2172 56.2656 94.8612 56.2656 93.1872C56.2656 91.5142 58.2036 90.1582 60.5936 90.1582C62.9836 90.1582 64.9216 91.5142 64.9216 93.1872Z" fill="#FF994D"/>
<path d="M55.8175 94.5549C55.3875 94.5549 55.1105 94.5329 55.0645 94.5289L55.1885 93.0769C55.2315 93.0789 59.4764 93.4069 61.2844 91.1469C62.2534 89.9349 62.3704 88.1279 61.6294 85.7769L63.0204 85.3379C63.9164 88.1839 63.7144 90.4449 62.4194 92.0609C60.6344 94.2879 57.3095 94.5549 55.8175 94.5549Z" fill="#121A35"/>
<path d="M61.5723 87.2032L60.5273 86.1862C61.4193 85.2712 63.7543 83.9692 66.2073 85.6042L65.3983 86.8172C63.3283 85.4372 61.6423 87.1302 61.5723 87.2032Z" fill="#121A35"/>
<path d="M41.2246 71.2578L50.7056 71.7978L41.5086 74.1598L41.2246 71.2578Z" fill="#121A35"/>
<path d="M53.8111 68.9648L62.8382 72.5268L53.1602 71.8058L53.8111 68.9648Z" fill="#121A35"/>
<path d="M87.6248 93.1562C87.3478 94.2232 85.1098 94.5662 82.6258 93.9202C80.1418 93.2742 78.3528 91.8862 78.6298 90.8192C78.9068 89.7522 81.1449 89.4092 83.6289 90.0542C86.1139 90.7012 87.9028 92.0892 87.6248 93.1562Z" fill="#FFCE33"/>
<path d="M55.8735 84.3176C55.7905 84.3176 55.7045 84.3146 55.6175 84.3086C54.7185 84.2406 53.9595 83.8326 53.4235 83.1276C51.7995 80.9946 52.5835 76.7216 52.6785 76.2416L54.1095 76.5236C53.8885 77.6516 53.5425 80.8776 54.5855 82.2456C54.8735 82.6236 55.2365 82.8176 55.7275 82.8536C58.5765 83.0676 59.3165 76.3786 59.3235 76.3106L59.3935 75.6016L63.9275 75.9436L63.8185 77.3976L60.6815 77.1606C60.3835 79.1046 59.2685 84.3176 55.8735 84.3176Z" fill="#121A35"/>
<path d="M59.8989 77.5524L59.5527 78.9688L62.9186 79.7913L63.2648 78.375L59.8989 77.5524Z" fill="#121A35"/>
<path d="M45.6693 83.5581C45.5853 83.5581 45.5003 83.555 45.4133 83.548C44.5143 83.48 43.7563 83.072 43.2203 82.368C41.9553 80.706 42.1513 77.745 42.3453 76.291L39.4473 76.077L39.5543 74.623L44.0643 74.957L43.9063 75.764C43.6853 76.892 43.3393 80.118 44.3813 81.487C44.6693 81.865 45.0323 82.058 45.5233 82.095C45.5673 82.098 45.6123 82.1 45.6563 82.1C48.3943 82.1 49.1143 75.619 49.1203 75.552L50.5713 75.695C50.5383 76.022 49.7513 83.5581 45.6693 83.5581Z" fill="#121A35"/>
<path d="M42.9049 76.8999L39.8086 77.1328L39.9179 78.5867L43.0142 78.3538L42.9049 76.8999Z" fill="#121A35"/>
<path d="M76.9277 90.1172L77.2797 88.2012C77.3097 88.0342 78.0907 84.1083 83.4597 83.0173C89.0577 81.8803 90.0187 86.2393 90.0277 86.2833L88.5997 86.5762C88.5327 86.2762 87.8257 83.6192 83.7497 84.4462C81.8167 84.8392 80.6127 85.6482 79.8697 86.4382C80.4837 86.2422 81.0677 86.1883 81.6237 86.2793C82.8787 86.4843 83.4697 87.3472 83.5327 87.4442L82.3087 88.2363L82.9207 87.8403L82.3157 88.2462C82.3027 88.2282 82.0007 87.8053 81.3587 87.7123C80.5777 87.6023 79.5707 88.0103 78.4507 88.9023L76.9277 90.1172Z" fill="#121A35"/>
<path d="M66.3329 104.326H73.6219L71.5269 109.246L75.0799 108.153C75.0799 108.153 67.6089 122.458 64.4199 109.246L67.2459 109.587L66.3329 104.326Z" fill="#FFCE33"/>
<path d="M66.8809 105.049L66.8633 105.777L67.2272 105.786L67.2447 105.057L66.8809 105.049Z" fill="white"/>
<path d="M71.57 105.896L70.848 105.879L70.866 105.15L71.588 105.167L71.57 105.896ZM70.125 105.862L69.402 105.845L69.42 105.116L70.143 105.133L70.125 105.862ZM68.68 105.828L67.957 105.811L67.975 105.082L68.698 105.099L68.68 105.828Z" fill="white"/>
<path d="M72.3027 105.177L72.2852 105.906L72.649 105.915L72.6666 105.186L72.3027 105.177Z" fill="white"/>
<path d="M67.2657 106.554L67.2207 107.281L67.584 107.304L67.629 106.576L67.2657 106.554Z" fill="white"/>
<path d="M70.576 107.492L69.829 107.446L69.874 106.719L70.622 106.765L70.576 107.492ZM69.081 107.4L68.334 107.354L68.379 106.627L69.126 106.673L69.081 107.4Z" fill="white"/>
<path d="M71.3653 106.804L71.3203 107.531L71.6836 107.554L71.7286 106.826L71.3653 106.804Z" fill="white"/>
<path d="M67.6729 108.339L67.5547 109.059L67.9149 109.118L68.033 108.398L67.6729 108.339Z" fill="white"/>
<path d="M68.8878 108.538L68.7695 109.256L69.6378 109.399L69.7561 108.68L68.8878 108.538Z" fill="white"/>
<path d="M70.6397 108.826L70.5215 109.545L70.8817 109.604L70.9998 108.885L70.6397 108.826Z" fill="white"/>
<path d="M66.011 110.451C65.815 110.295 65.709 110.188 65.709 110.188L66.224 109.672C66.231 109.679 66.316 109.762 66.466 109.882L66.011 110.451Z" fill="white"/>
<path d="M69.4314 111.637L69.3874 110.909C69.5934 110.897 69.8004 110.865 70.0014 110.816L70.1744 111.524C69.9314 111.584 69.6814 111.622 69.4314 111.637ZM68.6824 111.615C68.4274 111.586 68.1824 111.534 67.9514 111.468L68.1524 110.768C68.3464 110.824 68.5524 110.867 68.7664 110.892L68.6824 111.615ZM70.8834 111.286L70.5944 110.617C70.7794 110.537 70.9654 110.44 71.1544 110.323L71.5394 110.942C71.3174 111.079 71.0984 111.193 70.8834 111.286ZM67.2574 111.213C67.0174 111.105 66.7994 110.987 66.6094 110.87L66.9904 110.249C67.1564 110.351 67.3464 110.454 67.5564 110.548L67.2574 111.213ZM72.1344 110.517L71.6754 109.951C71.8354 109.822 71.9964 109.677 72.1574 109.516L72.6734 110.032C72.4924 110.211 72.3134 110.372 72.1344 110.517Z" fill="white"/>
<path d="M73.1683 109.491L72.6113 109.021C72.6853 108.934 72.7583 108.843 72.8323 108.748L73.4063 109.196C73.3273 109.299 73.2483 109.396 73.1683 109.491Z" fill="white"/>
<path d="M65.3106 111.79C65.1726 111.585 65.1016 111.452 65.1016 111.452L65.7436 111.107C65.7476 111.115 65.8066 111.222 65.9156 111.383L65.3106 111.79Z" fill="white"/>
<path d="M68.7102 113.889C68.5322 113.889 68.3592 113.874 68.1922 113.848L68.3082 113.128C68.4932 113.158 68.6872 113.169 68.8912 113.154L68.9422 113.882C68.8642 113.887 68.7862 113.889 68.7102 113.889ZM69.6752 113.749L69.4732 113.049C69.6562 112.996 69.8442 112.924 70.0382 112.83L70.3552 113.486C70.1282 113.596 69.8992 113.685 69.6752 113.749ZM67.4732 113.646C67.2512 113.557 67.0312 113.442 66.8192 113.305L67.2152 112.693C67.3882 112.804 67.5662 112.898 67.7452 112.969L67.4732 113.646ZM70.9772 113.128L70.5742 112.521C70.7392 112.412 70.9072 112.286 71.0782 112.144L71.5432 112.705C71.3502 112.865 71.1622 113.005 70.9772 113.128ZM66.2432 112.865C66.0532 112.696 65.8862 112.52 65.7422 112.353L66.2942 111.877C66.4192 112.022 66.5642 112.173 66.7292 112.32L66.2432 112.865Z" fill="white"/>
<path d="M72.0725 112.228L71.5625 111.707C71.6445 111.627 71.7265 111.544 71.8085 111.457L72.3375 111.958C72.2485 112.051 72.1605 112.141 72.0725 112.228Z" fill="white"/>
<path d="M55.673 0L111.616 10.934C111.07 16.856 106.878 17.859 106.878 17.859C126.468 40.637 89.952 61.867 89.952 61.867L49.844 56.218C49.844 56.218 16.128 31.8 56.492 7.837C56.492 7.837 50.661 4.009 55.673 0Z" fill="#FF994D"/>
<path d="M59.5506 3.37891L107.712 11.5649C107.712 11.5649 90.0096 23.1329 73.6036 19.0279C57.1966 14.9229 59.5506 3.37891 59.5506 3.37891Z" fill="#8699CE"/>
<path d="M44.6013 50.5056L44.3477 51.9414L92.9859 60.5351L93.2396 59.0993L44.6013 50.5056Z" fill="#FE2919"/>
<path d="M81.3316 24.2491C75.1706 24.2491 69.8856 23.0841 65.5106 20.7521C57.7686 16.6261 55.9656 10.3591 55.8926 10.0941L57.2976 9.70508C57.3146 9.76508 59.0426 15.6741 66.2416 19.4901C75.2406 24.2611 89.0036 23.7721 106.04 18.0771L106.502 19.4601C96.9546 22.6521 88.5436 24.2491 81.3316 24.2491Z" fill="#FE2919"/>
<path d="M41.4721 23.2739L41.2695 24.7168L111.398 34.5601L111.6 33.1172L41.4721 23.2739Z" fill="#FE2919"/>
<path d="M38.062 32.3964L37.6992 33.8086L104.078 50.8591L104.441 49.4469L38.062 32.3964Z" fill="#FE2919"/>
<path opacity="0.2" d="M93.0681 15.7684C92.5521 18.4684 85.4331 19.3774 77.1661 17.7984C68.8981 16.2194 62.6161 12.7504 63.1311 10.0504C63.6471 7.35037 70.7661 6.44036 79.0341 8.01936C87.3001 9.59936 93.5831 13.0684 93.0681 15.7684Z" fill="white"/>
<path opacity="0.2" d="M91.0114 15.2561C90.6214 17.2881 85.5584 18.0281 79.6984 16.9091C73.8394 15.7901 69.4034 13.2351 69.7934 11.2031C70.1814 9.17214 75.2454 8.43214 81.1044 9.55114C86.9634 10.6711 91.3984 13.2241 91.0114 15.2561Z" fill="white"/>
<path opacity="0.2" d="M85.2393 13.9115C84.9873 15.2215 81.5373 15.6615 77.5313 14.8965C73.5243 14.1305 70.4783 12.4495 70.7293 11.1395C70.9793 9.83052 74.4293 9.38952 78.4363 10.1555C82.4433 10.9205 85.4873 12.6015 85.2393 13.9115Z" fill="white"/>
</svg>
