<svg width="3084" height="7232" viewBox="0 0 3084 7232" fill="none" xmlns="http://www.w3.org/2000/svg">
<g clip-path="url(#clip0_4030_2)">
<mask id="mask0_4030_2" style="mask-type:luminance" maskUnits="userSpaceOnUse" x="0" y="0" width="3084" height="7232">
<path d="M3084 0H0V7232H3084V0Z" fill="white"/>
</mask>
<g mask="url(#mask0_4030_2)">
<mask id="mask1_4030_2" style="mask-type:alpha" maskUnits="userSpaceOnUse" x="0" y="0" width="3084" height="7232">
<path d="M3084 0H0V7232H3084V0Z" fill="url(#paint0_linear_4030_2)"/>
</mask>
<g mask="url(#mask1_4030_2)">
<path d="M3084 0H0V7232H3084V0Z" fill="white"/>
<path d="M3084 0H0V7232H3084V0Z" fill="white"/>
<path d="M3084 0H0V7232H3084V0Z" fill="white"/>
<path d="M3084 0H0V7232H3084V0Z" fill="white"/>
<path d="M-117.5 1683C812.271 1683 1566 929.271 1566 -0.5C1566 -930.271 812.271 -1684 -117.5 -1684C-1047.27 -1684 -1801 -930.271 -1801 -0.5C-1801 929.271 -1047.27 1683 -117.5 1683Z" fill="url(#paint1_linear_4030_2)"/>
<path d="M2557.57 5678.47C1739.87 5969.19 1312.67 6867.74 1603.39 7685.43C1894.11 8503.13 2792.66 8930.33 3610.35 8639.61C4428.05 8348.89 4855.25 7450.35 4564.53 6632.65C4273.81 5814.95 3375.27 5387.75 2557.57 5678.47Z" fill="url(#paint2_linear_4030_2)"/>
<path d="M1322.33 5070.38C1528.68 4437.42 1182.85 3757.03 549.897 3550.67C-83.0601 3344.31 -763.458 3690.14 -969.813 4323.1C-1176.17 4956.06 -830.34 5636.46 -197.382 5842.81C435.575 6049.17 1115.97 5703.34 1322.33 5070.38Z" fill="url(#paint3_linear_4030_2)"/>
<path d="M3688.8 1890.38C3218.15 1396.67 2436.37 1377.98 1942.66 1848.64C1448.95 2319.3 1430.27 3101.07 1900.92 3594.78C2371.58 4088.49 3153.36 4107.18 3647.06 3636.52C4140.77 3165.86 4159.46 2384.09 3688.8 1890.38Z" fill="url(#paint4_linear_4030_2)"/>
<path d="M3084 0H0V7232H3084V0Z" fill="white" fill-opacity="0.29"/>
</g>
</g>
</g>
<defs>
<linearGradient id="paint0_linear_4030_2" x1="0" y1="0" x2="1353.56" y2="7190.32" gradientUnits="userSpaceOnUse">
<stop offset="1"/>
</linearGradient>
<linearGradient id="paint1_linear_4030_2" x1="-117" y1="1.96257e-06" x2="1200" y2="1159.5" gradientUnits="userSpaceOnUse">
<stop stop-color="white"/>
<stop offset="0.973154" stop-color="#278703"/>
</linearGradient>
<linearGradient id="paint2_linear_4030_2" x1="3084.01" y1="7159" x2="1626.51" y2="7159" gradientUnits="userSpaceOnUse">
<stop stop-color="white"/>
<stop offset="0.973154" stop-color="#278703"/>
</linearGradient>
<linearGradient id="paint3_linear_4030_2" x1="44.9957" y1="3176.99" x2="176.002" y2="4888" gradientUnits="userSpaceOnUse">
<stop stop-color="white"/>
<stop offset="0.973154" stop-color="#278703"/>
</linearGradient>
<linearGradient id="paint4_linear_4030_2" x1="4011.51" y1="2743" x2="2617.01" y2="2743" gradientUnits="userSpaceOnUse">
<stop stop-color="white"/>
<stop offset="0.973154" stop-color="#278703"/>
</linearGradient>
<clipPath id="clip0_4030_2">
<rect width="3084" height="7232" fill="white"/>
</clipPath>
</defs>
</svg>
