<?xml version="1.0" encoding="utf-8"?>
<!-- Generator: Adobe Illustrator 27.5.0, SVG Export Plug-In . SVG Version: 6.00 Build 0)  -->
<svg version="1.1" xmlns="http://www.w3.org/2000/svg" xmlns:xlink="http://www.w3.org/1999/xlink" x="0px" y="0px"
	 viewBox="0 0 512 512" style="enable-background:new 0 0 512 512;" xml:space="preserve">
<g id="_x30_4">
</g>
<g id="_x30_3">
</g>
<g id="_x30_2">
</g>
<g id="_x30_1">
</g>
<g id="PREVIEW">
	<g>
		<g>
			<g>
				<path style="fill:#FFCE33;" d="M453.956,441.735l-103.681-13.211c0,0-15.294-30.195-6.972-36.501
					c8.321-6.306,35.759,21.58,35.759,21.58s-10.026-40.555,0.849-44.637c25.733-9.658,32.663,48.658,32.663,48.658
					s6.523-15.028,14.394-13.561c7.871,1.469,3.824,18.665,3.824,18.665s21.366-25.268,29.912-16.707
					C469.249,414.584,453.956,441.735,453.956,441.735z"/>
				<g style="opacity:0.2;">
					<g>
						<path style="fill:#FFFFFF;" d="M359.905,416.294c0.224-3.322-0.876-6.809-3.63-8.629c-2.152-1.473-4.301-1.563-6.594-1.028
							c-0.444,2.174-0.481,4.529,0.31,6.591C351.885,418.057,356.036,417.702,359.905,416.294z"/>
					</g>
					<g>
						<path style="fill:#FFFFFF;" d="M357.355,404.235c-1.934,0.97-4.285,1.054-6.038-0.428c-1.398-1.145-1.968-2.627-2.198-4.36
							c1.193-0.843,2.593-1.447,4.016-1.396C356.481,398.194,357.267,401.185,357.355,404.235z"/>
					</g>
					<g>
						<path style="fill:#FFFFFF;" d="M391.586,415.829c3.591-0.755,6.933-3.288,7.981-7.459c0.869-3.275,0.275-6.11-1.029-8.935
							c-2.442,0.104-4.953,0.796-6.883,2.478C387.145,405.904,388.853,411.216,391.586,415.829z"/>
					</g>
					<g>
						<path style="fill:#FFFFFF;" d="M396.674,421.636c2.278,1.119,5.18,1.163,7.527-0.665c1.869-1.415,2.753-3.212,3.246-5.308
							c-1.375-0.983-3.039-1.678-4.806-1.582C398.481,414.336,397.149,417.958,396.674,421.636z"/>
					</g>
					<g>
						<path style="fill:#FFFFFF;" d="M372.141,421.872c1.766-1.821,2.7-4.57,1.683-7.365c-0.771-2.214-2.209-3.607-4.052-4.722
							c-1.358,1.007-2.53,2.375-2.984,4.087C365.75,417.907,368.788,420.289,372.141,421.872z"/>
					</g>
					<g>
						<path style="fill:#FFFFFF;" d="M441.793,430.484c1.766-1.822,2.699-4.569,1.684-7.366c-0.772-2.214-2.21-3.607-4.052-4.722
							c-1.359,1.007-2.531,2.375-2.984,4.087C435.403,426.52,438.439,428.901,441.793,430.484z"/>
					</g>
					<g>
						<path style="fill:#FFFFFF;" d="M444.862,430.234c-0.301-4.546,1.186-9.316,4.911-11.809c2.911-2.015,5.816-2.138,8.916-1.404
							c0.6,2.972,0.653,6.196-0.417,9.017C455.71,432.645,450.097,432.161,444.862,430.234z"/>
					</g>
					<g>
						<path style="fill:#FFFFFF;" d="M421.582,407.632c-0.542,2.686-0.087,5.979,1.828,8.472c1.489,1.986,3.129,2.823,4.952,3.19
							c0.582-1.652,0.875-3.602,0.498-5.597C427.943,409.005,424.713,407.831,421.582,407.632z"/>
					</g>
					<g>
						<path style="fill:#FFFFFF;" d="M385.253,371.185c-0.541,2.685-0.085,5.979,1.828,8.473c1.489,1.985,3.131,2.823,4.952,3.19
							c0.583-1.652,0.876-3.602,0.499-5.598C391.614,372.559,388.384,371.384,385.253,371.185z"/>
					</g>
					<g>
						<path style="fill:#FFFFFF;" d="M455.375,406.617c-2.71,0.398-5.657,1.938-7.357,4.581c-1.368,2.072-1.602,3.899-1.333,5.738
							c1.752-0.01,3.686-0.392,5.438-1.42C456.228,413.069,456.244,409.633,455.375,406.617z"/>
					</g>
					<g>
						<path style="fill:#FFFFFF;" d="M391.432,396.742c-3.481,1.064-7.465,0.417-10.081-2.81c-2.096-2.509-2.718-5.336-2.712-8.495
							c2.207-1.093,4.705-1.69,7.095-1.121C391.342,385.706,391.982,391.288,391.432,396.742z"/>
					</g>
				</g>
			</g>
			<g>
				<path style="fill:#FFCE33;" d="M259.675,443.263l92.192-13.21c0,0,13.599-30.197,6.198-36.503
					c-7.398-6.305-31.795,21.582-31.795,21.582s8.915-40.557-0.755-44.639c-22.882-9.658-29.043,48.658-29.043,48.658
					s-5.8-15.028-12.799-13.561c-6.999,1.468-3.399,18.664-3.399,18.664s-18.999-25.27-26.598-16.708
					C246.076,416.109,259.675,443.263,259.675,443.263z"/>
				<g style="opacity:0.2;">
					<g>
						<path style="fill:#FFFFFF;" d="M343.304,417.821c-0.199-3.322,0.779-6.809,3.227-8.631c1.914-1.471,3.825-1.56,5.863-1.025
							c0.395,2.172,0.427,4.528-0.275,6.589C350.435,419.583,346.743,419.229,343.304,417.821z"/>
					</g>
					<g>
						<path style="fill:#FFFFFF;" d="M345.57,405.763c1.718,0.97,3.81,1.054,5.369-0.428c1.243-1.146,1.75-2.627,1.954-4.361
							c-1.061-0.842-2.306-1.447-3.572-1.397C346.348,399.721,345.649,402.712,345.57,405.763z"/>
					</g>
					<g>
						<path style="fill:#FFFFFF;" d="M315.133,417.356c-3.193-0.755-6.164-3.288-7.096-7.46c-0.772-3.274-0.245-6.109,0.915-8.935
							c2.171,0.104,4.405,0.794,6.12,2.477C319.082,407.433,317.562,412.744,315.133,417.356z"/>
					</g>
					<g>
						<path style="fill:#FFFFFF;" d="M310.608,423.162c-2.025,1.12-4.605,1.162-6.693-0.665c-1.662-1.414-2.447-3.213-2.886-5.308
							c1.223-0.983,2.701-1.677,4.274-1.583C309.002,415.862,310.185,419.484,310.608,423.162z"/>
					</g>
					<g>
						<path style="fill:#FFFFFF;" d="M332.423,423.4c-1.57-1.824-2.4-4.57-1.497-7.366c0.686-2.214,1.965-3.608,3.603-4.723
							c1.208,1.007,2.25,2.375,2.653,4.087C338.105,419.435,335.404,421.815,332.423,423.4z"/>
					</g>
					<g>
						<path style="fill:#FFFFFF;" d="M270.489,432.012c-1.569-1.823-2.399-4.57-1.496-7.367c0.686-2.212,1.965-3.607,3.603-4.722
							c1.207,1.007,2.25,2.375,2.653,4.087C276.172,428.045,273.471,430.427,270.489,432.012z"/>
					</g>
					<g>
						<path style="fill:#FFFFFF;" d="M267.762,431.761c0.267-4.545-1.056-9.315-4.367-11.808c-2.589-2.016-5.173-2.139-7.928-1.406
							c-0.534,2.973-0.581,6.197,0.37,9.017C258.115,434.173,263.106,433.688,267.762,431.761z"/>
					</g>
					<g>
						<path style="fill:#FFFFFF;" d="M288.461,409.159c0.481,2.685,0.077,5.978-1.626,8.471c-1.323,1.987-2.782,2.823-4.402,3.19
							c-0.519-1.651-0.779-3.601-0.444-5.597C282.805,410.533,285.677,409.358,288.461,409.159z"/>
					</g>
					<g>
						<path style="fill:#FFFFFF;" d="M320.763,372.712c0.482,2.686,0.077,5.979-1.624,8.471c-1.325,1.988-2.784,2.823-4.403,3.19
							c-0.518-1.652-0.778-3.6-0.444-5.597C315.107,374.086,317.979,372.912,320.763,372.712z"/>
					</g>
					<g>
						<path style="fill:#FFFFFF;" d="M258.412,408.146c2.41,0.396,5.03,1.936,6.542,4.579c1.217,2.073,1.425,3.899,1.185,5.738
							c-1.558-0.01-3.276-0.391-4.836-1.42C257.653,414.597,257.639,411.16,258.412,408.146z"/>
					</g>
					<g>
						<path style="fill:#FFFFFF;" d="M315.27,398.268c3.095,1.066,6.638,0.418,8.964-2.809c1.862-2.51,2.416-5.336,2.41-8.496
							c-1.961-1.092-4.184-1.691-6.308-1.12C315.349,387.232,314.781,392.814,315.27,398.268z"/>
					</g>
				</g>
			</g>
			<g>
				<path style="fill:#FFCE33;" d="M458.421,443.959c0,10.926-45.858,19.784-102.426,19.784c-56.569,0-102.427-8.858-102.427-19.784
					c0-10.925,45.858-19.783,102.427-19.783C412.563,424.176,458.421,433.034,458.421,443.959z"/>
				<path style="opacity:0.3;fill:#FFFFFF;" d="M458.421,443.959c0,10.926-45.858,19.784-102.426,19.784
					c-56.569,0-102.427-8.858-102.427-19.784c0-10.925,45.858-19.783,102.427-19.783
					C412.563,424.176,458.421,433.034,458.421,443.959z"/>
				<path style="fill:#FFCE33;" d="M411.213,447.613c0,6.078-30.925,11.007-69.075,11.007c-38.147,0-69.075-4.929-69.075-11.007
					c0-6.079,30.927-11.008,69.075-11.008C380.288,436.605,411.213,441.534,411.213,447.613z"/>
			</g>
		</g>
		<g>
			<path style="fill:#121A35;" d="M332.288,420.391l7.836,15.308l-11.116-2.733l-2.369,8.701c0,0,24.783,16.447,22.597-11.799
				l-12.756-12.756L332.288,420.391z"/>
			<path style="fill:#121A35;" d="M293.837,418.752v20.137l-5.831-5.924l-9.477,10.051c0,0,16.765,19.473,31.161-4.127
				L293.837,418.752z"/>
			<path style="fill:#8699CE;" d="M441.442,416.382c-10.708,34.922-57.657,32.926-72.045-1.384
				c-5.205,2.383-11.656,5.116-18.741,7.674c10.541,5.06,17.042,16.796,17.042,16.796l-14.942,8.862
				c-1.546-9.352-7.822-17.828-11.81-22.413c-8.469,2.609-17.377,4.708-25.788,5.555c6.626,5.517,10.511,12.521,10.511,12.521
				l-14.942,8.863c-1.451-8.775-7.078-16.779-11.058-21.524c-5.978-0.883-11.24-2.9-15.307-6.443
				c-19.922-17.378-10.935-62.446,31.948-83.949c32.866-16.48,71.368-10.124,87.563-6.261
				c-18.179,23.288-25.278,69.794-6.289,65.543c13.368-2.98,17.676-14.826,19.053-22.807c3.805,4.352,7.471,11.523,3.659,21.138
				c7.311-7.129,16.539-19.753,15.941-37.743C441.683,371.175,449.074,391.482,441.442,416.382z"/>
			<path style="fill:#8699CE;" d="M388.596,387.772l13.216-12.026C401.812,375.746,404.997,396.155,388.596,387.772z"/>
			<g>
				<path style="fill:#121A35;" d="M421.145,437.579c-2.197,0-3.712-0.597-4.583-1.793c-2.556-3.512,2.058-10.495,2.592-11.279
					l1.205,0.82c-1.291,1.898-4.278,7.322-2.618,9.602c0.799,1.099,3.15,1.996,9.809,0.043l0.41,1.398
					C425.216,437.176,422.951,437.579,421.145,437.579z"/>
				<path style="fill:#121A35;" d="M411.572,428.965l-1.252-0.746c1.3-2.181,3.012-3.543,5.09-4.051
					c3.606-0.882,6.973,1.164,7.115,1.252l-0.766,1.24c-0.03-0.017-3.006-1.817-6.014-1.073
					C414.066,426,412.662,427.137,411.572,428.965z"/>
			</g>
			<path style="fill:#121A35;" d="M384.647,414.56c-0.223,0-0.45-0.033-0.677-0.1c-1.439-0.418-2.963-2.178-4.53-5.229l1.297-0.666
				c1.318,2.568,2.645,4.207,3.64,4.496c0.259,0.074,0.472,0.051,0.691-0.079c1.809-1.063,0.359-5.313-0.292-6.719l1.322-0.613
				c0.315,0.677,2.978,6.669-0.292,8.59C385.443,414.452,385.051,414.56,384.647,414.56z"/>
			<path style="fill:#121A35;" d="M392.224,410.622c-0.224,0-0.451-0.033-0.678-0.1c-1.439-0.419-2.963-2.178-4.529-5.229
				l1.297-0.666c1.317,2.567,2.644,4.205,3.639,4.495c0.259,0.077,0.472,0.051,0.693-0.079c1.809-1.063,0.358-5.313-0.292-6.718
				l1.322-0.613c0.314,0.677,2.978,6.668-0.292,8.589C393.02,410.515,392.628,410.622,392.224,410.622z"/>
			<g>
				<path style="fill:#121A35;" d="M423.215,423.781c-0.237-0.363-5.755-8.945-1.425-11.988c0.755-0.531,1.624-0.678,2.509-0.426
					c3.551,1.012,6.768,8.346,7.123,9.179l-1.341,0.572c-0.89-2.086-3.736-7.652-6.182-8.35c-0.468-0.132-0.871-0.064-1.271,0.218
					c-2.643,1.857,0.409,7.849,1.809,10L423.215,423.781z"/>
				<path style="fill:#121A35;" d="M427.479,417.91c0.884,2.114,1.099,4.039,0.48,4.3c-0.619,0.259-1.837-1.248-2.722-3.364
					c-0.885-2.114-1.1-4.039-0.48-4.299C425.377,414.289,426.596,415.795,427.479,417.91z"/>
			</g>
			<path style="fill:#FF994D;" d="M421.098,396.198c-6.866,7.552-15.496,5.519-20.577,3.172
				c11.079-3.936,14.848-14.586,16.116-21.955C420.121,381.401,423.495,387.758,421.098,396.198z"/>
			<path style="fill:#FF994D;" d="M442.951,410.683c-17.406,2.944-19.527-10.016-19.688-15.242
				c6.611-7.449,13.491-19.024,12.974-34.631C441.26,370.373,447.944,388.393,442.951,410.683z"/>
			<path style="fill:#121A35;" d="M408.923,404.826c-4.928,0-8.339-2.706-8.396-2.753l0.92-1.13
				c0.357,0.288,8.839,6.951,18.324-2.896l1.05,1.012C416.534,403.51,412.36,404.826,408.923,404.826z"/>
			<path style="fill:#121A35;" d="M428.715,411.161c-6.497-2.639-6.816-9.881-6.826-10.189l1.457-0.05
				c0.01,0.269,0.308,6.609,5.918,8.887L428.715,411.161z"/>
			<path style="fill:#121A35;" d="M313.992,449.801c-0.224-0.499-1.306-3.066-0.636-4.543c0.216-0.478,0.592-0.811,1.087-0.962
				c0.838-0.26,1.639-0.011,2.324,0.416c-0.142-1.112,0.007-2.201,0.944-2.654c1.028-0.498,2.18-0.064,3.031,0.446
				c0.093-0.778,0.369-1.614,1.082-1.958c1.199-0.578,2.588,0.612,3.528,1.559l-1.034,1.027c-1.369-1.378-1.858-1.271-1.861-1.272
				c-0.207,0.1-0.373,1.068-0.265,2.017l0.226,1.983l-1.452-1.371c-0.545-0.516-1.903-1.467-2.621-1.118
				c-0.347,0.168-0.143,1.893,0.581,3.591l-1.281,0.685c-0.5-0.764-1.832-2.24-2.774-1.957c-0.082,0.025-0.138,0.061-0.188,0.172
				c-0.295,0.65,0.207,2.38,0.639,3.345L313.992,449.801z"/>
			<path style="fill:#121A35;" d="M356.118,445.464c-0.224-0.499-1.306-3.064-0.636-4.541c0.216-0.477,0.592-0.81,1.087-0.963
				c0.838-0.26,1.638-0.012,2.324,0.416c-0.142-1.112,0.008-2.2,0.944-2.653c1.016-0.494,2.148-0.158,2.977,0.255
				c0.095-0.72,0.365-1.501,1.057-1.833c1.208-0.575,2.638,0.649,3.608,1.624l-1.034,1.027c-1.437-1.445-1.94-1.335-1.944-1.336
				c-0.181,0.086-0.334,0.95-0.248,1.75l0.189,1.751l-1.372-1.105c-0.418-0.336-1.791-1.212-2.598-0.82
				c-0.347,0.168-0.143,1.892,0.581,3.591l-1.281,0.684c-0.499-0.764-1.842-2.242-2.774-1.957c-0.081,0.025-0.138,0.062-0.188,0.171
				c-0.297,0.655,0.194,2.351,0.639,3.345L356.118,445.464z"/>
			<path style="fill:#121A35;" d="M339.801,420.371l-0.903-1.145c0.182-0.144,4.509-3.483,9.552-1.136l-0.616,1.322
				C343.6,417.438,339.839,420.341,339.801,420.371z"/>
			<path style="fill:#121A35;" d="M314.078,430.503c-1.946-10.368-16.99-8.595-17.142-8.573l-0.183-1.447
				c0.165-0.021,16.56-1.948,18.757,9.751L314.078,430.503z"/>
			<path style="fill:#121A35;" d="M314.101,425.629c-2.028-6.21-11.626-5.398-11.723-5.389l-0.134-1.451
				c0.441-0.045,10.857-0.914,13.242,6.387L314.101,425.629z"/>
			<path style="fill:#121A35;" d="M346.228,415.44c-0.541-0.218-13.325-5.53-19.441-21.4c-6.142-15.936-3.28-36.336,8.504-60.636
				l1.311,0.637c-11.601,23.921-14.446,43.932-8.456,59.475c5.891,15.285,18.5,20.522,18.626,20.573L346.228,415.44z"/>
			<g>
				<path style="fill:#121A35;" d="M357.629,400.564c-1.202,0-2.245-0.309-3.125-0.925c-4.578-3.21-2.668-13.567-2.585-14.007
					l0.186-0.981l16.975,9.223l-0.696,1.281l-15.194-8.256c-0.452,3.257-0.684,9.561,2.151,11.547
					c1.821,1.276,4.775,0.719,8.781-1.658l0.744,1.254C362.037,399.722,359.617,400.564,357.629,400.564z"/>
				<path style="fill:#121A35;" d="M354.975,389.462l8.748,6.146C363.722,395.608,351.787,402.085,354.975,389.462z"/>
			</g>
			<path style="fill:#121A35;" d="M391.602,387.316l9.385-6.925C400.988,380.392,399.895,392.51,391.602,387.316z"/>
			<g>
				<path style="fill:#8699CE;" d="M273.063,410.148c0,0-10.022,4.837-8.2-7.494C264.863,402.654,253.929,423.777,273.063,410.148z"
					/>
				<path style="fill:#121A35;" d="M263.264,395.401l0.186,3.001l-1.819-3.122c-0.523,0.231-1.096,0.56-1.712,1.008l0.927,2.822
					l-1.611-2.286c-0.396,0.329-0.801,0.69-1.23,1.123c0,0,1.775,10.282,7.093,7.07c5.317-3.212,0.458-9.85,0.458-9.85
					s-0.535-0.382-1.527-0.419l0.814,2.577L263.264,395.401z"/>
			</g>
		</g>
	</g>
	<g>
		<g>
			<path style="fill:#FF994D;" d="M197.917,251.75c0,10.853-33.423,19.653-74.653,19.653c-41.229,0-74.653-8.8-74.653-19.653
				c0-10.855,33.423-19.652,74.653-19.652C164.494,232.098,197.917,240.895,197.917,251.75z"/>
			<path style="opacity:0.2;fill:#FFFFFF;" d="M183.917,253.736c0,6.599-23.497,11.948-52.482,11.948
				c-28.985,0-52.482-5.349-52.482-11.948c0-6.6,23.497-11.949,52.482-11.949C160.42,241.787,183.917,247.136,183.917,253.736z"/>
			<path style="opacity:0.2;fill:#FFFFFF;" d="M81.505,244.26c0,1.365-3.263,2.472-7.289,2.472c-4.026,0-7.289-1.107-7.289-2.472
				c0-1.366,3.263-2.473,7.289-2.473C78.242,241.787,81.505,242.893,81.505,244.26z"/>
			<path style="opacity:0.2;fill:#FFFFFF;" d="M89.523,240.194c0,0.88-1.591,1.593-3.553,1.593c-1.963,0-3.554-0.713-3.554-1.593
				c0-0.879,1.591-1.592,3.554-1.592C87.932,238.602,89.523,239.315,89.523,240.194z"/>
		</g>
		<g>
			<g>
				<path style="fill:#7A4B3C;" d="M88.065,87.101c0,0-13.03,11.298,2.733,16.856c0,0-17.038,17.312-7.835,37.721
					c9.202,20.41,30.796,22.687,30.796,22.687l2.915-3.827c0,0-52.664-22.323-18.219-57.155L88.065,87.101z"/>
				<path style="fill:#121A35;" d="M92.843,103.371c-5.8-1.987-5.518-7.967-4.559-10.852l1.384,0.459
					c-0.094,0.285-2.23,7,3.647,9.014L92.843,103.371z"/>
				<path style="fill:#121A35;" d="M87.461,101.904c-5.999-4.801-0.73-13.196-0.676-13.28l1.228,0.786
					c-0.191,0.299-4.616,7.376,0.359,11.356L87.461,101.904z"/>
				
					<rect x="92.12" y="100.708" transform="matrix(0.2596 -0.9657 0.9657 0.2596 -32.4762 167.8325)" style="fill:#FFCE33;" width="2.186" height="8.775"/>
				
					<rect x="89.74" y="104.279" transform="matrix(0.3733 -0.9277 0.9277 0.3733 -43.6332 152.1885)" style="fill:#FFCE33;" width="2.186" height="8.225"/>
			</g>
			<g>
				<path style="fill:#7A4B3C;" d="M141.823,104.048c0,0,25.694,54.577-21.503,56.673l0.546,4.234c0,0,20.774,4.421,31.798-12.708
					c11.025-17.129-4.737-42.186-4.737-42.186s16.036-4.92,5.011-16.309L141.823,104.048z"/>
				<path style="fill:#121A35;" d="M146.671,108.868l-0.223-1.44c4.298-0.664,3.957-6.147,3.94-6.38l1.454-0.104
					C152.017,103.381,151.16,108.175,146.671,108.868z"/>
				<path style="fill:#121A35;" d="M152.583,107.131l-1.006-1.056c4.274-4.071,1.839-8.695,1.814-8.742l1.281-0.695
					C154.703,96.695,157.656,102.299,152.583,107.131z"/>
				
					<rect x="143.497" y="109.402" transform="matrix(0.9803 -0.1974 0.1974 0.9803 -18.9307 31.0678)" style="fill:#FFCE33;" width="5.762" height="2.187"/>
				
					<rect x="144.842" y="112.728" transform="matrix(0.9532 -0.3024 0.3024 0.9532 -27.4989 50.0139)" style="fill:#FFCE33;" width="5.879" height="2.186"/>
			</g>
			<g>
				<path style="fill:#7A4B3C;" d="M143.554,204.638c0.273,0,18.131-2.138,18.131-2.138s0.82,25.281-4.374,28.105
					c-5.193,2.825,0.82-20.865,0.82-20.865l-13.759-0.911L143.554,204.638z"/>
				
					<rect x="153.337" y="205.306" transform="matrix(0.2398 -0.9708 0.9708 0.2398 -79.9564 310.69)" style="fill:#FFCE33;" width="10.136" height="2.187"/>
			</g>
			<g>
				<path style="fill:#7A4B3C;" d="M96.812,239.807l8.109,16.128c0,0-19.681-2.733-18.223,0.547
					c1.458,3.279,17.576,4.828,27.512,2.733l-13.795-18.223L96.812,239.807z"/>
				
					<rect x="106.975" y="251.099" transform="matrix(0.1153 -0.9933 0.9933 0.1153 -158.9647 334.0666)" style="fill:#FFCE33;" width="2.186" height="10.359"/>
			</g>
			<g>
				<path style="fill:#FE2919;" d="M114.944,160.265l8.747-0.912l-4.374,17.129c0,0,21.686-2.915-1.913,28.064l28.701-1.367
					c0,0,1.367,55.215-50.204,39.726l-10.296-37.721l28.606-27.79l-5.919-8.929L114.944,160.265z"/>
				<path style="fill:#FFFFFF;" d="M101.128,238.076c-3.67,0-6.149-0.369-6.424-0.412l0.448-2.881
					c0.179,0.026,17.974,2.648,30.029-6.965c6.625-5.283,10.365-13.321,11.117-23.892l2.908,0.207
					c-0.813,11.425-4.925,20.165-12.223,25.977C118.533,236.84,107.841,238.076,101.128,238.076z"/>
				<path style="fill:#FFFFFF;" d="M98.125,227.831c-3.716,0-6.22-0.423-6.308-0.438l0.513-2.87
					c1.189,0.212,29.159,4.874,35.32-20.413l2.833,0.69C125.565,224.985,107.766,227.831,98.125,227.831z"/>
				<g>
					<path style="fill:#FFFFFF;" d="M94.593,232.364c-0.241-0.018-0.369-0.03-0.369-0.03l0.074-0.726
						c0.003,0.001,0.124,0.013,0.348,0.029L94.593,232.364z"/>
					<path style="fill:#FFFFFF;" d="M97.476,232.462c-0.246,0-0.457-0.002-0.658-0.005l0.012-0.729
						c0.219,0.003,0.451,0.004,0.695,0.005l0.036,0.729C97.532,232.462,97.504,232.462,97.476,232.462z M98.306,232.456
						l-0.012-0.729c0.236-0.004,0.48-0.009,0.733-0.017l0.022,0.729C98.793,232.446,98.545,232.452,98.306,232.456z M96.076,232.439
						c-0.276-0.008-0.525-0.019-0.744-0.03l0.036-0.728c0.215,0.01,0.458,0.021,0.73,0.029L96.076,232.439z M99.793,232.412
						l-0.032-0.729l0.733-0.037l0.041,0.728L99.793,232.412z M101.276,232.325l-0.053-0.727l0.731-0.058l0.062,0.727
						L101.276,232.325z M102.757,232.197l-0.073-0.726c0.24-0.024,0.482-0.05,0.729-0.079l0.083,0.725
						C103.247,232.145,103,232.172,102.757,232.197z M104.233,232.026l-0.094-0.723c0.239-0.031,0.481-0.064,0.726-0.1l0.105,0.722
						C104.722,231.961,104.477,231.995,104.233,232.026z M105.705,231.814l-0.115-0.72c0.239-0.038,0.479-0.079,0.722-0.121
						l0.126,0.718C106.192,231.734,105.948,231.774,105.705,231.814z M107.169,231.556l-0.137-0.716
						c0.237-0.045,0.477-0.093,0.717-0.144l0.149,0.714C107.654,231.46,107.411,231.509,107.169,231.556z M108.624,231.252
						l-0.16-0.711c0.236-0.053,0.474-0.109,0.713-0.167l0.171,0.709C109.105,231.142,108.865,231.198,108.624,231.252z
						 M110.07,230.9l-0.185-0.705c0.235-0.061,0.47-0.125,0.706-0.191l0.197,0.702C110.549,230.773,110.309,230.838,110.07,230.9z
						 M111.503,230.499l-0.209-0.698c0.232-0.07,0.465-0.142,0.699-0.216l0.221,0.694
						C111.976,230.355,111.739,230.429,111.503,230.499z M112.92,230.047l-0.234-0.69c0.23-0.078,0.46-0.159,0.689-0.241
						l0.247,0.686C113.388,229.886,113.154,229.968,112.92,230.047z M114.321,229.54l-0.262-0.681
						c0.227-0.087,0.453-0.176,0.679-0.269l0.274,0.676C114.782,229.36,114.551,229.452,114.321,229.54z M115.7,228.979
						l-0.289-0.669c0.223-0.096,0.445-0.195,0.666-0.296l0.304,0.663C116.154,228.78,115.927,228.88,115.7,228.979z
						 M117.055,228.359l-0.317-0.656c0.218-0.105,0.436-0.214,0.653-0.325l0.332,0.648
						C117.501,228.14,117.278,228.251,117.055,228.359z M118.382,227.679l-0.348-0.641c0.213-0.116,0.426-0.234,0.637-0.355
						l0.361,0.633C118.817,227.44,118.6,227.561,118.382,227.679z M119.677,226.939l-0.378-0.623
						c0.207-0.126,0.413-0.253,0.619-0.385l0.392,0.614C120.1,226.679,119.889,226.81,119.677,226.939z M120.934,226.136
						l-0.407-0.604c0.201-0.135,0.4-0.273,0.598-0.414l0.423,0.594C121.345,225.856,121.14,225.997,120.934,226.136z
						 M122.149,225.27l-0.438-0.583c0.193-0.145,0.385-0.294,0.576-0.445l0.452,0.572
						C122.544,224.969,122.348,225.121,122.149,225.27z M123.318,224.341l-0.469-0.559c0.185-0.155,0.369-0.313,0.55-0.475
						l0.484,0.545C123.697,224.02,123.508,224.182,123.318,224.341z M124.436,223.351l-0.498-0.532
						c0.176-0.165,0.351-0.333,0.523-0.504l0.513,0.519C124.796,223.008,124.617,223.181,124.436,223.351z M125.497,222.3
						l-0.527-0.504c0.166-0.174,0.331-0.352,0.494-0.532l0.541,0.488C125.837,221.938,125.668,222.12,125.497,222.3z
						 M126.498,221.19l-0.555-0.473c0.156-0.184,0.311-0.37,0.463-0.559l0.568,0.456C126.818,220.81,126.659,221.001,126.498,221.19
						z M127.434,220.025l-0.581-0.439c0.146-0.192,0.289-0.388,0.432-0.586l0.592,0.425
						C127.731,219.628,127.583,219.828,127.434,220.025z M128.302,218.811l-0.605-0.406c0.134-0.2,0.267-0.403,0.397-0.609
						l0.615,0.391C128.576,218.398,128.44,218.605,128.302,218.811z M129.101,217.55l-0.626-0.373
						c0.123-0.207,0.244-0.418,0.363-0.63l0.636,0.356C129.352,217.122,129.227,217.337,129.101,217.55z M129.829,216.246
						l-0.646-0.338c0.112-0.213,0.221-0.429,0.329-0.648l0.654,0.32C130.056,215.806,129.943,216.027,129.829,216.246z
						 M130.486,214.906l-0.663-0.304c0.1-0.219,0.199-0.441,0.295-0.665l0.67,0.288
						C130.688,214.455,130.588,214.682,130.486,214.906z M131.072,213.534l-0.678-0.269c0.089-0.224,0.176-0.45,0.261-0.68
						l0.684,0.253C131.251,213.073,131.163,213.305,131.072,213.534z M131.588,212.136l-0.689-0.236
						c0.078-0.228,0.154-0.458,0.228-0.691l0.695,0.22C131.746,211.667,131.669,211.903,131.588,212.136z M132.037,210.715
						l-0.7-0.203c0.067-0.231,0.132-0.465,0.196-0.702l0.704,0.188C132.172,210.24,132.105,210.479,132.037,210.715z
						 M132.421,209.276l-0.708-0.172c0.057-0.234,0.112-0.471,0.165-0.711l0.712,0.157
						C132.536,208.795,132.479,209.037,132.421,209.276z M132.743,207.823l-0.715-0.143c0.047-0.237,0.093-0.475,0.135-0.716
						l0.718,0.127C132.837,207.337,132.791,207.581,132.743,207.823z M133.004,206.358l-0.72-0.114
						c0.038-0.239,0.074-0.48,0.108-0.723l0.722,0.103C133.079,205.87,133.043,206.115,133.004,206.358z"/>
					<polygon style="fill:#FFFFFF;" points="133.213,204.862 132.49,204.774 132.531,204.415 133.256,204.496 					"/>
				</g>
				<path style="fill:#FFFFFF;" d="M104.73,242.15c-0.25-0.002-0.494-0.004-0.734-0.009l0.014-0.729l0.725,0.009L104.73,242.15z
					 M105.465,242.149l-0.008-0.729c0.238-0.003,0.48-0.006,0.725-0.012l0.018,0.729
					C105.951,242.143,105.706,242.147,105.465,242.149z M103.261,242.123l-0.733-0.03l0.034-0.729l0.724,0.03L103.261,242.123z
					 M106.934,242.114l-0.028-0.729c0.239-0.009,0.48-0.02,0.724-0.033l0.038,0.728C107.42,242.094,107.175,242.105,106.934,242.114
					z M101.795,242.052c-0.251-0.015-0.496-0.033-0.733-0.051l0.056-0.727c0.233,0.018,0.474,0.035,0.721,0.05L101.795,242.052z
					 M108.402,242.037l-0.05-0.728c0.238-0.016,0.479-0.035,0.723-0.055l0.06,0.727C108.888,242.001,108.644,242.02,108.402,242.037
					z M100.331,241.939c-0.256-0.023-0.5-0.047-0.732-0.073l0.078-0.725c0.228,0.024,0.468,0.049,0.719,0.072L100.331,241.939z
					 M109.866,241.915l-0.072-0.726c0.238-0.023,0.479-0.049,0.72-0.077l0.083,0.725
					C110.352,241.864,110.108,241.89,109.866,241.915z M98.869,241.782c-0.265-0.033-0.509-0.066-0.729-0.098l0.104-0.722
					c0.217,0.031,0.455,0.063,0.716,0.096L98.869,241.782z M111.326,241.746l-0.095-0.723c0.237-0.031,0.476-0.064,0.717-0.1
					l0.105,0.721C111.81,241.681,111.567,241.715,111.326,241.746z M97.41,241.572c-0.476-0.079-0.733-0.132-0.733-0.132
					l0.149-0.714c0.004,0.001,0.25,0.052,0.703,0.127L97.41,241.572z M112.781,241.532l-0.118-0.72
					c0.236-0.039,0.474-0.08,0.712-0.123l0.131,0.717C113.264,241.45,113.021,241.492,112.781,241.532z M114.228,241.268
					l-0.143-0.715c0.235-0.047,0.471-0.096,0.708-0.147l0.154,0.712C114.707,241.17,114.467,241.221,114.228,241.268z
					 M115.665,240.955l-0.168-0.709c0.233-0.055,0.467-0.113,0.702-0.173l0.181,0.706
					C116.141,240.84,115.903,240.899,115.665,240.955z M117.091,240.59l-0.194-0.702c0.231-0.064,0.463-0.13,0.695-0.199
					l0.206,0.699C117.563,240.458,117.327,240.525,117.091,240.59z M118.502,240.172l-0.221-0.694
					c0.229-0.073,0.458-0.148,0.687-0.225l0.233,0.691C118.969,240.022,118.735,240.098,118.502,240.172z M119.896,239.699
					l-0.248-0.686c0.225-0.082,0.451-0.166,0.677-0.253l0.261,0.681C120.356,239.53,120.126,239.615,119.896,239.699z
					 M121.271,239.169l-0.276-0.675c0.222-0.091,0.443-0.184,0.665-0.28l0.29,0.669
					C121.724,238.981,121.498,239.077,121.271,239.169z M122.622,238.582l-0.305-0.662c0.217-0.1,0.435-0.203,0.651-0.309
					l0.319,0.655C123.066,238.374,122.844,238.48,122.622,238.582z M123.947,237.937l-0.334-0.648
					c0.213-0.109,0.426-0.222,0.638-0.337l0.348,0.641C124.382,237.71,124.165,237.825,123.947,237.937z M125.242,237.233
					l-0.363-0.632c0.208-0.119,0.415-0.241,0.621-0.366l0.377,0.624C125.665,236.987,125.454,237.111,125.242,237.233z
					 M126.503,236.47l-0.392-0.615c0.202-0.128,0.402-0.259,0.603-0.394l0.406,0.605
					C126.915,236.204,126.709,236.338,126.503,236.47z M127.728,235.648l-0.421-0.596c0.196-0.138,0.39-0.279,0.583-0.422
					l0.435,0.585C128.127,235.363,127.928,235.507,127.728,235.648z M128.912,234.769l-0.449-0.574
					c0.188-0.147,0.376-0.297,0.563-0.45l0.461,0.564C129.295,234.465,129.104,234.619,128.912,234.769z M130.051,233.835
					l-0.476-0.553c0.181-0.155,0.36-0.314,0.539-0.476l0.49,0.54C130.421,233.512,130.237,233.674,130.051,233.835z
					 M131.145,232.845l-0.502-0.528c0.173-0.165,0.345-0.332,0.517-0.502l0.514,0.517
					C131.498,232.505,131.322,232.676,131.145,232.845z M132.188,231.804l-0.527-0.504c0.165-0.172,0.329-0.348,0.491-0.526
					l0.539,0.491C132.525,231.447,132.357,231.626,132.188,231.804z M133.181,230.713l-0.551-0.478
					c0.156-0.181,0.311-0.363,0.465-0.549l0.561,0.465C133.499,230.341,133.341,230.529,133.181,230.713z M134.12,229.577
					l-0.572-0.451c0.147-0.188,0.294-0.378,0.439-0.571l0.582,0.438C134.421,229.191,134.271,229.386,134.12,229.577z
					 M135.006,228.4l-0.593-0.425c0.139-0.194,0.276-0.391,0.412-0.59l0.603,0.41C135.289,227.999,135.148,228.201,135.006,228.4z
					 M135.836,227.183l-0.611-0.398c0.13-0.2,0.259-0.403,0.386-0.608l0.619,0.385C136.1,226.771,135.969,226.978,135.836,227.183z
					 M136.611,225.931l-0.628-0.37c0.121-0.206,0.241-0.414,0.359-0.625l0.636,0.357
					C136.857,225.508,136.735,225.721,136.611,225.931z M137.332,224.648l-0.643-0.344c0.112-0.21,0.224-0.424,0.333-0.64
					l0.649,0.331C137.561,224.215,137.447,224.432,137.332,224.648z M137.999,223.336l-0.656-0.317
					c0.104-0.215,0.206-0.433,0.308-0.652l0.662,0.305C138.21,222.895,138.105,223.117,137.999,223.336z M138.614,221.999
					l-0.668-0.292c0.096-0.219,0.19-0.44,0.282-0.664l0.674,0.278C138.808,221.55,138.711,221.776,138.614,221.999z
					 M139.178,220.641l-0.679-0.267c0.088-0.223,0.174-0.447,0.259-0.674l0.683,0.255
					C139.354,220.186,139.267,220.415,139.178,220.641z M139.692,219.265l-0.688-0.243c0.08-0.226,0.158-0.453,0.235-0.683
					l0.691,0.23C139.853,218.803,139.773,219.035,139.692,219.265z M140.158,217.871l-0.695-0.22
					c0.072-0.229,0.143-0.458,0.213-0.691l0.698,0.209C140.303,217.406,140.231,217.64,140.158,217.871z M140.578,216.464
					l-0.701-0.198c0.065-0.23,0.128-0.463,0.191-0.697l0.704,0.188C140.708,215.995,140.644,216.23,140.578,216.464z
					 M140.955,215.045l-0.707-0.177c0.058-0.232,0.115-0.466,0.17-0.703l0.71,0.166C141.072,214.572,141.014,214.81,140.955,215.045
					z M141.29,213.616l-0.712-0.156c0.051-0.234,0.101-0.47,0.15-0.708l0.714,0.146C141.393,213.139,141.342,213.378,141.29,213.616
					z M141.585,212.18l-0.716-0.138c0.045-0.235,0.089-0.472,0.131-0.711l0.718,0.127C141.674,211.7,141.63,211.941,141.585,212.18z
					 M141.841,210.735l-0.72-0.118l0.113-0.715l0.721,0.109L141.841,210.735z M142.061,209.286l-0.722-0.1l0.096-0.719l0.723,0.093
					L142.061,209.286z M142.246,207.832l-0.724-0.084l0.08-0.72l0.725,0.076L142.246,207.832z M142.399,206.374l-0.726-0.067
					l0.063-0.722l0.727,0.059L142.399,206.374z M142.521,204.913l-0.727-0.052l0.03-0.43l0.728,0.047L142.521,204.913z"/>
			</g>
			<g>
				<path style="fill:#7A4B3C;" d="M116.766,158.807l-1.549-8.656c0,0-24.875,12.391-34.259,1.458
					c-9.385-10.933,9.748-37.994,23.143-47.652l33.985,4.92l-8.656,21.867c0,0,12.118-1.184,13.211,4.738
					c1.093,5.923-8.109,11.298-19.954,5.285l-2.916,18.04H116.766z"/>
				<g>
					
						<rect x="111.937" y="96.285" transform="matrix(0.2487 -0.9686 0.9686 0.2487 -28.0181 198.2154)" style="fill:#FFCE33;" width="3.644" height="41.766"/>
					<g>
						
							<rect x="93.156" y="111.701" transform="matrix(0.2485 -0.9686 0.9686 0.2485 -37.9935 175.1608)" style="fill:#FE2919;" width="1.458" height="0.729"/>
						<path style="fill:#FE2919;" d="M131.653,122.515l-1.446-0.372l0.362-1.412l1.446,0.371L131.653,122.515z M128.761,121.772
							l-1.446-0.371l0.362-1.412l1.446,0.371L128.761,121.772z M125.869,121.03l-1.446-0.372l0.363-1.412l1.445,0.372
							L125.869,121.03z M122.977,120.288l-1.446-0.372l0.362-1.412l1.446,0.371L122.977,120.288z M120.085,119.544l-1.446-0.371
							l0.363-1.412l1.446,0.371L120.085,119.544z M117.193,118.802l-1.446-0.371l0.363-1.413l1.446,0.372L117.193,118.802z
							 M114.301,118.06l-1.446-0.371l0.362-1.412l1.446,0.371L114.301,118.06z M111.409,117.317l-1.446-0.371l0.362-1.413
							l1.446,0.372L111.409,117.317z M108.517,116.575l-1.446-0.372l0.363-1.413l1.446,0.372L108.517,116.575z M105.625,115.832
							l-1.446-0.371l0.362-1.413l1.446,0.372L105.625,115.832z M102.733,115.089l-1.446-0.371l0.362-1.413l1.446,0.371
							L102.733,115.089z M99.84,114.347l-1.446-0.372l0.363-1.412l1.446,0.372L99.84,114.347z M96.949,113.604l-1.446-0.372
							l0.362-1.412l1.446,0.372L96.949,113.604z"/>
						
							<rect x="132.904" y="121.906" transform="matrix(0.2492 -0.9684 0.9684 0.2492 -18.0828 221.2169)" style="fill:#FE2919;" width="1.458" height="0.729"/>
					</g>
				</g>
				<g>
					
						<rect x="114.648" y="91.923" transform="matrix(0.178 -0.984 0.984 0.178 -14.7394 206.8967)" style="fill:#FFCE33;" width="3.644" height="40.695"/>
					<g>
						
							<rect x="96.077" y="108.349" transform="matrix(0.1783 -0.984 0.984 0.1783 -27.4277 184.5828)" style="fill:#FE2919;" width="1.458" height="0.729"/>
						<path style="fill:#FE2919;" d="M134.215,116.222l-1.43-0.259l0.259-1.434l1.43,0.259L134.215,116.222z M131.355,115.704
							l-1.43-0.258l0.26-1.435l1.43,0.259L131.355,115.704z M128.495,115.187l-1.43-0.258l0.259-1.435l1.43,0.258L128.495,115.187z
							 M125.635,114.669l-1.43-0.259l0.259-1.434l1.431,0.258L125.635,114.669z M122.775,114.152l-1.43-0.259l0.259-1.434
							l1.43,0.258L122.775,114.152z M119.915,113.635l-1.43-0.259l0.26-1.435l1.43,0.259L119.915,113.635z M117.055,113.117
							l-1.43-0.258l0.26-1.435l1.43,0.259L117.055,113.117z M114.195,112.6l-1.43-0.258l0.259-1.435l1.43,0.259L114.195,112.6z
							 M111.335,112.082l-1.43-0.259l0.26-1.434l1.43,0.258L111.335,112.082z M108.475,111.565l-1.43-0.259l0.259-1.434l1.431,0.259
							L108.475,111.565z M105.615,111.048l-1.43-0.259l0.259-1.435l1.43,0.259L105.615,111.048z M102.755,110.53l-1.43-0.259
							l0.259-1.434l1.43,0.258L102.755,110.53z M99.895,110.013l-1.43-0.258l0.26-1.435l1.43,0.259L99.895,110.013z"/>
						
							<rect x="135.405" y="115.463" transform="matrix(0.1782 -0.984 0.984 0.1782 -2.0989 229.1422)" style="fill:#FE2919;" width="1.458" height="0.729"/>
					</g>
				</g>
				<g>
					<path style="fill:#121A35;" d="M97.169,139.206c-3.225,0.001-6.252-0.489-6.586-2.269c-0.18-0.959,0.193-1.546,0.539-1.869
						c1.222-1.146,4.086-0.719,5.443-0.433l2.083-4.83l1.339,0.577l-2.57,5.96l-0.603-0.154c-1.508-0.383-4.044-0.669-4.695-0.056
						c-0.056,0.053-0.173,0.162-0.103,0.537c0.211,1.124,5.35,1.395,11.233,0.64c-0.31-0.539-0.714-1.03-1.076-1.073
						c-0.302-0.025-0.725,0.317-1.154,0.968l-1.218-0.802c0.776-1.18,1.628-1.721,2.544-1.614c1.664,0.198,2.57,2.589,2.668,2.861
						l0.302,0.839l-0.882,0.129C102.988,138.829,100.002,139.206,97.169,139.206z"/>
					<g>
						<path style="fill:#FF994D;" d="M113.532,143.295c0,1.674-1.938,3.03-4.328,3.03c-2.391,0-4.328-1.356-4.328-3.03
							c0-1.673,1.938-3.029,4.328-3.029C111.594,140.266,113.532,141.622,113.532,143.295z"/>
						<g>
							<path style="fill:#121A35;" d="M104.428,144.662c-0.43,0-0.707-0.022-0.753-0.026l0.124-1.452
								c0.043,0.002,4.288,0.33,6.096-1.93c0.969-1.212,1.086-3.019,0.345-5.37l1.391-0.439c0.896,2.846,0.694,5.107-0.601,6.723
								C109.245,144.395,105.92,144.662,104.428,144.662z"/>
							<path style="fill:#121A35;" d="M110.182,137.311l-1.045-1.017c0.892-0.915,3.227-2.217,5.68-0.582l-0.809,1.213
								C111.938,135.545,110.252,137.238,110.182,137.311z"/>
						</g>
					</g>
					<polygon style="fill:#121A35;" points="89.836,121.366 99.317,121.906 90.12,124.268 					"/>
					<polygon style="fill:#121A35;" points="102.422,119.073 111.449,122.635 101.771,121.914 					"/>
					<path style="fill:#FFCE33;" d="M136.236,143.264c-0.277,1.067-2.515,1.41-4.999,0.764c-2.484-0.646-4.273-2.034-3.996-3.101
						c0.277-1.067,2.515-1.41,4.999-0.765C134.725,140.809,136.514,142.197,136.236,143.264z"/>
					<g>
						<path style="fill:#121A35;" d="M104.485,134.426c-0.083,0-0.169-0.003-0.256-0.009c-0.899-0.068-1.658-0.476-2.194-1.181
							c-1.624-2.133-0.84-6.406-0.745-6.886l1.431,0.282c-0.221,1.128-0.567,4.354,0.476,5.722c0.288,0.378,0.651,0.572,1.142,0.608
							c2.849,0.214,3.589-6.475,3.596-6.543l0.07-0.709l4.534,0.342l-0.109,1.454l-3.137-0.237
							C108.995,129.213,107.88,134.426,104.485,134.426z"/>
						
							<rect x="109.298" y="127.054" transform="matrix(0.2374 -0.9714 0.9714 0.2374 -41.2024 205.0869)" style="fill:#121A35;" width="1.458" height="3.465"/>
					</g>
					<g>
						<path style="fill:#121A35;" d="M94.28,133.667c-0.084,0-0.169-0.003-0.256-0.01c-0.899-0.068-1.657-0.476-2.193-1.18
							c-1.265-1.662-1.069-4.623-0.875-6.077l-2.898-0.214l0.107-1.454l4.51,0.334l-0.158,0.807
							c-0.221,1.128-0.567,4.354,0.475,5.723c0.288,0.378,0.651,0.571,1.142,0.608c0.044,0.003,0.089,0.005,0.133,0.005
							c2.738,0,3.458-6.481,3.464-6.548l1.451,0.143C99.149,126.131,98.362,133.667,94.28,133.667z"/>
						
							<rect x="88.471" y="127.119" transform="matrix(0.9972 -0.075 0.075 0.9972 -9.3379 7.1142)" style="fill:#121A35;" width="3.105" height="1.458"/>
					</g>
					<path style="fill:#121A35;" d="M125.538,140.226l0.352-1.916c0.03-0.167,0.811-4.093,6.18-5.184
						c5.598-1.137,6.559,3.222,6.568,3.266l-1.428,0.293c-0.067-0.3-0.774-2.957-4.85-2.13c-1.933,0.393-3.137,1.202-3.88,1.992
						c0.614-0.196,1.198-0.25,1.754-0.159c1.255,0.205,1.846,1.068,1.909,1.165l-1.224,0.792l0.612-0.396l-0.605,0.406
						c-0.013-0.018-0.315-0.441-0.957-0.534c-0.781-0.11-1.788,0.298-2.908,1.19L125.538,140.226z"/>
				</g>
			</g>
			<g>
				<path style="fill:#FFCE33;" d="M114.944,154.434h7.289l-2.095,4.92l3.553-1.093c0,0-7.471,14.305-10.66,1.093l2.826,0.341
					L114.944,154.434z"/>
				<g>
					
						<rect x="115.308" y="155.349" transform="matrix(0.0241 -0.9997 0.9997 0.0241 -42.6069 267.414)" style="fill:#FFFFFF;" width="0.729" height="0.364"/>
					<path style="fill:#FFFFFF;" d="M120.181,156.002l-0.722-0.017l0.018-0.729l0.722,0.017L120.181,156.002z M118.736,155.968
						l-0.723-0.017l0.018-0.729l0.723,0.017L118.736,155.968z M117.291,155.934l-0.723-0.017l0.018-0.729l0.723,0.017
						L117.291,155.934z"/>
					
						<rect x="120.73" y="155.477" transform="matrix(0.0241 -0.9997 0.9997 0.0241 -37.4443 272.9596)" style="fill:#FFFFFF;" width="0.729" height="0.364"/>
				</g>
				<g>
					
						<rect x="115.674" y="156.859" transform="matrix(0.0617 -0.9981 0.9981 0.0617 -47.8667 263.1644)" style="fill:#FFFFFF;" width="0.729" height="0.364"/>
					<path style="fill:#FFFFFF;" d="M119.187,157.6l-0.747-0.046l0.045-0.727l0.748,0.046L119.187,157.6z M117.692,157.508
						l-0.747-0.046l0.045-0.727l0.747,0.046L117.692,157.508z"/>
					
						<rect x="119.773" y="157.11" transform="matrix(0.0617 -0.9981 0.9981 0.0617 -44.2706 267.4918)" style="fill:#FFFFFF;" width="0.729" height="0.364"/>
				</g>
				<g>
					
						<rect x="116.034" y="158.654" transform="matrix(0.1621 -0.9868 0.9868 0.1621 -59.2037 247.9517)" style="fill:#FFFFFF;" width="0.729" height="0.365"/>
					
						<rect x="117.518" y="158.64" transform="matrix(0.1624 -0.9867 0.9867 0.1624 -58.2347 249.5547)" style="fill:#FFFFFF;" width="0.728" height="0.88"/>
					
						<rect x="119" y="159.142" transform="matrix(0.1621 -0.9868 0.9868 0.1621 -57.1997 251.2861)" style="fill:#FFFFFF;" width="0.729" height="0.365"/>
				</g>
				<g>
					<path style="fill:#FFFFFF;" d="M114.623,160.558c-0.196-0.156-0.302-0.263-0.302-0.263l0.515-0.516
						c0.007,0.007,0.092,0.09,0.242,0.21L114.623,160.558z"/>
					<path style="fill:#FFFFFF;" d="M118.043,161.744l-0.044-0.728c0.206-0.012,0.413-0.044,0.614-0.093l0.173,0.708
						C118.543,161.691,118.293,161.729,118.043,161.744z M117.294,161.722c-0.255-0.029-0.5-0.081-0.731-0.147l0.201-0.7
						c0.194,0.056,0.4,0.099,0.614,0.124L117.294,161.722z M119.495,161.393l-0.289-0.669c0.185-0.08,0.371-0.177,0.56-0.294
						l0.385,0.619C119.929,161.186,119.71,161.3,119.495,161.393z M115.869,161.32c-0.24-0.108-0.458-0.226-0.648-0.343l0.381-0.621
						c0.166,0.102,0.356,0.205,0.566,0.299L115.869,161.32z M120.746,160.624l-0.459-0.566c0.16-0.129,0.321-0.274,0.482-0.435
						l0.516,0.516C121.104,160.318,120.925,160.479,120.746,160.624z"/>
					<path style="fill:#FFFFFF;" d="M121.78,159.599l-0.557-0.47c0.074-0.087,0.147-0.178,0.221-0.273l0.574,0.448
						C121.939,159.407,121.86,159.504,121.78,159.599z"/>
				</g>
				<g>
					<path style="fill:#FFFFFF;" d="M113.922,161.898c-0.138-0.205-0.209-0.338-0.209-0.338l0.642-0.345
						c0.004,0.008,0.063,0.115,0.172,0.276L113.922,161.898z"/>
					<path style="fill:#FFFFFF;" d="M117.322,163.996c-0.178,0-0.351-0.015-0.518-0.041l0.116-0.72
						c0.185,0.03,0.379,0.041,0.583,0.026l0.051,0.728C117.476,163.994,117.398,163.996,117.322,163.996z M118.287,163.856
						l-0.202-0.7c0.183-0.053,0.371-0.125,0.565-0.219l0.317,0.656C118.74,163.703,118.511,163.792,118.287,163.856z
						 M116.085,163.753c-0.222-0.089-0.442-0.204-0.654-0.341l0.396-0.612c0.173,0.111,0.351,0.205,0.53,0.276L116.085,163.753z
						 M119.589,163.235l-0.403-0.607c0.165-0.109,0.333-0.235,0.504-0.377l0.465,0.561
						C119.962,162.972,119.774,163.112,119.589,163.235z M114.855,162.972c-0.19-0.169-0.357-0.345-0.501-0.512l0.552-0.476
						c0.125,0.145,0.27,0.296,0.435,0.443L114.855,162.972z"/>
					<path style="fill:#FFFFFF;" d="M120.683,162.335l-0.51-0.521c0.082-0.08,0.164-0.163,0.246-0.25l0.529,0.501
						C120.859,162.158,120.771,162.248,120.683,162.335z"/>
				</g>
			</g>
			<g>
				<path style="fill:#FF994D;" d="M104.284,50.108l55.943,10.934c-0.546,5.922-4.738,6.925-4.738,6.925
					c19.59,22.778-16.926,44.008-16.926,44.008l-40.108-5.649c0,0-33.716-24.418,6.648-48.381
					C105.104,57.944,99.272,54.117,104.284,50.108z"/>
				<path style="fill:#8699CE;" d="M108.161,53.487l48.161,8.186c0,0-17.702,11.568-34.108,7.463
					C105.807,65.031,108.161,53.487,108.161,53.487z"/>
				
					<rect x="116.668" y="80.936" transform="matrix(0.174 -0.9848 0.9848 0.174 -7.0466 202.8606)" style="fill:#FE2919;" width="1.458" height="49.389"/>
				<path style="fill:#FE2919;" d="M129.942,74.357c-6.161,0-11.446-1.165-15.821-3.497c-7.742-4.126-9.545-10.393-9.618-10.658
					l1.405-0.389c0.017,0.06,1.745,5.969,8.944,9.785c8.999,4.771,22.762,4.282,39.798-1.413l0.462,1.383
					C145.565,72.76,137.154,74.357,129.942,74.357z"/>
				
					<rect x="124.314" y="43.614" transform="matrix(0.139 -0.9903 0.9903 0.139 29.4105 191.8697)" style="fill:#FE2919;" width="1.457" height="70.815"/>
				
					<rect x="118.945" y="57.472" transform="matrix(0.2488 -0.9686 0.9686 0.2488 1.0496 184.8283)" style="fill:#FE2919;" width="1.458" height="68.531"/>
				<path style="opacity:0.2;fill:#FFFFFF;" d="M141.679,65.877c-0.516,2.7-7.635,3.609-15.902,2.03
					c-8.268-1.579-14.55-5.048-14.035-7.748c0.516-2.7,7.635-3.61,15.903-2.031C135.911,59.708,142.194,63.177,141.679,65.877z"/>
				<path style="opacity:0.2;fill:#FFFFFF;" d="M139.622,65.364c-0.39,2.032-5.453,2.772-11.313,1.653
					c-5.859-1.119-10.295-3.674-9.905-5.706c0.388-2.031,5.452-2.771,11.311-1.652C135.574,60.779,140.009,63.332,139.622,65.364z"
					/>
				<path style="opacity:0.2;fill:#FFFFFF;" d="M133.85,64.019c-0.252,1.31-3.702,1.75-7.708,0.985
					c-4.007-0.766-7.053-2.447-6.802-3.757c0.25-1.309,3.7-1.75,7.707-0.984C131.054,61.028,134.098,62.709,133.85,64.019z"/>
			</g>
		</g>
	</g>
	<g>
		<g>
			<g>
				<g>
					<path style="fill:#7A4B3C;" d="M418.516,261.534l-100.845-3.136c-19.753-35.937-3.572-38.413,8.444-58.505
						c12.016-20.092-4.483-38.534-4.483-38.534L257.65,126.52l10.607-6.442l78.723,30.212l-37.355-40.755l6.989-2.673l42.645,41.933
						l-20.662-33.032l14.565-8.901l13.177,41.933l20.531-47.689l8.792,6.201l-29.323,50.026l31.799-14.792l19.326-30.646
						l10.885,1.457l-19.491,26.208l53.326-32.842l10.818,17.615l-94.945,31.278C378.057,155.612,418.8,215.899,418.516,261.534z"/>
					<path style="fill:#121A35;" d="M402.027,225.864c-9.656-49.875-28.775-64.354-28.967-64.495l0.858-1.178
						c0.802,0.583,19.757,14.867,29.541,65.395L402.027,225.864z"/>
					<path style="fill:#121A35;" d="M398.73,242.361l-1.451-0.142c3.754-38.435-25.601-74.112-25.898-74.468l1.119-0.934
						C372.801,167.179,402.542,203.326,398.73,242.361z"/>
				</g>
				<g>
					<path style="fill:#9E9E0D;" d="M479.929,119.865c2.607-1.913,5.795-4.843,4.875-7.209c-1.467-3.766-10.681,2.068-11.118,2.352
						c0.686-0.85,20.384-25.129-3.535-14.542c4.332-5.027,5.67-10.26-1.862-13.547c-6.648-2.788-16.3-0.857-22.306,2.36
						c-0.275,0.163-0.609,0.352-0.97,0.566c0.824-2.746,0.343-5.414-2.677-6.787c-2.813-1.364-6.598-1.586-10.27-0.823
						c1.716-6.28,0.009-12.011-8.604-13.976c-10.295-2.574-20.805,1.501-27.239,9.651c-1.141,1.39-2.505,3.123-3.698,5.01
						c-0.274-4.015-1.896-7.97-4.881-9.514c-3.827-1.913-6.435,0.72-8.417,3.938c-1.132-3.955-4.573-6.846-10.458-6.082
						c-5.894,0.841-10.758,6.442-11.539,12.131c-3.534-4.188-8.914-7.73-12.053-8.7c-2.986-0.815-6.22-0.686-8.743,0.703
						c-2.05-4.873-6.855-8.055-14.421-7.138c-7.009,0.618-11.839,4.41-14.293,10.793c-0.626-3.244-1.664-6.366-2.436-8.005
						c-3.002-7.078-10.081-11.796-17.802-10.081c-10.999,2.746-16.138,14.036-15.339,24.751c-1.176-3.397-2.934-6.555-5.465-8.879
						c-4.719-4.29-12.011-4.29-16.086,0.857c-5.362,6.864-2.788,17.588,0.214,24.88c0.026,0.059,0.052,0.128,0.086,0.205
						c-4.746-2.591-10.142-3.123-11.024,1.082c-0.703,3.148,0.781,6.485,3.191,9.497c-5.602-2.557-11.393-4.367-12.843-1.776
						c-2.46,4.393,4.576,11.66,7.202,14.146c-3.185,1.818-5.445,3.842-3.985,5.488c3.575,4.031,43.039,0,43.039,0
						s-2.431,4.889,1.001,4.889c3.431,0,8.722-3.965,8.722-3.965s31.6,16.423,67.991,0.399c0,0-0.787,6.14,2.358,6.14
						c3.146,0,7.936-4.861,7.936-4.861s25.381,10.383,35.962-2.601c0,0,22.162,11.752,23.735-2.547c0,0,19.875,9.294,17.301-1.715
						c0,0,7.15,6.166,8.579,5.585c1.431-0.58,0-4.861,0-4.861s23.736,7.427,31.601,0.993
						C486.381,124.807,483.212,121.718,479.929,119.865z"/>
					<g style="opacity:0.2;">
						<g>
							<path style="fill:#FFFFFF;" d="M266.769,125.857c-3.9,0.015-7.876-1.662-9.762-5.309c-1.531-2.854-1.448-5.59-0.622-8.459
								c2.576-0.389,5.332-0.247,7.671,0.924C269.53,115.809,268.751,121.054,266.769,125.857z"/>
						</g>
						<g>
							<path style="fill:#FFFFFF;" d="M309.921,89.634c-0.284-3.889,1.117-7.972,4.624-10.104c2.742-1.724,5.478-1.83,8.397-1.203
								c0.565,2.544,0.615,5.303-0.394,7.716C320.136,91.697,314.85,91.282,309.921,89.634z"/>
						</g>
						<g>
							<path style="fill:#FFFFFF;" d="M398.798,127.421c-0.284-3.889,1.116-7.971,4.624-10.104c2.742-1.725,5.478-1.831,8.396-1.204
								c0.565,2.544,0.614,5.304-0.394,7.716C409.013,129.484,403.727,129.069,398.798,127.421z"/>
						</g>
						<g>
							<path style="fill:#FFFFFF;" d="M408.972,98.696c-0.284-3.889,1.116-7.972,4.624-10.104c2.743-1.725,5.478-1.831,8.397-1.203
								c0.564,2.543,0.615,5.303-0.395,7.716C419.186,100.758,413.9,100.344,408.972,98.696z"/>
						</g>
						<g>
							<path style="fill:#FFFFFF;" d="M326.15,131.146c-0.283-3.889,1.117-7.972,4.625-10.104c2.741-1.724,5.478-1.83,8.396-1.203
								c0.565,2.544,0.614,5.302-0.394,7.716C336.365,133.209,331.079,132.794,326.15,131.146z"/>
						</g>
						<g>
							<path style="fill:#FFFFFF;" d="M395.661,107.307c-2.232,1.486-3.658,4.264-2.905,7.707c0.558,2.714,1.979,4.723,3.89,6.544
								c1.665-0.701,3.167-1.863,3.913-3.635C402.279,113.738,399.203,110.127,395.661,107.307z"/>
						</g>
						<g>
							<path style="fill:#FFFFFF;" d="M291.923,113.229c-0.282-3.89,1.117-7.971,4.625-10.104c2.741-1.724,5.477-1.83,8.396-1.203
								c0.565,2.543,0.615,5.303-0.393,7.716C302.139,115.291,296.852,114.876,291.923,113.229z"/>
						</g>
						<g>
							<path style="fill:#FFFFFF;" d="M287.071,92.226c-2.232,1.486-3.659,4.263-2.905,7.706c0.558,2.714,1.98,4.723,3.891,6.545
								c1.664-0.7,3.166-1.863,3.912-3.635C293.689,98.656,290.613,95.045,287.071,92.226z"/>
						</g>
						<g>
							<path style="fill:#FFFFFF;" d="M412.219,84.577c2.463,1.133,5.457,1.232,7.689-0.502c1.781-1.342,2.507-3.075,2.802-5.107
								c-1.521-0.986-3.304-1.692-5.118-1.635C413.332,77.502,412.332,81.004,412.219,84.577z"/>
						</g>
						<g>
							<path style="fill:#FFFFFF;" d="M363.759,129.692c-0.206-2.82,0.808-5.78,3.353-7.326c1.987-1.25,3.971-1.327,6.087-0.872
								c0.41,1.845,0.445,3.845-0.286,5.594C371.165,131.188,367.331,130.887,363.759,129.692z"/>
						</g>
						<g>
							<path style="fill:#FFFFFF;" d="M360.974,132.663c1.329-2.363,1.671-5.339,0.124-7.705c-1.193-1.884-2.863-2.749-4.862-3.207
								c-1.106,1.435-1.955,3.156-2.045,4.968C354.013,130.979,357.421,132.261,360.974,132.663z"/>
						</g>
						<g>
							<path style="fill:#FFFFFF;" d="M322.202,108.948c-2.232,1.486-3.659,4.264-2.905,7.706c0.558,2.715,1.979,4.723,3.889,6.545
								c1.666-0.7,3.167-1.864,3.913-3.635C328.82,115.378,325.743,111.767,322.202,108.948z"/>
						</g>
						<g>
							<path style="fill:#FFFFFF;" d="M253.763,95.258c-0.562,2.899-0.057,6.063,1.997,7.909c1.6,1.485,3.355,1.755,5.299,1.488
								c0.612-1.87,0.914-3.938,0.499-5.822C260.554,94.422,257.103,94.365,253.763,95.258z"/>
						</g>
						<g>
							<path style="fill:#FFFFFF;" d="M267.117,98.668c-2.232,1.485-3.659,4.263-2.905,7.705c0.558,2.715,1.979,4.723,3.89,6.545
								c1.664-0.7,3.167-1.863,3.913-3.635C273.735,105.098,270.659,101.486,267.117,98.668z"/>
						</g>
						<g>
							<path style="fill:#FFFFFF;" d="M327.984,72.788c-2.232,1.485-3.659,4.263-2.906,7.705c0.558,2.715,1.979,4.724,3.89,6.544
								c1.665-0.7,3.166-1.863,3.913-3.634C334.602,79.217,331.525,75.605,327.984,72.788z"/>
						</g>
						<g>
							<path style="fill:#FFFFFF;" d="M469.462,114.448c-2.628-0.532-5.603,0.417-7.51,3.381c-1.53,2.311-1.95,4.735-1.892,7.375
								c1.671,0.685,3.555,0.928,5.336,0.207C469.577,123.674,469.964,118.947,469.462,114.448z"/>
						</g>
						<g>
							<path style="fill:#FFFFFF;" d="M457.529,120.891c-3.342-0.646-6.453-2.813-7.427-6.382c-0.809-2.802-0.255-5.228,0.956-7.646
								c2.275,0.089,4.611,0.68,6.408,2.12C461.661,112.399,460.072,116.943,457.529,120.891z"/>
						</g>
						<g>
							<path style="fill:#FFFFFF;" d="M405.946,91.359c-3.343-0.646-6.454-2.813-7.428-6.382c-0.809-2.803-0.255-5.228,0.956-7.646
								c2.275,0.089,4.611,0.68,6.408,2.12C410.078,82.867,408.489,87.412,405.946,91.359z"/>
						</g>
						<g>
							<path style="fill:#FFFFFF;" d="M321.932,134.018c-3.28,0.912-7.03,0.358-9.494-2.402c-1.973-2.148-2.559-4.566-2.552-7.271
								c2.076-0.934,4.431-1.446,6.681-0.958C321.846,124.576,322.449,129.352,321.932,134.018z"/>
						</g>
						<g>
							<path style="fill:#FFFFFF;" d="M362.587,103.442c0.279-3.889-1.103-7.972-4.572-10.104c-2.708-1.725-5.413-1.831-8.297-1.204
								c-0.559,2.544-0.608,5.303,0.389,7.717C352.491,105.505,357.715,105.09,362.587,103.442z"/>
						</g>
						<g>
							<path style="fill:#FFFFFF;" d="M374.026,85.406c0.504,2.299,0.08,5.116-1.7,7.249c-1.387,1.702-2.915,2.416-4.609,2.73
								c-0.542-1.413-0.816-3.08-0.463-4.788C368.106,86.582,371.112,85.577,374.026,85.406z"/>
						</g>
						<g>
							<path style="fill:#FFFFFF;" d="M366.757,106.313c3.241,0.912,6.95,0.358,9.383-2.402c1.951-2.148,2.531-4.566,2.524-7.271
								c-2.053-0.934-4.379-1.446-6.603-0.958C366.842,96.871,366.246,101.647,366.757,106.313z"/>
						</g>
					</g>
				</g>
			</g>
			<g>
				<path style="fill:#FF994D;" d="M437.899,255.951c0,8.534-37.481,15.452-83.716,15.452c-46.233,0-83.713-6.918-83.713-15.452
					c0-8.534,37.48-15.452,83.713-15.452C400.418,240.499,437.899,247.417,437.899,255.951z"/>
				<path style="fill:#FFCE33;" d="M286.299,261.534h21.503c0,0,4.87-7.473,2.344-8.527c-2.526-1.055-7.264,4.263-7.264,4.263
					s2.187-3.485,0-4.402c-2.187-0.916-4.297,5.28-4.297,5.28s-5.423-11.116-8.216-10.023c-2.794,1.093-0.972,9.658-0.972,9.658
					S280.832,249.611,286.299,261.534z"/>
				<path style="fill:#9E9E0D;" d="M408.938,258.694h19.134c0,0,3.28-1.793,1.458-3.903c-1.823-2.11-6.925,1.952-6.925,1.952
					s2.37-5.884,0.729-6.431c-1.64-0.546-4.738,4.479-4.738,4.479s-0.911-5.473-2.733-4.521c-1.822,0.953-3.061,5.68-3.061,5.68
					S406.023,246.121,408.938,258.694z"/>
			</g>
		</g>
		<g>
			<g>
				<path style="fill:#FFFFFF;" d="M380.366,191.372c1.698,6.729,5.039,17.297,12.965,19.066c6.736,1.504,9.19-4.218,10.461-9.849
					c0.148-0.654-1.958-0.308-2.099,0.314c-0.457,2.026-0.98,3.975-1.843,5.871c-2.408,5.288-8.208,1.497-10.767-1.263
					c-3.613-3.896-5.336-9.673-6.605-14.706C382.323,190.19,380.208,190.745,380.366,191.372L380.366,191.372z"/>
				<path style="fill:#121A35;" d="M407.602,202.509l1.444-1.81l-3.868-4.754l-2.435,2.338l1.381-3.634l-0.546-0.67l-1.14,1.301
					l0.521-2.061l-1.14-1.401c0,0-4.374,9.658-1.314,13.606c3.06,3.948,10.061-2.854,10.061-2.854l-0.951-1.169L407.602,202.509z"/>
				<path style="fill:#121A35;" d="M340.865,129.551l-9.191-11.354l1.91-14.943c0,0-8.269,4.022-17.331,11.671l0.843,2.742
					l-2.11-1.651c-3.576,3.131-7.217,6.817-10.481,11.034l1.414,3.356l-2.409-2.036c-0.457,0.622-0.907,1.25-1.344,1.893
					l4.239,3.789l-5.07-2.535c-3.011,4.666-5.46,9.88-6.879,15.609l2.352,2.476h-2.897c-1.19,6.268-1.129,13.121,0.772,20.531
					c1.373,5.357,2.964,10.114,4.698,14.339l2.895-0.733l-1.214,1.624h2.186l-2.8,1.594c1.591,3.575,3.283,6.741,5.023,9.538h3.608
					l-2.713,1.405c4.518,6.892,9.283,11.412,13.37,14.35l13.156-23.045l-1.68-49.751L340.865,129.551z"/>
				<path style="fill:#121A35;" d="M333.921,208.886l-26.119,20.652c0,0,6.561,13.485,25.512,10.934v-6.378l-21.321-3.099
					l23.508-14.76L333.921,208.886z"/>
				<path style="fill:#121A35;" d="M353.056,206.656c0,0-2.866,10.566,10.447,12.533l-2.065,22.863l7.775,0.851l-2.349-35.156
					L353.056,206.656z"/>
				<g>
					<path style="fill:#FFFFFF;" d="M376.138,212.044c0,0,7.471,22.779,4.92,37.174l-3.462,2.734l-2.551-32.801
						c0,0-6.305,0.766-8.951-4.592l-32.233,3.499l5.832,37.721h-8.019l-1.275-38.268c0,0-4.578-0.875-10.664-5.263
						c-31.365-67.228,11.939-94.052,11.939-94.052l0.008-0.007c0.327-0.103,8.236-2.727,16.852-4.031
						c-5.087,11.779-4.556,20.985-3.075,26.846c-2.61-0.233-5.439-0.664-8.499-1.305l3.098,41.73c0,0,34.077-4.738,41.913,5.284
						C389.805,196.738,376.138,212.044,376.138,212.044z"/>
					<g>
						<path style="fill:#121A35;" d="M337.364,145.16l-0.375-5.041l-12.748-15.485c-0.638,0.678-1.295,1.412-1.963,2.203
							L337.364,145.16z"/>
						<path style="fill:#121A35;" d="M340.958,139.351l-10.45-20.346c-0.593,0.436-1.388,1.052-2.326,1.855l9.781,19.042
							c2.188,0.433,4.257,0.754,6.204,0.972l-4.175-25.015c-1.012,0.246-1.962,0.49-2.835,0.723L340.958,139.351z"/>
						<path style="fill:#121A35;" d="M337.877,152.074l-0.288-3.876l-19.911-15.08c-0.51,0.805-1.012,1.644-1.505,2.518
							L337.877,152.074z"/>
						<path style="fill:#121A35;" d="M331.795,141.583l-11.668-12.032c-0.428,0.576-0.857,1.17-1.283,1.792L331.795,141.583z"/>
						<path style="fill:#121A35;" d="M338.38,158.846l-0.248-3.345l-25.587-12.153c-0.345,0.895-0.676,1.812-0.989,2.758
							L338.38,158.846z"/>
						<polygon style="fill:#121A35;" points="311.915,140.245 338.026,154.089 337.958,153.174 313.35,137.815 						"/>
						<path style="fill:#121A35;" d="M338.815,164.708l-0.231-3.098l-28.936-8.246c-0.189,0.941-0.36,1.904-0.511,2.886
							L338.815,164.708z"/>
						<path style="fill:#121A35;" d="M339.17,169.489l-30.718,1.637c0.052,0.956,0.121,1.925,0.208,2.909l30.726-1.638
							L339.17,169.489z"/>
						<path style="fill:#121A35;" d="M341.854,181.21l-27.624,17.558c0.324,0.927,0.663,1.863,1.017,2.808l32.942-20.938
							C345.51,180.822,343.294,181.047,341.854,181.21z"/>
						<path style="fill:#121A35;" d="M339.979,180.4l-0.234-3.153l-27.83,14.179c0.261,0.94,0.54,1.888,0.833,2.848L339.979,180.4z"
							/>
						<path style="fill:#121A35;" d="M335.622,178.393l-25.476,5.7c0.158,0.773,0.323,1.551,0.502,2.338L335.622,178.393z"/>
						<path style="fill:#121A35;" d="M339.138,169.065l-0.219-2.954l-30.474-3.16c-0.052,0.956-0.081,1.932-0.095,2.921
							L339.138,169.065z"/>
						<path style="fill:#121A35;" d="M356.201,180.317c-1.712,0.016-3.375,0.068-4.941,0.142l-33.944,26.321
							c0.385,0.914,0.78,1.834,1.193,2.765L356.201,180.317z"/>
						<path style="fill:#121A35;" d="M340.981,217.085l-0.23,0.068l27.168-36.224c-1.109-0.145-2.241-0.261-3.383-0.35
							l-27.882,37.176l4.384-0.476L340.981,217.085z"/>
						<polygon style="fill:#121A35;" points="330.487,220.174 330.587,223.184 334.476,222.039 334.026,219.132 						"/>
						<polygon style="fill:#121A35;" points="330.753,228.151 335.131,226.274 334.671,223.299 330.649,225.024 						"/>
						<path style="fill:#121A35;" d="M362.471,180.442c-1.447-0.076-2.898-0.116-4.328-0.128l-37.738,32.4
							c0.892,0.618,1.754,1.169,2.563,1.642L362.471,180.442z"/>
						<path style="fill:#121A35;" d="M372.551,181.764c-0.966-0.229-1.969-0.428-3.001-0.595l-19.357,35.117l3.541-0.385
							L372.551,181.764z"/>
						<path style="fill:#121A35;" d="M373.806,182.086l-9.523,32.67l1.811-0.196c0.258,0.524,0.56,0.973,0.879,1.386l9.6-32.934
							C375.706,182.663,374.779,182.356,373.806,182.086z"/>
						<path style="fill:#121A35;" d="M378.615,221.034c-0.25-1.047-0.498-2.026-0.734-2.93l-2.796,1.566l0.249,3.203
							L378.615,221.034z"/>
						<path style="fill:#121A35;" d="M374.411,219.187l3.045-2.663c-0.352-1.284-0.659-2.334-0.889-3.096l-5.605,4.9l9.849-32.826
							c-0.727-0.64-1.579-1.205-2.533-1.705l-10.035,33.448C370.466,219.025,373.197,219.21,374.411,219.187z"/>
						<path style="fill:#121A35;" d="M378.171,209.468c1.282-1.763,2.928-4.297,4.206-7.17l1.831-10.52
							c-0.292-1.698-0.958-3.348-2.11-4.88L378.171,209.468z"/>
						<polygon style="fill:#121A35;" points="364.84,187.626 345.685,216.774 348.805,216.436 						"/>
						<path style="fill:#121A35;" d="M355.12,189.813l-28.512,26.402c1.143,0.497,2.06,0.813,2.712,1.011L355.12,189.813z"/>
						<path style="fill:#121A35;" d="M339.657,176.052l-0.216-2.911l-30.478,3.708c0.117,0.949,0.252,1.913,0.404,2.888
							L339.657,176.052z"/>
						<polygon style="fill:#121A35;" points="330.819,230.146 335.783,230.495 335.954,231.6 330.819,231.908 						"/>
						<polygon style="fill:#121A35;" points="375.536,225.477 379.239,223.753 379.903,226.987 375.899,230.146 375.807,229.117 
							379.429,225.245 375.581,226.065 						"/>
					</g>
				</g>
				<path style="fill:#FF994D;" d="M345.458,141.005c-1.481-5.86-2.012-15.066,3.075-26.846c8.44-1.297,17.56-1.327,20.862,3.492
					C375.525,126.602,371.713,143.395,345.458,141.005z"/>
				<g>
					<path style="fill:#121A35;" d="M336.412,118.926c0,3.221-2.448,5.831-5.467,5.831c-3.02,0-5.467-2.61-5.467-5.831
						c0-3.22,2.447-5.831,5.467-5.831C333.964,113.095,336.412,115.706,336.412,118.926z"/>
					<path style="fill:#121A35;" d="M345.214,116.173c0,3.221-2.448,5.831-5.466,5.831c-3.02,0-5.467-2.61-5.467-5.831
						c0-3.221,2.447-5.831,5.467-5.831C342.767,110.341,345.214,112.952,345.214,116.173z"/>
					<path style="fill:#FFFFFF;" d="M338.417,113.666c-1.822,0-3.298,1.354-3.398,3.056c-0.604-0.913-1.668-1.523-2.889-1.523
						c-1.888,0-3.417,1.448-3.417,3.234c0,1.786,1.529,3.235,3.417,3.235c1.822,0,3.297-1.354,3.397-3.057
						c0.604,0.913,1.668,1.524,2.889,1.524c1.886,0,3.417-1.448,3.417-3.235C341.833,115.114,340.303,113.666,338.417,113.666z"/>
					<path style="fill:#121A35;" d="M332.084,118.744c0,0.855-0.582,1.549-1.298,1.549c-0.718,0-1.299-0.693-1.299-1.549
						c0-0.856,0.581-1.549,1.299-1.549C331.502,117.195,332.084,117.888,332.084,118.744z"/>
					<path style="fill:#121A35;" d="M338.417,117.195c0,0.856-0.582,1.549-1.298,1.549c-0.717,0-1.298-0.693-1.298-1.549
						c0-0.855,0.581-1.549,1.298-1.549C337.835,115.646,338.417,116.339,338.417,117.195z"/>
				</g>
				<path style="fill:none;" d="M290.369,161.628l7.046,23.341l1.965-0.497c-1.734-4.226-3.325-8.983-4.698-14.339
					c-1.901-7.411-1.962-14.263-0.772-20.531h-2.448L290.369,161.628z"/>
				<path style="fill:none;" d="M300.695,128.949l1.471,1.314c0.437-0.643,0.887-1.271,1.344-1.893l-1.235-1.044L300.695,128.949z"
					/>
				<path style="fill:none;" d="M303.611,196.495h1.858c-1.74-2.797-3.432-5.963-5.023-9.538l-1.816,1.034L303.611,196.495z"/>
				<g>
					<path style="fill:#121A35;" d="M347.619,122.935l11.3,6.378C358.919,129.313,343.975,155.918,347.619,122.935z"/>
					<path style="fill:#FFFFFF;" d="M348.439,124.757l8.83,4.374C357.269,129.131,347.072,134.871,348.439,124.757z"/>
					<path style="fill:#FE2919;" d="M347.893,132.727c0,0,0.253,5.536,2.068,5.698C349.961,138.425,351.81,132.222,347.893,132.727z
						"/>
				</g>
				<path style="fill:#121A35;" d="M359.631,120.973c1.239,1.106,1.93,2.352,1.546,2.782c-0.384,0.43-1.699-0.118-2.937-1.225
					c-1.239-1.106-1.931-2.352-1.548-2.782C357.077,119.318,358.393,119.867,359.631,120.973z"/>
				<path style="fill:#121A35;" d="M364.59,119.979c-0.333,1.419-1.001,2.475-1.493,2.359c-0.493-0.116-0.623-1.359-0.289-2.777
					c0.331-1.418,0.999-2.474,1.492-2.358C364.792,117.319,364.923,118.562,364.59,119.979z"/>
				<path style="fill:#121A35;" d="M356.042,123.133c-0.409-0.433-2.439-2.679-2.207-4.426c0.077-0.584,0.39-1.059,0.905-1.375
					c2.258-1.381,5.572,1.213,5.943,1.514l-0.918,1.132c-0.734-0.592-3.09-2.122-4.263-1.403c-0.162,0.099-0.206,0.201-0.222,0.322
					c-0.104,0.791,1.002,2.367,1.822,3.233L356.042,123.133z"/>
				<g>
					<path style="fill:#FFFFFF;" d="M322.38,124.515c0,0-8.99,6.428-7.836-5.351C314.544,119.164,320.983,117.533,322.38,124.515z"
						/>
					<path style="fill:#121A35;" d="M314.97,119.771l6.621,4.319C321.59,124.09,314.301,128.331,314.97,119.771z"/>
				</g>
				<path style="fill:#121A35;" d="M366.575,120.599l-1.324-0.611c0.236-0.515,0.824-2.189,0.439-3.1
					c-0.114-0.271-0.308-0.448-0.609-0.555c-0.316-0.111-0.6-0.097-0.894,0.045c-0.939,0.456-1.643,2.03-1.835,2.599l-1.382-0.463
					c0.089-0.268,0.922-2.64,2.577-3.446c0.643-0.313,1.341-0.352,2.023-0.108c0.686,0.244,1.192,0.716,1.465,1.365
					C367.737,117.993,366.696,120.337,366.575,120.599z"/>
			</g>
			<path style="fill:#9E9E0D;" d="M397.749,254.573l-74.865,2.407c0,0-12.844-15.08-11.199-17.972
				c1.645-2.893,16.079,0.746,16.079,0.746s-6.076-11.987-3.438-12.803c2.638-0.816,15.061,11.989,15.061,11.989
				s3.228-9.437,11.164-9.712c7.938-0.275,12.593,11.296,12.593,11.296s-0.015-8.438,2.639-8.695
				c2.652-0.257,1.551,6.629,1.551,6.629s11.794-12.26,19.397-9.918c7.604,2.342,5.909,11.449,5.909,11.449
				s6.379-9.301,10.569-7.235C407.398,234.817,397.749,254.573,397.749,254.573z"/>
			<path style="fill:#FFCE33;" d="M366.156,256.98h33.28c0,0,4.547-5.26,4.038-6.821c-0.509-1.562-9.073,2.63-9.073,2.63
				s4.009-9.613,0.546-11.002c-3.462-1.39-11.663,9.963-11.663,9.963s-1.844-7.708-3.382-7.708s-3.037,7.708-3.037,7.708
				S357.409,241.126,366.156,256.98z"/>
		</g>
	</g>
	<g>
		<g>
			<g>
				<path style="fill:#9E9E0D;" d="M71.558,445.298c0,0-15.666-12.109-12.381-15.75c3.286-3.639,17.306,3.997,17.306,3.997
					s-13.813-22.761-7.066-25.665c6.748-2.906,20.012,20.732,20.012,20.732s-0.028-6.422,2.999-6.904
					c3.026-0.484,7.565,9.935,7.565,9.935s2.924-4.94,6.931-3.842c4.008,1.101-0.746,10.509-0.746,10.509L71.558,445.298z"/>
				<path style="fill:#9E9E0D;" d="M59.702,410.233c0,0-3.179,8.15,6.497,11.149C66.199,421.383,70.685,410.526,59.702,410.233z"/>
				<path style="fill:#9E9E0D;" d="M65.311,426.026c0,0-6.417,4.171-10.292-2.104C55.019,423.923,63.53,418.189,65.311,426.026z"/>
			</g>
			<path style="fill:#FFCE33;" d="M229.93,447.68c0,8.871-37.975,16.064-84.818,16.064s-84.816-7.192-84.816-16.064
				c0-8.871,37.974-16.063,84.816-16.063S229.93,438.809,229.93,447.68z"/>
			<path style="fill:#9E9E0D;" d="M90.165,456.754l30.507-1.319c0,0,1.896-5.47,0-6.835c-1.897-1.365-10.24,4.077-10.24,4.077
				s0.074-13.458-3.172-12.912c-3.246,0.545-5.979,11.377-5.979,11.377s-3.827-6.746-5.832-5.691c-2.004,1.055,0,6.606,0,6.606
				S83.604,445.136,90.165,456.754z"/>
		</g>
		<g>
			<g>
				<path style="fill:#121A35;" d="M150.721,413.734l-23.082,2.915c0,0,7.532,18.467,21.867,12.877v-2.913l-17.494-8.506h17.494
					L150.721,413.734z"/>
				<path style="fill:#121A35;" d="M168.457,411.061c0,0,1.701,11.987,11.906,11.096l-5.953,16.116h4.009l8.324-32.314
					L168.457,411.061z"/>
				<path style="fill:#FF994D;" d="M48.431,329.041c0,0-31.829,2.326,0-32.662c0,0-31.423,6.105-31.829,30.598
					c-0.407,24.491,34.501,11.193,34.501,11.193L48.431,329.041z"/>
				<path style="fill:#7A4B3C;" d="M192.996,400.854l5.103,32.561l-5.831,2.427l-0.481-22.349c0,0-3.878,0.655-7.879-0.021
					c-8.047,4.891-21.714,10.839-33.188,4.147l3.893,24.054l-6.079,2.188l-1.458-27.939l-32.349-19.615
					c-4.724,2.149-12.238,3.514-24.018,3.091c-40.818-1.458-66.09-40.12-51.264-70.356c13.214-26.962,50.769-34.958,71.323-26.357
					c-16.269,24.551-23.091,59.006-2.215,59.793c19.112,0.723,23.98-21.153,25.22-32.48c52.045,17.978,28.901,57.982,28.901,57.982
					s12.69-3.015,13.485-15.275c4.533-4.723,11.21-9.111,18.543-5.379C208.063,374.132,204.659,395.022,192.996,400.854z"/>
				<path style="fill:#FF994D;" d="M113.544,423.939c-19.228,6.049-21.729-11.212-21.022-24.492
					c5.576,0.116,10.131-0.183,13.857-0.795c5.933,8.463,17.217,18.201,21.262-21.852
					C127.641,376.801,143.677,414.463,113.544,423.939z"/>
				<path style="fill:#121A35;" d="M118.369,367.851c-0.628,0-1.197-0.173-1.662-0.586c-0.461-0.41-0.697-0.963-0.684-1.6
					c0.055-2.635,4.675-6.489,5.202-6.92l0.923,1.129c-1.788,1.464-4.637,4.339-4.667,5.821c-0.004,0.212,0.054,0.355,0.195,0.48
					c1.155,1.026,5.103-1.601,7.407-3.7l0.982,1.078C125.152,364.384,121.18,367.85,118.369,367.851z"/>
				<path style="fill:#121A35;" d="M124.846,372.223c-0.628,0-1.198-0.173-1.663-0.586c-0.46-0.409-0.697-0.962-0.684-1.599
					c0.054-2.634,4.675-6.489,5.202-6.921l0.923,1.129c-1.789,1.464-4.638,4.34-4.667,5.821c-0.004,0.211,0.054,0.354,0.195,0.479
					c1.156,1.028,5.104-1.6,7.407-3.699l0.982,1.078C131.629,368.757,127.657,372.223,124.846,372.223z"/>
				<path style="fill:#7A4B3C;" d="M194.493,376.234c1.825,4.577,9.34,4.354,12.852,2.173c5.034-3.127,3.723-10.954,2.746-15.737
					c-0.171-0.837-2.29-0.301-2.112,0.566c0.747,3.654,1.299,7.44,0.283,11.097c-0.727,2.611-2.864,4.182-5.537,4.195
					c-2.196,0.011-5.211-0.584-6.119-2.86C196.274,374.838,194.183,375.457,194.493,376.234L194.493,376.234z"/>
				<g>
					<path style="fill:#121A35;" d="M215.522,364.272c-1.458,4.615-9.229,3.04-11.539,0c-3.863-5.285,1.844-10.284,7.697-12.828
						C213.983,355.476,216.71,360.804,215.522,364.272z"/>
				</g>
				<g>
					<path style="fill:#121A35;" d="M94.865,400.204c-1.348,0-2.742-0.025-4.184-0.077c-20.758-0.741-39.146-11.194-49.188-27.961
						c-8.389-14.007-9.376-29.842-2.707-43.446c13.924-28.399,52.717-34.88,72.264-26.708l-0.563,1.346
						c-19.043-7.967-56.831-1.654-70.393,26.005c-6.447,13.151-5.481,28.479,2.649,42.055c9.787,16.342,27.728,26.529,47.989,27.253
						c19.894,0.711,26.994-3.762,29.444-7.639c2.89-4.575,0.281-9.709,0.255-9.76l1.291-0.677c0.125,0.239,3.027,5.906-0.305,11.2
						C117.903,397.381,108.978,400.204,94.865,400.204z"/>
					<path style="fill:#121A35;" d="M124.276,382.724c-1.368-1.064-2.596-1.514-3.551-1.309c-0.971,0.211-1.409,1.03-1.427,1.065
						l-1.301-0.658c0.029-0.059,0.742-1.451,2.387-1.824c1.419-0.324,3.03,0.208,4.788,1.575L124.276,382.724z"/>
				</g>
				<path style="fill:#121A35;" d="M61,330.946c-7.903,5.674-15.899,8.061-17.86,5.328c-1.961-2.731,2.855-9.545,10.759-15.219
					c7.902-5.674,15.898-8.06,17.859-5.328C73.719,318.458,68.902,325.272,61,330.946z"/>
				<path style="fill:#121A35;" d="M76.568,345.276c-5.596,7.959-12.363,12.84-15.113,10.906c-2.75-1.935-0.443-9.954,5.153-17.91
					c5.597-7.959,12.363-12.842,15.113-10.908C84.472,329.299,82.165,337.318,76.568,345.276z"/>
				<path style="fill:#121A35;" d="M191.54,435.859l-0.469-21.534c-2.738,0.322-11.368,0.865-14.974-4.417
					c-3.098-4.536-1.546-12.041,4.612-22.305l1.25,0.75c-5.839,9.732-7.407,16.708-4.658,20.733
					c3.702,5.421,14.253,3.703,14.359,3.686l0.832-0.141l0.505,23.196L191.54,435.859z"/>
				<path style="fill:#121A35;" d="M176.213,369.11c-0.1-3.223-0.611-6.539-1.54-9.802h-6.459l4.859-2.703h-3.402l3.435-1.782
					c-0.983-2.368-2.201-4.663-3.659-6.824l-6.093,1.43l5.082-2.854c-0.156-0.209-0.305-0.424-0.465-0.63
					c-3.498-4.49-7.542-8.119-11.667-11.048l-3.033,1.572v-2.673l-1.943,1.821l1.129-3.248c-1.717-1.042-3.422-1.97-5.084-2.795
					l-2.606,2.764l0.589-3.729c-4.354-1.998-8.296-3.291-11.178-4.088c-0.036,1.137-0.138,3.068-0.408,5.474
					c50.324,24.484,22.05,63.329,22.05,63.329c12.559,1.551,19.542-8.361,20.337-20.622c0.055-0.83,0.071-1.675,0.069-2.522
					l-2.667-0.667L176.213,369.11z"/>
				<g>
					<path style="fill:#7A4B3C;" d="M122.276,347.403l-0.762-15.064C121.515,332.339,102.335,345.701,122.276,347.403z"/>
					<path style="fill:#121A35;" d="M119.245,335.861l1.917,10.205C121.162,346.066,109.029,344.243,119.245,335.861z"/>
				</g>
				<g>
					<path style="fill:#121A35;" d="M151.586,369.649c-2.223,0-4.922-1.041-8.069-3.116l0.803-1.217
						c4.187,2.762,7.365,3.546,9.449,2.324c2.756-1.61,3.051-6.345,3.051-8.295l-12.742,2.86l-0.319-1.422l14.434-3.24l0.06,0.846
						c0.023,0.326,0.513,8.02-3.748,10.51C153.648,369.399,152.674,369.649,151.586,369.649z"/>
					<path style="fill:#121A35;" d="M145.862,363.217l9.138-0.871C154.999,362.346,152.301,372.228,145.862,363.217z"/>
				</g>
			</g>
			<g>
				<path style="fill:#9E9E0D;" d="M218.024,443.862l-88.684,1.458c0,0-10.725-12.634-7.063-17.252
					c3.662-4.615,23.342,10.205,23.342,10.205s6.317-13.36,11.663-11.66c5.345,1.699,2.915,11.66,2.915,11.66
					s6.752-10.934,9.572-9.961c2.82,0.972,0,7.579,0,7.579s12.781-9.037,14.725,2.382c0,0,12.635-19.356,20.167-16.116
					c7.532,3.239-2.915,16.116-2.915,16.116s12.907-8.747,18.359-5.831C225.556,435.358,218.024,443.862,218.024,443.862z"/>
			</g>
		</g>
	</g>
</g>
</svg>
